<?xml version="1.0" encoding="UTF-8"?>
<svg version="1.1" xmlns="http://www.w3.org/2000/svg" width="819" height="304">
<path d="M0 0 C26.97384942 -0.09361725 53.94767434 -0.16406431 80.92165375 -0.20724869 C93.44733627 -0.22783668 105.9729176 -0.25588517 118.49853516 -0.30175781 C129.42125631 -0.34174094 140.34390414 -0.36746013 151.26669645 -0.37635398 C157.0453471 -0.38154931 162.82378805 -0.39368139 168.60237122 -0.42292023 C174.05244994 -0.45027086 179.50223457 -0.4584056 184.95237541 -0.45243073 C186.94201702 -0.45352223 188.93166948 -0.46135806 190.9212513 -0.4768219 C211.03776593 -0.62537519 228.52376411 2.19037647 243.7109375 16.58203125 C254.39788215 27.87080043 259.34730828 41.26330085 259.02954102 56.78442383 C258.2996078 72.86812466 252.516396 84.81264389 241 96 C240.34 96.99 239.68 97.98 239 99 C239.556875 99.38929688 240.11375 99.77859375 240.6875 100.1796875 C251.68950528 108.24534678 259.1341549 118.48653209 262 132 C262.8635711 144.0352033 263.58791718 157.01685245 258 168 C257.59910156 168.83917969 257.19820313 169.67835938 256.78515625 170.54296875 C249.87649306 183.45916515 238.578323 192.23525816 225.00390625 197.10546875 C217.87815521 199.22744143 211.26696657 200.29448308 203.83140564 200.24050903 C202.95391916 200.24221788 202.07643269 200.24392673 201.17235571 200.24568737 C198.25666419 200.24895963 195.34120713 200.23801613 192.42553711 200.22705078 C190.32571417 200.22648618 188.22589083 200.22680419 186.12606812 200.22793579 C180.4428632 200.22850838 174.75974312 200.21676915 169.07655787 200.20278788 C163.13084137 200.19026497 157.1851228 200.18910879 151.23939514 200.18673706 C139.98802335 200.18052688 128.73669053 200.16412229 117.48533589 200.14403808 C104.67280082 200.12166472 91.86026386 200.11068203 79.04771411 200.10064721 C52.69845449 200.07975568 26.34922943 200.04458867 0 200 C-0.13243712 181.27143733 -0.26288248 162.54286171 -0.39115143 143.81427002 C-0.45079377 135.11217614 -0.51102603 126.41008717 -0.57275391 117.70800781 C-1.04495769 51.03354084 -1.04495769 51.03354084 -1.08811951 24.37036133 C-1.09183323 22.31225228 -1.09713845 20.25414541 -1.10414124 18.19604492 C-1.11284308 15.44838259 -1.11515282 12.70079915 -1.11523438 9.953125 C-1.11880447 9.16145935 -1.12237457 8.3697937 -1.12605286 7.55413818 C-1.11472357 2.22944713 -1.11472357 2.22944713 0 0 Z M50 48 C50 57.24 50 66.48 50 76 C69.86237598 76.11284849 89.72449259 76.20496152 109.58710766 76.25906086 C118.80957194 76.28484728 128.03182298 76.32000609 137.25415039 76.37719727 C145.29194016 76.42701893 153.3295755 76.45928783 161.36751539 76.47044247 C165.62399589 76.47696338 169.88003457 76.49229804 174.13637352 76.52865028 C178.14276048 76.5625905 182.14852367 76.57305716 186.15504074 76.56553841 C187.62523984 76.56691386 189.09545981 76.57685881 190.56553459 76.59602737 C192.57362137 76.62092662 194.58204291 76.61193761 196.59025574 76.60127258 C198.27575421 76.60818603 198.27575421 76.60818603 199.99530315 76.61523914 C203.95645739 75.80415661 205.45600648 74.06358525 208 71 C210.14585855 65.58275906 209.83422366 58.36118947 207.6875 53 C206.18271507 49.79446522 206.18271507 49.79446522 203 48 C200.13679973 47.70263816 200.13679973 47.70263816 196.83076477 47.75949097 C195.53927521 47.75674164 194.24778564 47.75399231 192.91716003 47.75115967 C191.48293975 47.758238 190.0487204 47.76550762 188.61450195 47.77294922 C187.10668953 47.77351327 185.59887656 47.7731969 184.09106445 47.77206421 C179.99421738 47.77148944 175.89748697 47.78326384 171.80066705 47.79721212 C167.5205343 47.80969877 163.240399 47.81088835 158.96025085 47.81326294 C150.85361 47.81948379 142.74702297 47.83590279 134.64040583 47.85596192 C125.41198252 47.8783021 116.18355667 47.88930961 106.95511305 47.89935279 C87.97003864 47.9202685 68.98503802 47.95695228 50 48 Z M50 124 C50 133.24 50 142.48 50 152 C70.25348459 152.09257584 90.50690947 152.16396812 110.76056194 152.20724869 C120.16458524 152.22787831 129.56847471 152.25600654 138.97241211 152.30175781 C147.16841448 152.34161335 155.36431993 152.36742991 163.56041652 152.37635398 C167.90066163 152.38157092 172.24062946 152.3938408 176.58078575 152.42292023 C180.66590593 152.45006915 184.75063458 152.45844613 188.83583641 152.45243073 C190.3350487 152.45353121 191.83427408 152.46148849 193.33340836 152.4768219 C195.38096391 152.49673747 197.42872951 152.48955115 199.47636414 152.48101807 C200.62215281 152.48470524 201.76794149 152.48839241 202.94845104 152.49219131 C206.69831166 151.88736771 208.33695163 150.66631072 211 148 C213.84135996 140.82894868 213.58140226 134.78800926 210.94921875 127.69921875 C209.97685005 125.65532302 209.97685005 125.65532302 207 124 C204.06976236 123.70245619 204.06976236 123.70245619 200.6789093 123.75949097 C200.03522831 123.75778212 199.39154731 123.75607327 198.72836083 123.75431263 C196.56789938 123.75101399 194.40774737 123.76202734 192.24731445 123.77294922 C190.70009366 123.77351325 189.15287233 123.77319693 187.60565186 123.77206421 C183.40137142 123.77148939 179.19720465 123.78326457 174.99295068 123.79721212 C170.60070891 123.80969797 166.20846466 123.81088829 161.81620789 123.81326294 C153.49707189 123.81948403 145.17798834 123.83590334 136.85887545 123.85596192 C127.38861858 123.87830138 117.91835922 123.88930943 108.44808257 123.89935279 C88.9653578 123.92026902 69.48268503 123.95585914 50 124 Z " fill="#000000" transform="translate(21,41)"/>
<path d="M0 0 C1.87410966 0.00113102 3.74822108 0.00048967 5.62232971 -0.00177002 C10.66276215 -0.00290818 15.70280652 0.02045427 20.74314952 0.04852581 C26.02817312 0.07369059 31.31320759 0.07589327 36.59828186 0.08062744 C46.58517002 0.0930132 56.57188106 0.12577474 66.55869156 0.1660254 C77.93727427 0.21088075 89.31586586 0.23276464 100.69451511 0.25280714 C124.08170156 0.2945117 147.46864552 0.36780854 170.85571289 0.45410156 C170.85571289 16.29410156 170.85571289 32.13410156 170.85571289 48.45410156 C165.26722412 48.46344727 159.67873535 48.47279297 153.92089844 48.48242188 C135.49657633 48.51612582 117.07236649 48.57143521 98.64813519 48.6380043 C87.47294047 48.67785028 76.29781673 48.71021448 65.12255859 48.72509766 C55.38464956 48.73808541 45.64689636 48.76497621 35.90907508 48.80871463 C30.75072019 48.83139432 25.59255796 48.84700836 20.43414879 48.84598541 C15.5823544 48.84524263 10.73098696 48.86303888 5.87930298 48.89526939 C4.09548195 48.90381251 2.31161328 48.90548863 0.52778053 48.89990425 C-1.90205401 48.89330875 -4.3305123 48.91107574 -6.76020813 48.93511963 C-7.47129504 48.92735921 -8.18238195 48.91959879 -8.91501695 48.91160321 C-12.08986778 48.96748315 -13.71799665 49.03994846 -16.04329205 51.29903793 C-18.85722987 56.80697821 -18.60746314 62.40086998 -18.14428711 68.45410156 C-16.64174803 72.84130109 -16.64174803 72.84130109 -13.14428711 75.45410156 C-11.29397189 75.55530735 -9.43999732 75.59193324 -7.58692932 75.59886169 C-5.81443565 75.60920944 -5.81443565 75.60920944 -4.00613403 75.61976624 C-2.70280121 75.62237961 -1.39946838 75.62499298 -0.05664062 75.62768555 C1.3248058 75.63398969 2.70625018 75.64075534 4.08769226 75.64794922 C7.06804926 75.66263602 10.04839832 75.67435442 13.02877617 75.68389702 C17.74928838 75.6993493 22.46973352 75.72330248 27.19020081 75.74879456 C40.61568961 75.81998434 54.04121792 75.87960384 67.46679688 75.9309082 C74.87770964 75.95930372 82.28855674 75.99474124 89.69940048 76.03756195 C94.38291053 76.06420224 99.06634626 76.08218918 103.74991691 76.0935992 C106.67969535 76.10279221 109.60938458 76.120186 112.53911018 76.13977814 C114.52531586 76.1506933 116.51156727 76.15199776 118.49780273 76.15290833 C129.06020171 76.23795002 138.61454178 77.16324419 148.04321289 82.14160156 C149.06511719 82.66681396 149.06511719 82.66681396 150.10766602 83.20263672 C155.21094088 85.91176756 160.1439765 88.93652766 163.85571289 93.45410156 C163.85571289 94.11410156 163.85571289 94.77410156 163.85571289 95.45410156 C164.51571289 95.45410156 165.17571289 95.45410156 165.85571289 95.45410156 C177.96009299 109.5098175 182.13879625 127.04841111 181.05834961 145.20068359 C179.58870373 161.54385402 172.05678248 176.417859 159.85571289 187.45410156 C148.97841701 195.73169183 136.42756612 200.80014377 122.68727112 200.70133972 C121.90526634 200.70375414 121.12326156 200.70616855 120.31755966 200.70865613 C117.71894352 200.71425468 115.12057743 200.70565955 112.52197266 200.69702148 C110.65051711 200.69809527 108.77906189 200.70003537 106.90760803 200.70277405 C101.84202741 200.70760785 96.77653531 200.69998671 91.71096539 200.689821 C86.41033358 200.68102412 81.1097044 200.68279822 75.80906677 200.68318176 C66.91615317 200.68224636 58.02327377 200.67357603 49.13037109 200.65991211 C38.83624462 200.6441541 28.54215551 200.63891523 18.24801785 200.63964766 C8.34989436 200.64025688 -1.54821692 200.63516333 -11.44633675 200.62685585 C-15.6628434 200.6233177 -19.87934574 200.62149186 -24.09585381 200.62096214 C-29.05100063 200.61996134 -34.00611582 200.61388636 -38.96125221 200.60379601 C-40.7846393 200.60086358 -42.60803002 200.59964713 -44.43141937 200.60022354 C-46.90922403 200.60071064 -49.38693866 200.59509444 -51.86473083 200.58781433 C-52.59564121 200.58936293 -53.32655159 200.59091154 -54.07961076 200.59250706 C-59.03010766 200.56828101 -59.03010766 200.56828101 -60.14428711 199.45410156 C-60.24242698 198.01669803 -60.27226991 196.57453829 -60.27368164 195.13378906 C-60.27840988 193.75731201 -60.27840988 193.75731201 -60.28323364 192.35302734 C-60.28120941 191.35513184 -60.27918518 190.35723633 -60.27709961 189.32910156 C-60.27805634 188.31187012 -60.27901306 187.29463867 -60.27999878 186.24658203 C-60.28068072 184.09114521 -60.27882546 181.93570634 -60.2746582 179.78027344 C-60.26931016 176.46837785 -60.27460274 173.1566179 -60.28100586 169.84472656 C-60.28034508 167.75618459 -60.27906392 165.66764271 -60.27709961 163.57910156 C-60.27912384 162.58120605 -60.28114807 161.58331055 -60.28323364 160.55517578 C-60.28008148 159.63752441 -60.27692932 158.71987305 -60.27368164 157.77441406 C-60.27288605 156.96246582 -60.27209045 156.15051758 -60.27127075 155.31396484 C-60.14428711 153.45410156 -60.14428711 153.45410156 -59.14428711 152.45410156 C-56.77312778 152.35072144 -54.43075593 152.31250676 -52.05886841 152.31607056 C-50.93370137 152.31183864 -50.93370137 152.31183864 -49.78580368 152.30752122 C-47.25310692 152.29913745 -44.72045367 152.29783377 -42.18774414 152.29638672 C-40.3796781 152.2917213 -38.57161323 152.28657819 -36.7635498 152.2809906 C-32.86043533 152.26968869 -28.95732858 152.26126468 -25.05420303 152.25487137 C-18.8867633 152.24421895 -12.71937896 152.22398203 -6.55197144 152.20175171 C10.98900825 152.13973303 28.529985 152.08578322 46.07104492 152.05273438 C55.75143469 152.03441522 65.43173208 152.00551346 75.11205399 151.96472967 C80.23907234 151.94361395 85.36597404 151.92819597 90.49303818 151.92592239 C95.31440358 151.92378195 100.13552611 151.90797469 104.95681763 151.88153267 C106.72935778 151.87431506 108.50192729 151.87225055 110.27447891 151.87563515 C112.68871879 151.87950961 115.10217521 151.86514195 117.5163269 151.84609985 C118.57609767 151.8543944 118.57609767 151.8543944 119.65727794 151.86285651 C122.52347751 151.82365381 124.39488364 151.7953766 126.74020576 150.05850792 C130.33524088 144.88785767 130.4931447 139.57154415 129.85571289 133.45410156 C129.11708594 130.80934053 128.20122297 128.88636979 126.85571289 126.45410156 C124.26026132 125.15637578 122.37126091 125.32056194 119.46366882 125.30934143 C118.31855331 125.30244293 117.17343781 125.29554443 115.99362183 125.28843689 C114.73083405 125.28582352 113.46804626 125.28321014 112.16699219 125.28051758 C110.8281991 125.27421316 109.48940811 125.26744749 108.15061951 125.26025391 C105.26193872 125.24556657 102.37326613 125.23384821 99.48456383 125.22430611 C94.90632221 125.20884635 90.3281496 125.18489178 85.74995422 125.15940857 C72.72885515 125.08824313 59.70771506 125.02866291 46.68652344 124.97729492 C39.49899313 124.94886488 32.31153006 124.91340714 25.12407047 124.87064117 C20.58495822 124.8440518 16.04592203 124.82603368 11.5067476 124.81460392 C8.66209179 124.80538652 5.81752692 124.78798177 2.97292519 124.76842499 C1.05151528 124.75755388 -0.86994139 124.75620732 -2.79138184 124.7552948 C-22.01587247 124.59644396 -38.50291069 120.69655231 -52.65209961 107.03222656 C-57.44755134 101.93606994 -61.17748482 96.78475032 -64.14428711 90.45410156 C-64.67989258 89.40609375 -64.67989258 89.40609375 -65.22631836 88.33691406 C-71.5940617 74.55206143 -72.225179 59.85637332 -68.14428711 45.45410156 C-67.81170898 44.23851562 -67.47913086 43.02292969 -67.13647461 41.77050781 C-64.38977901 33.00221032 -60.11699274 26.38526502 -54.14428711 19.45410156 C-53.18522461 18.32681641 -53.18522461 18.32681641 -52.20678711 17.17675781 C-38.10144751 1.86658712 -19.53698347 -0.16719678 0 0 Z " fill="#000000" transform="translate(617.144287109375,40.5458984375)"/>
<path d="M0 0 C1.69691948 0.00113171 3.39384092 0.00048833 5.09075928 -0.00177002 C9.64356267 -0.00290549 14.19593409 0.02041192 18.74863815 0.04852581 C23.52649423 0.07373676 28.30436305 0.07589684 33.08227539 0.08062744 C42.10582527 0.09299987 51.12917849 0.12574289 60.15264225 0.1660254 C70.4357402 0.21092282 80.71884813 0.2327751 91.00201988 0.25280714 C112.13296625 0.29448139 133.2637363 0.3647205 154.39453125 0.45410156 C155.12732902 16.52081739 155.69336564 32.40850133 154.39453125 48.45410156 C153.53000304 48.45648992 152.66547483 48.45887827 151.7747488 48.461339 C130.73396112 48.52048799 109.693288 48.59603751 88.65262508 48.68981647 C78.47749302 48.73477235 68.30239593 48.77418753 58.12719727 48.80053711 C49.25797204 48.82351883 40.38885754 48.85691888 31.51972014 48.90280312 C26.8240476 48.92673293 22.12848472 48.94546332 17.43275261 48.95171547 C13.01108325 48.95776739 8.58969444 48.97777119 4.16812897 49.00837708 C2.54724387 49.01715556 0.9263221 49.02088027 -0.6945858 49.01910973 C-2.91264418 49.01745219 -5.12985214 49.0341958 -7.34779358 49.05537415 C-9.20751092 49.06228759 -9.20751092 49.06228759 -11.10479832 49.06934071 C-15.74202419 49.57902108 -19.94306479 50.55887798 -23.14642429 54.21086788 C-25.31477402 59.02764379 -26.17961863 63.28776995 -26.10717773 68.5949707 C-26.11258072 69.36518051 -26.1179837 70.13539032 -26.12355042 70.92893982 C-26.13595558 73.4494489 -26.11960418 75.96879727 -26.1015625 78.48925781 C-26.10171766 80.25467488 -26.10320953 82.02009229 -26.10597229 83.7855072 C-26.10735255 87.47475351 -26.09485983 91.16360927 -26.07202148 94.8527832 C-26.04361705 99.56924352 -26.04638484 104.2850566 -26.0591116 109.00156498 C-26.06608292 112.64340189 -26.05826326 116.28509053 -26.04585457 119.92690849 C-26.04135566 121.66554635 -26.04098955 123.4042002 -26.04491997 125.14283943 C-26.04784708 127.57643123 -26.0312554 130.00914629 -26.00952148 132.44262695 C-26.01627396 133.50811264 -26.01627396 133.50811264 -26.02316284 134.59512329 C-25.94866066 139.64381112 -24.90597837 143.04778846 -22.60546875 147.45410156 C-17.56938007 151.32801593 -12.9544475 151.57989048 -6.746521 151.61231995 C-6.0570665 151.61725792 -5.367612 151.6221959 -4.65726495 151.62728351 C-2.34800976 151.64263644 -0.03878232 151.65101314 2.27050781 151.65942383 C3.92625167 151.66900409 5.58199308 151.67901426 7.23773193 151.68942261 C11.73320387 151.71646171 16.22868629 151.73747668 20.72419453 151.75742459 C25.42208582 151.77929026 30.11994482 151.80667611 34.81781006 151.83348083 C43.71415017 151.88339985 52.6105082 151.92834163 61.50688338 151.9715032 C71.63497888 152.02088232 81.76304197 152.07579795 91.89110613 152.13118279 C112.72555243 152.24499071 133.56002852 152.35110146 154.39453125 152.45410156 C154.39453125 168.29410156 154.39453125 184.13410156 154.39453125 200.45410156 C132.26211405 200.54462697 110.12984828 200.61821411 87.99729252 200.66135025 C77.71923729 200.68191736 67.44130583 200.70992522 57.16333008 200.75585938 C48.19812046 200.79590721 39.23300054 200.82157682 30.26770395 200.83045554 C25.52690321 200.83564009 20.78635894 200.84770161 16.04564095 200.87702179 C11.56980326 200.90447554 7.09432401 200.91248708 2.61841011 200.90653229 C0.98878522 200.9076193 -0.64085357 200.91539283 -2.27040482 200.93092346 C-22.96525754 201.11823293 -40.79692284 196.49423386 -56.60546875 182.45410156 C-57.30414063 181.86113281 -58.0028125 181.26816406 -58.72265625 180.65722656 C-69.88857741 170.49059017 -76.07366219 155.66023641 -76.99008179 140.70729065 C-77.19535035 135.35397148 -77.18937522 130.00194236 -77.171875 124.64550781 C-77.17712598 122.66503104 -77.18340778 120.68455676 -77.19065857 118.7040863 C-77.20099815 114.57661065 -77.19659458 110.44948115 -77.18188477 106.32202148 C-77.16470371 101.0762086 -77.1882186 95.83149191 -77.22337437 90.58580112 C-77.24550841 86.50267001 -77.24386852 82.41979478 -77.23560905 78.33662224 C-77.23479834 76.40444676 -77.24149012 74.47225079 -77.25638008 72.54013252 C-77.38758482 52.44099125 -73.26955147 35.97189788 -59.15234375 20.90722656 C-42.31603555 4.69065977 -22.66209657 -0.21547048 0 0 Z " fill="#000000" transform="translate(373.60546875,40.5458984375)"/>
<path d="M0 0 C256.41 0 512.82 0 777 0 C777 9.24 777 18.48 777 28 C758.1502726 28.80988972 739.35838775 29.13607343 720.49440744 29.08732699 C716.63944922 29.07855856 712.78448533 29.07595852 708.92951936 29.07250541 C702.20296922 29.06566423 695.4764337 29.05504958 688.74989319 29.04183006 C678.74807849 29.02219148 668.74626165 29.00859931 658.74443572 28.99616829 C641.9123986 28.97508076 625.0803721 28.94920537 608.24834633 28.92053413 C591.59950364 28.89219082 574.95065982 28.86601672 558.30180931 28.84269524 C557.2639052 28.84124015 556.22600108 28.83978506 555.15664533 28.83828588 C549.88495357 28.83090641 544.61326176 28.82356527 539.34156992 28.81623887 C502.07056137 28.76437224 464.79956151 28.70770909 427.52856445 28.64819336 C391.33618502 28.59041107 355.1438033 28.53482119 318.95141602 28.48217773 C317.83442529 28.48055215 316.71743456 28.47892657 315.56659563 28.47725173 C304.34859548 28.46092833 293.13059526 28.44464926 281.912595 28.42840267 C259.06332692 28.39530996 236.21405926 28.36192145 213.36479187 28.32835388 C212.31438201 28.3268111 211.26397214 28.32526832 210.18173168 28.32367879 C140.12114687 28.22074413 70.0605727 28.11083574 0 28 C0 18.76 0 9.52 0 0 Z " fill="#010101" transform="translate(21,257)"/>
<path d="" fill="#FFFFFF" transform="translate(0,0)"/>
<path d="" fill="#FFFFFF" transform="translate(0,0)"/>
<path d="" fill="#FFFFFF" transform="translate(0,0)"/>
<path d="" fill="#FFFFFF" transform="translate(0,0)"/>
<path d="" fill="#FFFFFF" transform="translate(0,0)"/>
<path d="" fill="#FFFFFF" transform="translate(0,0)"/>
<path d="" fill="#FFFFFF" transform="translate(0,0)"/>
<path d="" fill="#FFFFFF" transform="translate(0,0)"/>
<path d="" fill="#FFFFFF" transform="translate(0,0)"/>
<path d="" fill="#FFFFFF" transform="translate(0,0)"/>
<path d="" fill="#FFFFFF" transform="translate(0,0)"/>
<path d="" fill="#FFFFFF" transform="translate(0,0)"/>
<path d="" fill="#FFFFFF" transform="translate(0,0)"/>
<path d="" fill="#FFFFFF" transform="translate(0,0)"/>
<path d="" fill="#FFFFFF" transform="translate(0,0)"/>
<path d="" fill="#FFFFFF" transform="translate(0,0)"/>
<path d="" fill="#FFFFFF" transform="translate(0,0)"/>
<path d="" fill="#FFFFFF" transform="translate(0,0)"/>
<path d="" fill="#FFFFFF" transform="translate(0,0)"/>
<path d="" fill="#FFFFFF" transform="translate(0,0)"/>
<path d="" fill="#FFFFFF" transform="translate(0,0)"/>
<path d="" fill="#FFFFFF" transform="translate(0,0)"/>
<path d="" fill="#FFFFFF" transform="translate(0,0)"/>
<path d="" fill="#FFFFFF" transform="translate(0,0)"/>
<path d="" fill="#FFFFFF" transform="translate(0,0)"/>
<path d="" fill="#FFFFFF" transform="translate(0,0)"/>
<path d="" fill="#FFFFFF" transform="translate(0,0)"/>
<path d="" fill="#FFFFFF" transform="translate(0,0)"/>
<path d="" fill="#FFFFFF" transform="translate(0,0)"/>
<path d="" fill="#FFFFFF" transform="translate(0,0)"/>
<path d="" fill="#FFFFFF" transform="translate(0,0)"/>
<path d="" fill="#FFFFFF" transform="translate(0,0)"/>
<path d="" fill="#FFFFFF" transform="translate(0,0)"/>
<path d="" fill="#FFFFFF" transform="translate(0,0)"/>
<path d="" fill="#FFFFFF" transform="translate(0,0)"/>
<path d="" fill="#FFFFFF" transform="translate(0,0)"/>
<path d="" fill="#FFFFFF" transform="translate(0,0)"/>
<path d="" fill="#FFFFFF" transform="translate(0,0)"/>
<path d="" fill="#FFFFFF" transform="translate(0,0)"/>
<path d="" fill="#FFFFFF" transform="translate(0,0)"/>
<path d="" fill="#FFFFFF" transform="translate(0,0)"/>
</svg>
