<?xml version="1.0" encoding="UTF-8"?>
<svg version="1.1" xmlns="http://www.w3.org/2000/svg" width="2560" height="795">
<path d="M0 0 C24.53943179 -0.78702162 50.06290794 0.75979213 74.21679688 5.10498047 C75.33731445 5.29543945 76.45783203 5.48589844 77.61230469 5.68212891 C110.31866259 11.27539011 141.6991756 20.55777085 171.18457031 36.04833984 C173.36296425 37.18097907 175.55779632 38.27666419 177.75585938 39.37060547 C194.74098888 47.92353769 210.04497246 58.44246516 224.21679688 71.10498047 C225.01472656 71.79333984 225.81265625 72.48169922 226.63476562 73.19091797 C239.74309228 84.65246992 251.9875149 96.99751774 262.21679688 111.10498047 C262.96960938 112.12462891 263.72242188 113.14427734 264.49804688 114.19482422 C282.59704307 139.46331715 294.81062272 167.30818583 303.21679688 197.10498047 C303.45817383 197.9527002 303.69955078 198.80041992 303.94824219 199.67382812 C308.54992939 216.19447769 310.33791008 233.10575619 312.21679688 250.10498047 C322.08802027 219.45035942 331.9239498 188.78472265 341.71679688 158.10498047 C349.39286748 134.05714959 357.09178784 110.01692019 364.82397461 85.98706055 C370.68788483 67.76192635 376.52736907 49.529038 382.35717773 31.29296875 C382.67826508 30.28874374 382.99935242 29.28451874 383.33016968 28.24986267 C383.92811246 26.37961128 384.52588098 24.50930416 385.1234436 22.63893127 C385.386362 21.81650436 385.6492804 20.99407745 385.92016602 20.14672852 C386.147892 19.43405319 386.37561798 18.72137787 386.61024475 17.98710632 C387.13574935 16.35647022 387.67502855 14.73028544 388.21679688 13.10498047 C439.36679687 13.10498047 490.51679687 13.10498047 543.21679688 13.10498047 C542.00308754 19.17352717 540.92634164 24.47826144 539.04052734 30.23974609 C538.83149906 30.88375492 538.62247078 31.52776375 538.40710831 32.19128799 C537.72136145 34.29970457 537.02770263 36.40542469 536.33398438 38.51123047 C535.84223574 40.01832163 535.35102748 41.5255892 534.86032104 43.03302002 C533.81836935 46.23053603 532.77306099 49.42692583 531.72497559 52.62243652 C530.07222593 57.66192607 528.42733519 62.70395724 526.78417969 67.74658203 C526.51055855 68.58621616 526.23693741 69.4258503 525.95502472 70.29092789 C525.40343977 71.98352486 524.85187265 73.67612764 524.30032349 75.36873627 C523.47492495 77.90088734 522.64880823 80.43280311 521.82250977 82.96466064 C517.48898408 96.24614639 513.20959784 109.5442104 508.96679688 122.85498047 C507.71220297 126.78746844 506.4569368 130.71974129 505.20117188 134.65185547 C504.88717438 135.63508789 504.57317688 136.61832031 504.24966431 137.63134766 C500.14821651 150.46309545 496.00404211 163.28109893 491.86413193 176.10047531 C485.27811672 196.49439866 478.71321136 216.89482408 472.19042969 237.30908203 C466.32069422 255.67797109 460.41315447 274.03454338 454.49725342 292.38861084 C449.39399081 308.22278188 444.30495203 324.06134308 439.24151611 339.90829468 C438.28202346 342.9089535 437.32076433 345.90904045 436.35888672 348.90893555 C435.70600696 350.94562272 435.05317552 352.98232539 434.40039062 355.01904297 C433.90786804 356.55569862 433.90786804 356.55569862 433.40539551 358.12339783 C431.28910787 364.73388727 429.18801612 371.34903202 427.09625149 377.967309 C425.339666 383.52348113 423.57412231 389.07676571 421.80342197 394.62845516 C420.72992844 397.99571647 419.66057782 401.36415129 418.60232544 404.73623657 C402.65847034 455.50789158 376.93795498 502.01480123 332.21679688 533.10498047 C331.6001416 533.53891113 330.98348633 533.9728418 330.34814453 534.41992188 C303.5911384 553.03959131 274.53799078 564.77467533 242.77929688 571.35498047 C241.99941406 571.51836914 241.21953125 571.68175781 240.41601562 571.85009766 C228.23129971 574.25524571 215.84530833 574.41043827 203.46679688 574.47998047 C202.23754486 574.48782059 202.23754486 574.48782059 200.98345947 574.49581909 C182.91185806 574.54856021 164.74526807 572.70481866 147.21679688 568.10498047 C147.21679688 567.44498047 147.21679688 566.78498047 147.21679688 566.10498047 C148.72831234 564.75400673 150.30493 563.47570702 151.90429688 562.22998047 C156.17388193 558.82414138 160.28132236 555.31652044 164.28320312 551.60107422 C164.84042053 551.08485001 165.39763794 550.56862579 165.97174072 550.03675842 C171.69727909 544.702874 177.27909309 539.22880588 182.81152344 533.69555664 C184.47508496 532.03420339 186.14654792 530.38107357 187.81835938 528.72802734 C194.40284504 522.17823805 200.48633016 515.42998033 206.21679688 508.10498047 C206.76255371 507.4237915 207.30831055 506.74260254 207.87060547 506.04077148 C223.53267648 486.44160612 236.853663 465.45603176 248.21679688 443.10498047 C248.64041504 442.27691895 249.0640332 441.44885742 249.50048828 440.59570312 C284.520616 371.47815069 297.45765343 283.09937378 274.03759766 208.43041992 C267.96360149 189.93757463 259.96672667 173.294246 249.21679688 157.10498047 C248.78109375 156.43337891 248.34539063 155.76177734 247.89648438 155.06982422 C241.96089135 145.92345719 235.60641319 137.65709735 227.9609375 129.87988281 C226.01687774 127.90153532 224.09455943 125.90300158 222.16992188 123.90576172 C205.59280256 106.86019145 187.1445852 93.37422893 166.21679688 82.10498047 C165.62382813 81.78319824 165.03085937 81.46141602 164.41992188 81.12988281 C120.78189452 57.69076075 72.17023329 49.35725864 23.21679688 48.10498047 C22.032229 48.06993408 22.032229 48.06993408 20.82373047 48.03417969 C-11.67533221 47.1461456 -45.29082919 52.30739181 -76.78320312 60.10498047 C-77.76530762 60.34410156 -78.74741211 60.58322266 -79.75927734 60.82958984 C-169.77116319 83.01531682 -250.89808565 132.37657975 -316.28320312 197.47998047 C-317.02473633 198.21684082 -317.76626953 198.95370117 -318.53027344 199.71289062 C-323.15271123 204.34891767 -327.51645936 209.14193665 -331.78320312 214.10498047 C-332.80486767 215.26149703 -333.82825791 216.41649182 -334.85351562 217.56982422 C-358.81516732 244.72610403 -379.40892875 274.81939484 -395.78320312 307.10498047 C-396.31429687 308.14799316 -396.84539062 309.19100586 -397.39257812 310.265625 C-416.22546052 347.55263441 -429.70945612 388.36230009 -433.78320312 430.10498047 C-433.89277344 431.04986328 -434.00234375 431.99474609 -434.11523438 432.96826172 C-439.67993032 488.98620085 -426.62660361 549.51576685 -392.78320312 595.10498047 C-392.17992187 595.92869141 -391.57664062 596.75240234 -390.95507812 597.60107422 C-389.28099059 599.81558321 -387.55194344 601.96520095 -385.78320312 604.10498047 C-385.37021973 604.60674805 -384.95723633 605.10851562 -384.53173828 605.62548828 C-374.05034828 618.29773633 -362.89832313 630.11508878 -349.78320312 640.10498047 C-348.28660156 641.25160156 -348.28660156 641.25160156 -346.75976562 642.42138672 C-303.94853499 674.45187663 -254.1661666 688.88793282 -201.78320312 695.10498047 C-200.90212891 695.21173096 -200.02105469 695.31848145 -199.11328125 695.4284668 C-190.40171983 696.3584177 -181.65854065 696.30612478 -172.90820312 696.29248047 C-172.07073547 696.29121155 -171.23326782 696.28994263 -170.37042236 696.28863525 C-98.05026991 696.08106027 -28.63707568 676.86580829 35.55664062 643.92138672 C40.36510058 641.48414511 45.29963643 639.31183367 50.21679688 637.10498047 C52.86679696 664.40118046 52.86679696 664.40118046 48.91894531 671.40869141 C45.25934573 674.95332975 40.65335384 676.4993037 35.89990234 678.11035156 C30.9271448 679.95375595 26.37014486 682.64413387 21.71679688 685.16748047 C19.91714593 686.10057227 18.11502938 687.02892318 16.31054688 687.95263672 C12.97033845 689.6647873 9.65096807 691.40630811 6.35668945 693.20483398 C-3.88600821 698.77299116 -14.29347898 703.5411515 -25.09570312 707.91748047 C-25.92825623 708.25714844 -26.76080933 708.59681641 -27.61859131 708.94677734 C-62.21360112 723.02032316 -98.04186083 734.25915772 -134.78320312 741.10498047 C-135.88583496 741.31751465 -136.9884668 741.53004883 -138.12451172 741.74902344 C-202.75216745 754.08019398 -271.57239457 753.16394191 -334.78320312 734.10498047 C-335.65605957 733.84249512 -336.52891602 733.58000977 -337.42822266 733.30957031 C-381.84604148 719.71062194 -421.84919284 696.17445739 -454.78320312 663.41748047 C-456.07339355 662.13562866 -456.07339355 662.13562866 -457.38964844 660.82788086 C-465.6550085 652.46877834 -473.04896433 643.48639875 -479.78320312 633.85498047 C-480.28883789 633.13391113 -480.79447266 632.4128418 -481.31542969 631.66992188 C-485.76711391 625.25111629 -489.89648187 618.68157281 -493.76269531 611.89501953 C-494.73815128 610.18400443 -495.73289144 608.48402652 -496.72851562 606.78466797 C-517.51382568 569.84235577 -527.31606094 525.85181525 -527.03320312 483.60498047 C-527.03010132 482.77593201 -527.02699951 481.94688354 -527.02380371 481.0927124 C-526.92753844 459.05589901 -524.86118743 437.76751436 -520.78320312 416.10498047 C-520.59886719 415.1043457 -520.41453125 414.10371094 -520.22460938 413.07275391 C-517.68566749 399.45439492 -514.35768751 386.32727512 -509.85351562 373.22705078 C-509.09299196 371.00862546 -508.34420268 368.78616208 -507.60351562 366.56103516 C-501.6438557 348.66817418 -494.76741035 331.77409947 -486.21679688 314.93408203 C-484.96673174 312.46716195 -483.74179017 309.99083282 -482.53320312 307.50341797 C-474.70387124 291.43643481 -465.74534214 276.14039409 -456.06982422 261.12158203 C-455.01032035 259.46095547 -453.98048369 257.78143878 -452.95898438 256.09716797 C-447.82014498 247.63167435 -441.58949985 239.99817475 -435.4609375 232.23974609 C-433.18385553 229.34236473 -430.95271309 226.41222885 -428.72070312 223.47998047 C-419.55439079 211.56377444 -410.05376965 200.08438198 -399.78320312 189.10498047 C-398.053721 187.18859845 -396.32456098 185.27192569 -394.59570312 183.35498047 C-390.055805 178.37501144 -385.35126968 173.56623802 -380.59570312 168.79248047 C-379.94255127 168.13473633 -379.28939941 167.47699219 -378.61645508 166.79931641 C-374.76481249 162.95979963 -370.79928389 159.31299734 -366.68286133 155.75952148 C-363.88027588 153.31855997 -361.1812349 150.7720128 -358.47070312 148.22998047 C-352.76881227 142.9321866 -346.87151285 137.95622328 -340.78320312 133.10498047 C-339.58347499 132.13686138 -338.38428717 131.16807245 -337.18554688 130.19873047 C-301.10643459 101.07965243 -262.2055502 76.87164493 -220.78320312 56.10498047 C-219.87296387 55.64784668 -218.96272461 55.19071289 -218.02490234 54.71972656 C-149.98073922 20.8067107 -75.80901791 2.85946296 0 0 Z " fill="#E60011" transform="translate(548.783203125,21.89501953125)"/>
<path d="M0 0 C51.48 0 102.96 0 156 0 C150.17921575 19.20858801 144.35718064 38.4030129 138.31396484 57.54077148 C137.87128167 58.94350064 137.42863577 60.34624156 136.98602295 61.74899292 C136.7632946 62.45471813 136.54056625 63.16044334 136.31108856 63.88755417 C134.39227312 69.97032524 132.47865234 76.05473483 130.56390762 82.13878822 C129.82869738 84.4747439 129.093299 86.8106403 128.35787964 89.14653015 C123.34496744 105.07102971 118.35482657 121.00262602 113.375 136.9375 C113.16722679 137.60226978 112.95945358 138.26703957 112.74538422 138.95195389 C105.76664783 161.28179186 98.84120885 183.62762833 92 206 C92.33 206.33 92.66 206.66 93 207 C93.59683594 206.35675781 94.19367188 205.71351563 94.80859375 205.05078125 C133.23991225 165.02053716 188.77737798 145.87499229 243.28515625 143.81640625 C272.01066611 143.33528934 299.59878455 149.92996063 321 170 C338.67123043 187.23164758 348.04744262 209.45235586 349.03515625 233.9765625 C349.13773198 258.70334759 340.19354327 282.38627688 332.55713654 305.54788971 C331.18951386 309.70277738 329.83199131 313.86095989 328.47412109 318.01904297 C326.83861192 323.02610508 325.20281132 328.0330666 323.5632019 333.03878784 C319.19315459 346.3827311 314.88893263 359.74673799 310.625 373.125 C309.36758025 377.06522957 308.1095561 381.00526611 306.8515625 384.9453125 C306.54206665 385.91502991 306.2325708 386.88474731 305.91369629 387.8838501 C301.96146344 400.26199908 297.97918839 412.63049663 294 425 C288.31897969 442.66209416 282.65033108 460.32806403 277 478 C271.03653844 496.65089068 265.05483641 515.29587099 259.0625 533.9375 C258.66297119 535.18055908 258.26344238 536.42361816 257.85180664 537.7043457 C256.72565005 541.20791805 255.59922241 544.71140308 254.47265625 548.21484375 C254.13492691 549.26542465 253.79719757 550.31600555 253.44923401 551.39842224 C253.13993454 552.35998734 252.83063507 553.32155243 252.51196289 554.31225586 C252.24267471 555.14961777 251.97338654 555.98697968 251.69593811 556.84971619 C251.13938389 558.56933682 250.57156344 560.28530967 250 562 C198.52 562 147.04 562 94 562 C94.67149741 557.29951814 95.24879803 553.7529729 96.69555664 549.39916992 C97.04489258 548.3378183 97.39422852 547.27646667 97.75415039 546.18295288 C98.32637329 544.47397324 98.32637329 544.47397324 98.91015625 542.73046875 C99.52174924 540.87871653 100.13333823 539.02696297 100.74476433 537.17515564 C101.39656536 535.20456592 102.05116651 533.23492659 102.70657349 531.26553345 C104.78164177 525.02907126 106.83840128 518.78656123 108.89639091 512.54444695 C109.36261345 511.13061506 109.82905169 509.71685429 110.29570198 508.30316353 C114.63240396 495.16522663 118.86973593 481.99709515 123.0625 468.8125 C129.1731923 449.61576664 135.41693744 430.4648896 141.7074585 411.3263855 C148.09285874 391.89382015 154.38112931 372.43221185 160.57421875 352.9375 C161.17823505 351.03901465 161.78239912 349.14057631 162.38671875 347.2421875 C162.6773671 346.32727036 162.96801544 345.41235321 163.26747131 344.4697113 C164.85795028 339.48742429 166.49121544 334.52262368 168.17358398 329.57055664 C168.53672195 328.49850983 168.89985992 327.42646301 169.27400208 326.32192993 C169.96988016 324.27504188 170.67130295 322.23002665 171.37944031 320.18734741 C175.33377992 308.55600786 178.58553066 295.63355749 173 284 C167.8203518 274.72716639 160.96985676 268.79171529 151.11328125 264.84375 C133.52764943 260.07775694 112.41378967 267.5324769 97 276 C82.30585561 284.77122586 69.88932653 296.38830602 61 311 C60.18934082 312.27568848 60.18934082 312.27568848 59.36230469 313.57714844 C54.69402864 321.16593429 51.68351054 328.7877259 49 337.25 C48.50881093 338.76301981 48.01656799 340.27569777 47.5234375 341.78808594 C46.02534855 346.40013782 44.5490314 351.018977 43.07470703 355.63867188 C41.89671102 359.32305378 40.71272011 363.00548807 39.52734375 366.6875 C28.96056604 399.51719189 18.52947054 432.38812958 8.27047348 465.31528091 C1.57809197 486.79506117 -5.16812022 508.25713915 -11.97750092 529.70014191 C-12.68444434 531.92787097 -13.39016494 534.15598387 -14.09552002 536.38421631 C-15.19352073 539.85233515 -16.29461129 543.31945691 -17.39826775 546.78577995 C-17.99929657 548.67578084 -18.59740428 550.56670987 -19.19544983 552.45765686 C-19.55207199 553.57498703 -19.90869415 554.6923172 -20.27612305 555.84350586 C-20.58664108 556.82073105 -20.89715912 557.79795624 -21.21708679 558.80479431 C-22 561 -22 561 -23 562 C-24.99961455 562.09672695 -27.00270193 562.1218703 -29.00465393 562.12025452 C-30.96300674 562.12231651 -30.96300674 562.12231651 -32.96092224 562.12442017 C-34.42129539 562.12088055 -35.88166831 562.11724573 -37.34204102 562.11352539 C-38.86926268 562.11324353 -40.39648447 562.11340123 -41.92370605 562.1139679 C-46.08261688 562.11425591 -50.24149911 562.10835855 -54.40040326 562.10139394 C-58.74194524 562.09516106 -63.08348781 562.09455665 -67.42503357 562.09336853 C-75.65213582 562.09025502 -83.87922486 562.08204137 -92.10632128 562.07201904 C-101.47013064 562.06085851 -110.83394062 562.05534761 -120.19775498 562.05032361 C-139.46517749 562.03985877 -158.73258769 562.02225895 -178 562 C-174.99372095 551.66557715 -171.90280031 541.36823303 -168.62109375 531.1171875 C-168.21243071 529.83566271 -167.80394863 528.55408021 -167.39562988 527.27244568 C-166.52913211 524.55381699 -165.66151053 521.83555083 -164.79293823 519.11758423 C-163.40302463 514.76806777 -162.01584432 510.41768252 -160.62915039 506.06713867 C-160.151417 504.56840386 -159.67367956 503.06967035 -159.19593811 501.57093811 C-158.95785997 500.82405291 -158.71978184 500.0771677 -158.47448921 499.30764961 C-157.74733942 497.02681087 -157.01993907 494.74605217 -156.29246521 492.46531677 C-151.69964994 478.06533293 -147.12435552 463.65981258 -142.55321121 449.25293732 C-141.51993674 445.99653349 -140.48640014 442.74021286 -139.45288086 439.48388672 C-138.00317689 434.91621198 -136.55354581 430.34851411 -135.1040144 425.78078461 C-132.40452698 417.27425513 -129.70436919 408.76793858 -127.00390625 400.26171875 C-126.79753981 399.61168192 -126.59117336 398.96164509 -126.37855339 398.29191017 C-125.3360462 395.00811124 -124.29352891 391.72431552 -123.25100708 388.44052124 C-121.37559311 382.53321941 -119.50026865 376.62588916 -117.62493706 370.71856117 C-116.583295 367.43737296 -115.54164721 364.15618657 -114.5 360.875 C-114.08333331 359.56250001 -113.66666664 358.25000001 -113.25 356.9375 C-92.625 291.96875 -72 227 -50.12499237 158.09372616 C-49.70835099 156.78130568 -49.29170975 155.46888515 -48.87506866 154.15646458 C-47.83301635 150.87399755 -46.79096147 147.59153133 -45.74890137 144.30906677 C-43.87850381 138.41735039 -42.00812347 132.52562854 -40.13784027 126.63387585 C-39.10232297 123.37179859 -38.06679046 120.10972616 -37.03125 116.84765625 C-36.82597183 116.20100573 -36.62069366 115.5543552 -36.40919495 114.88810921 C-33.62215521 106.10870363 -30.83442839 97.3295165 -28.04614258 88.55050659 C-26.50233782 83.68977458 -24.95873706 78.82897779 -23.41517639 73.96816826 C-22.37949032 70.70675309 -21.3436645 67.44538248 -20.30761719 64.18408203 C-13.51349516 42.79719328 -6.75744419 21.39857326 0 0 Z " fill="#000000" transform="translate(1169,34)"/>
<path d="M0 0 C1.33745773 0.00090637 1.33745773 0.00090637 2.70193481 0.00183105 C127.55444563 0.22765642 127.55444563 0.22765642 163.93359375 35.8125 C164.69800781 36.59625 165.46242188 37.38 166.25 38.1875 C167.07564453 38.94353516 167.07564453 38.94353516 167.91796875 39.71484375 C178.80021567 49.81379269 185.56922837 62.68185228 191.25 76.1875 C191.59804688 76.99445313 191.94609375 77.80140625 192.3046875 78.6328125 C196.76214336 90.35086657 197.53191187 103.41579389 197.625 115.8125 C197.63877686 116.79992187 197.65255371 117.78734375 197.66674805 118.8046875 C197.58160257 132.68226443 194.06133211 145.79096884 189.70703125 158.8671875 C189.26107714 160.23137666 188.81606075 161.59587267 188.37190247 162.96064758 C187.43252509 165.84101611 186.48718318 168.71932205 185.53668213 171.59603882 C184.03517692 176.14062319 182.54739098 180.68962524 181.06201172 185.23950195 C179.55386932 189.85748444 178.04519229 194.47528308 176.53186035 199.09156799 C172.57501277 211.16382878 168.68668226 223.25708231 164.83370972 235.36291504 C160.10810757 250.20986496 155.32822536 265.0371165 150.46289062 279.83886719 C143.50698373 301.00138832 136.71798828 322.21304738 130.05204773 343.46843719 C129.38043295 345.60769473 128.70690511 347.74634104 128.03283691 349.88482666 C126.96767595 353.26526284 125.90803961 356.64738374 124.85257339 360.03085899 C124.27742282 361.87085721 123.69749554 363.70936022 123.11740112 365.54780579 C117.86261397 382.46445045 117.84946407 392.05130839 121.25 410.1875 C71.75 410.1875 22.25 410.1875 -28.75 410.1875 C-35.56436982 395.1958864 -37.402757 382.43563665 -34.75 366.1875 C-35.40742188 366.70957031 -36.06484375 367.23164062 -36.7421875 367.76953125 C-66.19686245 390.55898843 -101.41935447 407.12002771 -137.75 415.1875 C-138.96478027 415.46134521 -138.96478027 415.46134521 -140.20410156 415.74072266 C-142.7368273 416.30306033 -145.27297934 416.84423599 -147.8125 417.375 C-148.54267334 417.5301709 -149.27284668 417.6853418 -150.02514648 417.84521484 C-165.71916885 420.95451991 -181.42494166 421.56120157 -197.375 421.5 C-198.33812103 421.49850952 -199.30124207 421.49701904 -200.29354858 421.4954834 C-235.42500828 421.39786869 -267.72889173 417.12172644 -293.75 391.1875 C-310.21752894 373.32493177 -317.4418547 350.75401966 -317.03515625 326.71484375 C-315.68754152 296.09893312 -300.72886722 267.7328357 -279.75 246.1875 C-279.23856445 245.65560059 -278.72712891 245.12370117 -278.20019531 244.57568359 C-236.42810936 201.19697895 -175.18832698 190.59677948 -118.38809204 180.17985535 C-84.38456968 173.94319063 -50.77485216 167.0784603 -17.25 158.625 C-16.18053131 158.35722748 -15.11106262 158.08945496 -14.00918579 157.81356812 C-0.28828919 154.36511516 13.14315367 150.4459796 26.48400879 145.72792053 C28.25 145.1875 28.25 145.1875 30.25 145.1875 C30.99512137 142.99684317 31.73060365 140.80370586 32.453125 138.60546875 C33.07756112 136.71073367 33.72242127 134.82272743 34.375 132.9375 C35.66374465 127.41430865 36.1622731 121.8560075 36.25 116.1875 C36.28867187 114.99511719 36.32734375 113.80273438 36.3671875 112.57421875 C35.08166446 108.67719612 34.61811765 108.44386132 31.12109375 106.67578125 C29.32361677 105.91715284 27.51100714 105.19373069 25.6875 104.5 C24.72948486 104.1191626 23.77146973 103.7383252 22.78442383 103.34594727 C19.95403975 102.24767036 17.11015025 101.20543182 14.25 100.1875 C13.53263672 99.92743164 12.81527344 99.66736328 12.07617188 99.39941406 C-11.39030078 91.24179567 -38.79226965 96.06345865 -60.671875 106.59375 C-66.91830289 109.83775122 -72.37705376 113.65847202 -77.75 118.1875 C-78.54019531 118.82042969 -79.33039063 119.45335937 -80.14453125 120.10546875 C-85.78627062 124.82317098 -85.78627062 124.82317098 -89.55096436 131.01965332 C-91.76762904 135.73914781 -94.13503887 139.54159747 -98.75 142.1875 C-108.22355221 144.07464156 -118.42351278 142.01773863 -127.90488529 140.71240425 C-131.77070141 140.19742923 -135.64653679 139.77391798 -139.52215576 139.34020996 C-146.85682288 138.5054638 -154.1789117 137.58949354 -161.49997973 136.64358854 C-169.81029782 135.57395831 -178.13063203 134.59646528 -186.45304346 133.62621593 C-199.40220964 132.11461023 -212.34438005 130.55286977 -225.27832031 128.91601562 C-226.54497528 128.75578415 -227.81163025 128.59555267 -229.1166687 128.4304657 C-234.66748097 127.72334507 -240.21413096 127.00385287 -245.75 126.1875 C-244.20810278 121.76292538 -241.85895827 118.04287749 -239.25 114.1875 C-238.80567627 113.52814453 -238.36135254 112.86878906 -237.90356445 112.18945312 C-226.25406621 95.07584907 -212.80489267 78.59413409 -197.01953125 65.1328125 C-195.3904983 63.73649854 -193.78636688 62.31093327 -192.19921875 60.8671875 C-169.6432412 40.85062464 -142.73144198 25.88863184 -114.32958984 16.08789062 C-112.18776959 15.34030089 -110.07112917 14.55590655 -107.95703125 13.734375 C-74.16049399 1.2142041 -35.66006281 -0.0455531 0 0 Z M0.80859375 223.5859375 C-13.11129833 228.09519831 -27.08624511 231.84954646 -41.3125 235.25 C-55.6142355 238.67422678 -69.83566739 242.20951125 -83.94677734 246.36523438 C-86.87274889 247.22350577 -89.80518144 248.05707212 -92.73828125 248.890625 C-109.2174839 253.64656641 -125.49710164 258.88693502 -138.75 270.1875 C-139.40097656 270.73921875 -140.05195313 271.2909375 -140.72265625 271.859375 C-149.298142 279.775208 -156.14967872 291.24393813 -156.94140625 303.0390625 C-156.47637688 313.0442398 -152.04530982 320.84871007 -144.7734375 327.56640625 C-135.99649264 334.59812848 -122.68894198 334.96719336 -111.88378906 333.90600586 C-86.46799972 330.73611236 -58.17492233 323.94471651 -39.5390625 305.00390625 C-37.75 303.1875 -37.75 303.1875 -34.5625 301.125 C-10.49013169 284.54181294 0.40514114 248.8604112 7.25 222.1875 C4.83647897 222.1875 3.10480431 222.82362545 0.80859375 223.5859375 Z " fill="#000000" transform="translate(522.75,174.8125)"/>
<path d="M0 0 C19.26842483 18.23781643 30.93561274 43.34557164 32.13671875 69.9375 C32.2039215 82.94795334 31.01442751 95.23208089 27.359375 107.74609375 C27.09734283 108.65235504 26.83531067 109.55861633 26.56533813 110.49234009 C23.68144737 120.36402682 20.53561624 130.15050113 17.36682129 139.9336853 C15.58206659 145.44643928 13.80999279 150.9632607 12.0390625 156.48046875 C11.68565796 157.58137344 11.33225342 158.68227814 10.96813965 159.81654358 C7.97596922 169.15711741 5.07775857 178.524221 2.21875 187.90625 C-3.01152805 205.04969528 -8.41418008 222.13761927 -13.84375 239.21875 C-14.05894665 239.89577217 -14.2741433 240.57279434 -14.49586105 241.27033234 C-17.66982143 251.25457323 -20.84941075 261.23701756 -24.03125 271.21875 C-24.40991211 272.4067218 -24.78857422 273.5946936 -25.17871094 274.81866455 C-28.4305619 285.01962487 -31.68413094 295.22003535 -34.94364929 305.41854858 C-35.48708528 307.11973165 -36.02999724 308.82108223 -36.57234192 310.52261353 C-38.02642329 315.08350022 -39.49061763 319.64087907 -40.96630859 324.19482422 C-41.286978 325.18961288 -41.6076474 326.18440155 -41.93803406 327.20933533 C-42.55364656 329.11908762 -43.17244679 331.02781639 -43.79499817 332.93531799 C-48.37971704 347.199506 -47.2423479 358.23362649 -44.03125 373.21875 C-93.53125 373.21875 -143.03125 373.21875 -194.03125 373.21875 C-200.84561982 358.2271364 -202.684007 345.46688665 -200.03125 329.21875 C-200.74667969 329.775625 -201.46210938 330.3325 -202.19921875 330.90625 C-243.75033971 362.72806579 -298.11318284 384.14478572 -350.7890625 384.421875 C-351.6872319 384.42884399 -352.58540131 384.43581299 -353.51078796 384.44299316 C-356.39265689 384.46028217 -359.27433138 384.46671227 -362.15625 384.46875 C-363.1393515 384.46975708 -364.122453 384.47076416 -365.13534546 384.47180176 C-399.03283576 384.44829376 -432.09020752 380.82230151 -457.71875 356.21875 C-474.24188352 339.61647559 -482.12603415 316.52053009 -482.46875 293.40625 C-482.2590794 263.80398657 -469.02218971 235.02743818 -449.1875 213.5625 C-447.22352932 211.42774926 -445.34211639 209.24522846 -443.46875 207.03125 C-439.95604235 203.02244241 -436.15040111 199.59339238 -432.03125 196.21875 C-431.165 195.48011719 -430.29875 194.74148438 -429.40625 193.98046875 C-403.67743403 172.97530258 -369.41008091 161.2492111 -337.46484375 153.875 C-336.18799713 153.57899399 -334.91115051 153.28298798 -333.59561157 152.97801208 C-317.13800304 149.21562672 -300.51527443 146.28442018 -283.90625 143.28125 C-251.10302176 137.34763476 -218.59494173 130.54938191 -186.25219727 122.44555664 C-183.03824289 121.64237859 -179.82101293 120.85330412 -176.60351562 120.06445312 C-163.77160191 116.88173867 -151.24737119 113.18760181 -138.78831482 108.75917053 C-137.03125 108.21875 -137.03125 108.21875 -135.03125 108.21875 C-134.57088371 106.86527311 -134.11308463 105.510923 -133.65625 104.15625 C-133.40101563 103.40214844 -133.14578125 102.64804687 -132.8828125 101.87109375 C-132.46128906 100.55818359 -132.46128906 100.55818359 -132.03125 99.21875 C-131.680625 98.1875 -131.33 97.15625 -130.96875 96.09375 C-129.76976268 91.13793574 -129.5729544 86.36226117 -129.40625 81.28125 C-129.36757812 80.31123047 -129.32890625 79.34121094 -129.2890625 78.34179688 C-129.19549924 75.96762924 -129.10975792 73.59345508 -129.03125 71.21875 C-129.58522461 71.03699219 -130.13919922 70.85523438 -130.70996094 70.66796875 C-135.23573266 69.17279639 -139.72922436 67.61515171 -144.20361328 65.97314453 C-172.3839895 55.74078701 -199.8327776 57.1959882 -227.15625 69.90625 C-240.81333743 77.10191972 -251.19874059 87.5062837 -260.18823242 99.91430664 C-261.26798592 101.40336266 -261.26798592 101.40336266 -262.36955261 102.92250061 C-262.91791275 103.68026291 -263.46627289 104.43802521 -264.03125 105.21875 C-279.35879001 103.57685776 -294.68619757 101.93373332 -310.01345634 100.28921795 C-317.13325951 99.52533706 -324.25310243 98.76183062 -331.37304688 97.99926758 C-337.5927703 97.33311932 -343.81241114 96.66620556 -350.03196156 95.9984439 C-353.31243845 95.64626083 -356.59296239 95.29452688 -359.87356186 94.94348717 C-376.93600602 93.11741935 -393.98782766 91.21482991 -411.03125 89.21875 C-409.66480999 85.6996659 -408.17627778 82.67496062 -406.08984375 79.5234375 C-405.51081299 78.64816406 -404.93178223 77.77289063 -404.33520508 76.87109375 C-403.7192749 75.95457031 -403.10334473 75.03804688 -402.46875 74.09375 C-401.51875122 72.67642578 -401.51875122 72.67642578 -400.54956055 71.23046875 C-396.03213537 64.55588819 -391.31612643 58.30662886 -386.03125 52.21875 C-385.12492052 51.12200386 -384.22143831 50.02290065 -383.3203125 48.921875 C-378.81944226 43.45150323 -374.3251874 38.26144947 -368.8359375 33.7421875 C-367.05994063 32.24296936 -365.50036306 30.65803399 -363.90625 28.96875 C-296.6402664 -39.21449701 -189.77037054 -42.15630839 0 0 Z M-165.62890625 186.90625 C-166.80638428 187.27129639 -167.9838623 187.63634277 -169.19702148 188.01245117 C-169.83034393 188.20890228 -170.46366638 188.40535339 -171.11618042 188.60775757 C-182.97953003 192.27307327 -194.88790688 195.53892737 -206.96875 198.40625 C-208.01562485 198.65533615 -208.01562485 198.65533615 -209.08364868 198.90945435 C-211.83707024 199.56408139 -214.59082352 200.21728388 -217.34510803 200.86827087 C-272.81668932 211.94499721 -272.81668932 211.94499721 -315.28125 245.96875 C-320.33724556 255.01413384 -323.64893636 263.88418478 -321.03125 274.21875 C-317.8027932 282.7661203 -313.1345573 289.69959785 -305.03125 294.21875 C-298.85961916 296.79746669 -293.19396761 297.76924966 -286.53125 297.71875 C-285.19187378 297.71125732 -285.19187378 297.71125732 -283.82543945 297.70361328 C-260.62152316 297.12456365 -238.89525719 289.85693396 -219.03125 278.21875 C-217.50757812 277.32929688 -217.50757812 277.32929688 -215.953125 276.421875 C-182.72981152 255.63509598 -167.30611202 221.79291438 -158.03125 185.21875 C-160.77963646 185.21875 -163.00386759 186.0801475 -165.62890625 186.90625 Z " fill="#000000" transform="translate(2506.03125,211.78125)"/>
<path d="M0 0 C51.15 0 102.3 0 155 0 C152.7503251 10.12353706 152.7503251 10.12353706 151.40625 14.2578125 C151.10338577 15.19665787 150.80052155 16.13550323 150.48847961 17.10279846 C149.99918221 18.59878822 149.99918221 18.59878822 149.5 20.125 C148.97897957 21.73597816 148.97897957 21.73597816 148.44743347 23.37950134 C147.6959396 25.70219227 146.94267938 28.0243123 146.18783569 30.34591675 C144.3454914 36.01343411 142.51423014 41.6845245 140.68364525 47.35584831 C140.25998619 48.66830744 139.83618872 49.98072189 139.41225624 51.29309273 C135.30900933 63.99729537 131.28397039 76.72549671 127.28027344 89.46142578 C120.67074307 110.48611153 113.96101564 131.47596655 107.16703796 152.4415741 C100.01861398 174.50103982 92.92510352 196.5765189 85.9375 218.6875 C85.55964355 219.88101074 85.18178711 221.07452148 84.79248047 222.30419922 C73.68138971 251.52964593 73.68138971 251.52964593 77.875 281.1875 C82.77635192 290.37977905 89.72431202 295.31584259 99.5703125 298.3359375 C119.07550897 302.11257007 142.39750934 292.99838447 158.625 282.5 C170.10380228 274.70993956 181.04842244 264.0494011 188 252 C188.60585937 250.98421875 189.21171875 249.9684375 189.8359375 248.921875 C194.64695902 240.36765262 197.66125891 231.30072809 200.59765625 221.96875 C201.03306564 220.59988644 201.46910517 219.23122317 201.9057312 217.86274719 C202.81675353 215.0064314 203.72547201 212.14939766 204.63278198 209.29190063 C206.58737225 203.1454697 208.57926032 197.01116344 210.57066345 190.8765831 C211.67763884 187.46550355 212.78216909 184.05363233 213.88696289 180.6418457 C214.3379808 179.24931799 214.7890001 177.85679074 215.24002075 176.46426392 C222.53065046 153.95214173 229.79914197 131.43342562 236.99514771 108.89083862 C243.63732161 88.08619535 250.35145701 67.30497367 257.07643318 46.52697849 C257.94159905 43.85367997 258.80639647 41.18026231 259.6711731 38.50683784 C260.25154832 36.71323746 260.83254227 34.91983733 261.41357422 33.12644958 C264.98192402 22.09648671 268.48485433 11.04760069 272 0 C323.48 0 374.96 0 428 0 C426.76850117 6.15749415 425.67152698 11.48545658 423.73193359 17.31835938 C423.51314891 17.98188384 423.29436422 18.64540831 423.0689497 19.32903957 C422.35088637 21.50245542 421.62466085 23.67304863 420.8984375 25.84375 C420.38427042 27.39552711 419.87068853 28.94749821 419.35765076 30.49964905 C418.26865199 33.79119531 417.17631245 37.08160463 416.08120728 40.37112427 C413.48632804 48.16694565 410.90954729 55.96875527 408.3320179 63.77032661 C407.75845732 65.50614705 407.18468949 67.24189903 406.61071587 68.97758293 C401.92564824 83.14582668 397.32669461 97.33877404 392.8125 111.5625 C386.66437489 130.91587781 380.35237689 150.2129848 374 169.5 C367.606421 188.91226956 361.25572364 208.33511953 355.0625 227.8125 C348.66950982 247.91765166 342.10273103 267.96303536 335.5 288 C327.47152441 312.36459423 319.54095645 336.75628264 311.765625 361.203125 C306.88820432 376.48301137 301.93727003 391.73934717 297 407 C246.18 407 195.36 407 143 407 C145.25 396.875 145.25 396.875 146.42041016 393.21459961 C146.68052887 392.39442856 146.94064758 391.57425751 147.20864868 390.72923279 C147.48268524 389.87885941 147.7567218 389.02848602 148.0390625 388.15234375 C148.32478119 387.25504044 148.61049988 386.35773712 148.90487671 385.4332428 C149.80791159 382.6001404 150.71635766 379.76880831 151.625 376.9375 C152.24254777 375.0033702 152.85973868 373.06912642 153.4765625 371.13476562 C154.98025498 366.42185009 156.48879906 361.71051305 158 357 C157.67 356.67 157.34 356.34 157 356 C156.52981445 356.49338867 156.05962891 356.98677734 155.57519531 357.49511719 C150.62471524 362.58116053 145.44332619 367.01979803 139.75 371.25 C138.88157471 371.89549805 138.01314941 372.54099609 137.1184082 373.20605469 C107.00721474 395.23638428 72.71818125 409.51989836 36 416 C34.93289795 416.19480957 34.93289795 416.19480957 33.84423828 416.39355469 C14.87625199 419.7056462 -7.16050273 419.97824336 -26 416 C-27.2065625 415.75507812 -28.413125 415.51015625 -29.65625 415.2578125 C-44.03110226 411.9017003 -56.49498287 405.19235322 -68 396 C-68.61875 395.54496094 -69.2375 395.08992188 -69.875 394.62109375 C-86.24124278 381.92967863 -95.85624571 359.24446839 -98.67578125 339.30078125 C-101.28607713 312.72608219 -93.73049668 287.26993861 -85.1875 262.375 C-84.33135963 259.82975728 -83.4770599 257.2839894 -82.62597656 254.73706055 C-81.32898349 250.85876769 -80.03111076 246.98080864 -78.72427368 243.1058197 C-75.10183907 232.36058014 -71.61773624 221.57479085 -68.18777466 210.76678467 C-66.57884718 205.69815787 -64.96164391 200.63217698 -63.34375 195.56640625 C-63.00654434 194.51046265 -62.66933868 193.45451904 -62.32191467 192.36657715 C-57.75278541 178.07643974 -53.11926607 163.80707488 -48.49128723 149.53591537 C-46.26981496 142.68553753 -44.04900826 135.83494382 -41.828125 128.984375 C-41.58394585 128.23120687 -41.33976669 127.47803875 -41.08818817 126.70204735 C-36.08960242 111.28334774 -31.10196893 95.86112656 -26.12456131 80.43557739 C-25.7094438 79.1490871 -25.29429052 77.86260835 -24.8791008 76.57614136 C-20.38345202 62.64617965 -15.90112273 48.71212942 -11.45703125 34.765625 C-11.10111908 33.64881348 -10.74520691 32.53200195 -10.37850952 31.38134766 C-8.71673216 26.1647022 -7.0575388 20.94725331 -5.40234375 15.72851562 C-4.82682704 13.91796744 -4.25130646 12.10742048 -3.67578125 10.296875 C-3.41642288 9.47624573 -3.15706451 8.65561646 -2.8898468 7.81011963 C-1.11291194 2.22582388 -1.11291194 2.22582388 0 0 Z " fill="#000000" transform="translate(1621,178)"/>
<path d="M0 0 C6.27 0 12.54 0 19 0 C24.77897727 6.12710843 24.77897727 6.12710843 26.41796875 9.34375 C29.55762516 15.15269268 33.30585534 20.53378778 37 26 C38.38900022 28.09179791 39.77704153 30.18423292 41.1640625 32.27734375 C44.15612493 36.7654374 47.21390876 41.19235155 50.375 45.5625 C55.42225071 52.58772735 60.20164903 59.80247355 65 67 C65.33 44.89 65.66 22.78 66 0 C72.6 0 79.2 0 86 0 C86 34.65 86 69.3 86 105 C66 105 66 105 61.1875 100.375 C60.16845332 98.63650636 59.15442958 96.8940723 58.20117188 95.11865234 C55.74540898 90.78712584 52.77435695 86.77475426 49.9375 82.6875 C48.64504096 80.78527555 47.35472175 78.88159567 46.06640625 76.9765625 C41.88004024 70.80771802 37.63513458 64.68056354 33.375 58.5625 C32.71234131 57.61012451 32.04968262 56.65774902 31.36694336 55.67651367 C27.94157373 50.76112799 24.48271021 45.87579429 21 41 C20.67 62.12 20.34 83.24 20 105 C13.4 105 6.8 105 0 105 C0 70.35 0 35.7 0 0 Z " fill="#000000" transform="translate(1111,666)"/>
<path d="M0 0 C9.91278831 8.5209242 16.25813038 22.1635194 18 35 C19.20515186 51.87212605 15.58099402 67.94729352 4.8125 81.375 C-5.68734415 92.22406292 -18.55439455 97.00025144 -33.5 97.5 C-47.15090826 97.07117566 -59.70954293 93.11679882 -69.75 83.6875 C-81.52228203 71.03091509 -85.56817383 56.63194928 -85.26953125 39.73828125 C-84.68896318 25.56727234 -78.83479791 11.85842814 -69.125 1.5 C-49.59151244 -16.24735154 -20.77696632 -14.98568548 0 0 Z M-56.30859375 18.4921875 C-63.09869582 28.55972913 -64.72182112 41.10590331 -62.43359375 52.92578125 C-61.732604 55.34437939 -60.93036126 57.66105441 -60 60 C-59.608125 61.03125 -59.21625 62.0625 -58.8125 63.125 C-53.98500868 70.78240002 -47.88347956 75.89428633 -39 78 C-31.3091785 79.05625016 -24.78678175 77.75674852 -18 74 C-10.5914791 68.07318328 -6.43855022 59.14653275 -4.3125 50.0625 C-3.11146375 38.2923448 -4.94568971 26.79541371 -12 17 C-17.97913644 10.74276419 -25.4276479 7.81953498 -34 7.5 C-43.65979169 7.90868349 -50.17302825 10.98076791 -56.30859375 18.4921875 Z " fill="#000000" transform="translate(1301,676)"/>
<path d="M0 0 C11.21562791 7.79000294 19.31845698 19.30697949 22.625 32.625 C25.33689041 50.9151942 22.66790693 67.56038735 12.1875 82.875 C3.68433386 93.55933901 -7.55627244 98.52946471 -20.8125 100.875 C-36.01338714 102.40445271 -50.30670829 98.66651461 -62.375 89.25 C-73.9524431 78.72260407 -78.96838404 64.98880444 -80.03515625 49.6796875 C-80.45149737 34.36557509 -74.89633776 18.50567889 -64.8125 6.875 C-47.34131236 -9.87184321 -20.83316984 -12.20558289 0 0 Z M-46.5625 18.0625 C-54.86472874 28.44028593 -59.16059829 38.33784631 -57.8125 51.875 C-56.19451507 62.37841881 -52.17637585 70.97917696 -43.71875 77.65625 C-37.37725725 81.710647 -30.21775681 82.89407204 -22.8125 81.875 C-16.58791072 80.18728337 -11.99028994 77.91292317 -7.8125 72.875 C-7.131875 72.153125 -6.45125 71.43125 -5.75 70.6875 C0.65960809 61.3832302 2.05096784 50.92982066 1.1875 39.875 C-0.88902463 29.37371831 -4.58464779 21.60106213 -13.4375 15.4375 C-23.66251582 8.8540249 -37.24256726 10.64891713 -46.5625 18.0625 Z " fill="#000000" transform="translate(1485.8125,672.125)"/>
<path d="M0 0 C8.07592837 6.35764574 12.25284152 12.92231681 15.5 22.75 C15.5 23.74 15.5 24.73 15.5 25.75 C13.08525383 26.28160457 10.66891893 26.80054766 8.25 27.3125 C7.22712891 27.53969727 7.22712891 27.53969727 6.18359375 27.77148438 C-0.60331157 29.18816849 -0.60331157 29.18816849 -3.5 27.75 C-4.80859375 26.04296875 -4.80859375 26.04296875 -5.9375 23.9375 C-9.45933784 17.97910365 -13.47692109 15.25969386 -20.05078125 13.29296875 C-29.31441263 11.23930884 -37.83943494 13.17540531 -45.83203125 18.22265625 C-52.50653113 23.4607146 -55.24182164 30.50716797 -56.5 38.75 C-57.33084279 51.53619896 -56.95129197 62.9797376 -49.3125 73.76953125 C-44.60512852 78.9131462 -38.27011849 81.54582482 -31.3984375 81.91796875 C-21.15004517 81.97477802 -12.64430697 81.83592256 -4.09375 75.7734375 C-2.5 74.75 -2.5 74.75 -0.5 74.75 C-0.5 70.46 -0.5 66.17 -0.5 61.75 C-9.74 61.75 -18.98 61.75 -28.5 61.75 C-28.5 55.81 -28.5 49.87 -28.5 43.75 C-13.65 43.75 1.2 43.75 16.5 43.75 C16.5 62.56 16.5 81.37 16.5 100.75 C10.89 100.75 5.28 100.75 -0.5 100.75 C-0.83 99.1 -1.16 97.45 -1.5 95.75 C-2.36882812 96.09933594 -3.23765625 96.44867187 -4.1328125 96.80859375 C-5.28523438 97.26363281 -6.43765625 97.71867188 -7.625 98.1875 C-8.76195312 98.63996094 -9.89890625 99.09242188 -11.0703125 99.55859375 C-23.83327478 103.99219682 -39.51764865 102.79399405 -51.6875 97.125 C-65.02209061 89.92606415 -71.64312435 80.14312687 -76.51953125 66.08203125 C-81.27092467 49.93486558 -79.25492593 31.92797455 -71.875 16.9375 C-65.0561514 5.48183434 -55.38686793 -1.58942534 -42.703125 -5.38671875 C-29.43342388 -8.50215912 -11.47310276 -7.58622693 0 0 Z " fill="#000000" transform="translate(1603.5,671.25)"/>
<path d="M0 0 C25.08 0 50.16 0 76 0 C76 6.27 76 12.54 76 19 C58.18 19 40.36 19 22 19 C22 26.26 22 33.52 22 41 C38.5 41 55 41 72 41 C72 47.27 72 53.54 72 60 C55.5 60 39 60 22 60 C22 68.91 22 77.82 22 87 C40.48 87 58.96 87 78 87 C78 92.94 78 98.88 78 105 C52.26 105 26.52 105 0 105 C0 70.35 0 35.7 0 0 Z " fill="#000000" transform="translate(796,666)"/>
<path d="M0 0 C6.93 0 13.86 0 21 0 C21 13.86 21 27.72 21 42 C36.18 42 51.36 42 67 42 C67 28.14 67 14.28 67 0 C73.93 0 80.86 0 88 0 C88 34.65 88 69.3 88 105 C81.07 105 74.14 105 67 105 C67 90.15 67 75.3 67 60 C51.82 60 36.64 60 21 60 C21 74.85 21 89.7 21 105 C14.07 105 7.14 105 0 105 C0 70.35 0 35.7 0 0 Z " fill="#000000" transform="translate(1000,666)"/>
<path d="M0 0 C7.77014764 6.01518794 12.04151952 12.45978439 15.5 21.6875 C15.5 22.3475 15.5 23.0075 15.5 23.6875 C-0.24487472 28.09524487 -0.24487472 28.09524487 -7.5 28.6875 C-7.80292969 28.08421875 -8.10585938 27.4809375 -8.41796875 26.859375 C-11.85042678 20.31130123 -15.23858007 16.02077302 -22.359375 13.234375 C-30.05903733 11.26730798 -37.37358289 12.06710073 -44.24609375 16.02734375 C-52.24612167 21.91991198 -55.70803015 30.11265517 -57.5 39.6875 C-58.65466182 51.10317718 -57.30939204 61.63585559 -50.625 71.1875 C-46.32113654 76.41284556 -40.70543107 80.20346683 -33.88671875 80.98828125 C-27.15342799 81.01751406 -21.20579001 80.76980401 -15.8515625 76.31640625 C-11.34524591 71.54703057 -8.95548165 65.69582456 -6.5 59.6875 C0.90315583 61.48104806 8.22764611 63.41891173 15.5 65.6875 C13.71977732 76.72488064 8.36068514 85.75951464 -0.5 92.6875 C-13.57504655 100.81425545 -28.89313016 102.98279111 -43.9765625 100 C-57.87139579 95.69152456 -67.68678451 87.88527425 -74.78369141 75.29052734 C-81.97741507 61.62924905 -82.73264497 43.4691986 -78.5 28.6875 C-76.22083397 22.23657425 -73.6689808 16.1592873 -69.5 10.6875 C-68.778125 9.6975 -68.05625 8.7075 -67.3125 7.6875 C-64.03169904 3.81757689 -59.79106533 1.31063412 -55.5 -1.3125 C-54.69949219 -1.83070313 -53.89898438 -2.34890625 -53.07421875 -2.8828125 C-37.90921095 -11.30525993 -14.11267188 -9.32444392 0 0 Z " fill="#000000" transform="translate(965.5,672.3125)"/>
<path d="M0 0 C21.01364454 -2.08802089 21.01364454 -2.08802089 26.8828125 2.015625 C28.53468482 4.7860297 29.78241497 7.54166669 30.93847656 10.54882812 C33.29908849 15.99973514 36.53043174 21.05163133 39.5 26.1875 C40.74727832 28.38497304 41.98739884 30.5865315 43.21875 32.79296875 C44.0221582 34.22419067 44.0221582 34.22419067 44.84179688 35.68432617 C46 38 46 38 46 40 C46.66 40 47.32 40 48 40 C48.2671582 39.29061279 48.53431641 38.58122559 48.80957031 37.8503418 C50.04337243 34.8961499 51.47921999 32.18536105 53.046875 29.39453125 C53.645 28.32783203 54.243125 27.26113281 54.859375 26.16210938 C55.48328125 25.05673828 56.1071875 23.95136719 56.75 22.8125 C57.3584375 21.72646484 57.966875 20.64042969 58.59375 19.52148438 C59.80463491 17.3675064 61.03089776 15.22209563 62.27294922 13.0859375 C64.02632223 10.05746282 64.02632223 10.05746282 65.35595703 6.9921875 C66.69039244 4.21601055 67.79769765 2.15801314 70 0 C74.19149999 -1.19590335 78.06083674 -0.95529518 82.375 -0.625 C83.49261719 -0.57988281 84.61023437 -0.53476562 85.76171875 -0.48828125 C88.5133319 -0.37069094 91.25388464 -0.20673789 94 0 C93.31985404 3.87349275 91.51782784 6.80592683 89.53515625 10.171875 C89.18612747 10.76692337 88.83709869 11.36197174 88.47749329 11.97505188 C87.34434243 13.90314056 86.20371032 15.82667248 85.0625 17.75 C84.28121878 19.07467402 83.50013204 20.39946277 82.71923828 21.72436523 C78.02296459 29.67483233 73.24981013 37.56860536 68.2734375 45.34765625 C67.93159424 45.91468262 67.58975098 46.48170898 67.23754883 47.06591797 C66 49 66 49 64.20581055 51.29736328 C57.10836881 61.32778876 57.99315475 71.89861222 58.0625 83.75 C58.04937007 85.81512657 58.03311981 87.88023577 58.01367188 89.9453125 C57.96734233 94.96501843 57.98508081 99.97862598 58 105 C50.74 105 43.48 105 36 105 C36.07863281 101.99519531 36.15726563 98.99039063 36.23828125 95.89453125 C37.16689211 66.55946485 37.16689211 66.55946485 23.88769531 41.36816406 C20.32837901 36.90290693 17.57902844 31.91210037 14.6875 27 C13.52541463 25.07614041 12.36016727 23.1541864 11.19140625 21.234375 C10.64758301 20.33912109 10.10375977 19.44386719 9.54345703 18.52148438 C8.15841999 16.25880444 6.75624449 14.00875907 5.33984375 11.765625 C4.95803955 11.15847656 4.57623535 10.55132813 4.18286133 9.92578125 C3.21325231 8.38980242 2.23591367 6.85871009 1.2578125 5.328125 C0 3 0 3 0 0 Z " fill="#000000" transform="translate(1625,666)"/>
<path d="M0 0 C26.73 0 53.46 0 81 0 C81 6.27 81 12.54 81 19 C71.1 19 61.2 19 51 19 C51 47.38 51 75.76 51 105 C44.07 105 37.14 105 30 105 C30 76.62 30 48.24 30 19 C20.1 19 10.2 19 0 19 C0 12.73 0 6.46 0 0 Z " fill="#000000" transform="translate(696,666)"/>
<path d="M0 0 C7.26 0 14.52 0 22 0 C22 28.38 22 56.76 22 86 C36.85 86 51.7 86 67 86 C67 91.94 67 97.88 67 104 C44.89 104 22.78 104 0 104 C0 69.68 0 35.36 0 0 Z " fill="#000000" transform="translate(1334,667)"/>
</svg>
