<?xml version="1.0" encoding="UTF-8"?>
<svg version="1.1" xmlns="http://www.w3.org/2000/svg" width="2560" height="1205">
<path d="M0 0 C60.72 0 121.44 0 184 0 C183.67 0.99 183.34 1.98 183 3 C180.6640625 3.703125 180.6640625 3.703125 177.625 4.25 C166.31879097 6.86531525 157.65573611 13.57417409 151 23 C143.36325718 35.96982515 141.69629002 47.95695383 141.73930359 62.85557556 C141.73627876 64.34796942 141.73238762 65.84036173 141.72771102 67.33275133 C141.71746424 71.41227445 141.71960439 75.49170935 141.72389162 79.57123959 C141.72636503 83.97979427 141.7173368 88.38832805 141.70985413 92.796875 C141.69712011 101.42730433 141.69531199 110.05770253 141.69765439 118.68813967 C141.69943992 125.70909963 141.69768285 132.73005016 141.69342995 139.75100899 C141.69253716 141.25193223 141.69253716 141.25193223 141.69162634 142.78317716 C141.69041453 144.81624392 141.6892004 146.84931069 141.68798397 148.88237745 C141.67711247 167.94107804 141.6792685 186.99976093 141.68536881 206.05846251 C141.69053205 223.46260241 141.67929751 240.86668625 141.66027059 258.27081507 C141.64085655 276.16723508 141.63264279 294.06362862 141.63639385 311.96005923 C141.6383012 321.99694543 141.63586434 332.03378397 141.62167931 342.07066154 C141.60971866 350.61987964 141.60841246 359.16902077 141.62046947 367.71824002 C141.62632678 372.07301135 141.62754596 376.42764227 141.61546707 380.78240395 C141.51551167 419.50791041 146.6692705 451.78278418 174.3125 480.75 C195.98289094 501.66162375 224.23733817 510.80815659 253.90625 510.3125 C281.75990051 509.26929212 307.30116424 495.03732642 326.21875 475.12109375 C344.70524568 454.85070203 353.3239673 428.66164295 353.27415466 401.61761475 C353.27861461 400.08025836 353.28393112 398.54290427 353.29002339 397.00555348 C353.3041226 392.80656055 353.30586822 388.60764191 353.30542648 384.4086287 C353.30708181 379.86996338 353.32016143 375.33132803 353.33161926 370.79267883 C353.35441084 360.88148251 353.36238321 350.97030768 353.36744571 341.05908871 C353.37070879 334.86490245 353.37723485 328.67072237 353.3844471 322.47653961 C353.40400349 305.30911332 353.42041396 288.14169275 353.42332363 270.97425461 C353.42360499 269.32836575 353.42360499 269.32836575 353.42389202 267.64922662 C353.42425826 265.4250741 353.42462196 263.20092158 353.42498314 260.97676906 C353.42516595 259.87278 353.42534876 258.76879093 353.42553711 257.63134766 C353.42571766 256.52600352 353.42589821 255.42065938 353.42608423 254.28181997 C353.42962605 236.37062074 353.45665327 218.45954171 353.494035 200.54838416 C353.53215249 182.13666501 353.55148135 163.72500548 353.55178314 145.31324601 C353.55236685 134.98470788 353.56080316 124.65631328 353.58978081 114.32781219 C353.61434045 105.53399897 353.62154648 96.74038165 353.60653328 87.94654337 C353.59938379 83.46457548 353.60013691 78.98299412 353.62294388 74.50107002 C353.64366817 70.38885538 353.64080967 66.27732112 353.62006903 62.16511276 C353.61659971 60.68671359 353.6213742 59.20826396 353.63577347 57.72993085 C353.78180215 41.68893564 349.4802173 28.31592415 339 16 C331.21977415 8.24455194 322.4466498 4.72521299 312 2 C312 1.34 312 0.68 312 0 C372.39 0 432.78 0 495 0 C494.67 0.99 494.34 1.98 494 3 C491.59375 3.73828125 491.59375 3.73828125 488.5 4.3125 C482.25999246 5.722252 478.01677193 8.12576412 473 12 C472.13375 12.5775 471.2675 13.155 470.375 13.75 C461.29021473 22.35663867 454.58356161 35.49337825 453.8130312 48.04585099 C453.73733495 51.80765893 453.7253059 55.56684851 453.73498535 59.32913208 C453.73141127 60.78878855 453.72695924 62.24844308 453.72170877 63.70809448 C453.70981823 67.70652931 453.71022297 71.70488201 453.71264386 75.70333028 C453.71306411 80.02131961 453.70195726 84.33928094 453.69218445 88.65725708 C453.67673858 96.13922389 453.66832154 103.62117187 453.66447449 111.10315323 C453.65871611 121.94473941 453.6401099 132.7862752 453.61803395 143.62783907 C453.58231656 161.25009409 453.55400724 178.87235197 453.53173828 196.49462891 C453.53040329 197.54899292 453.5290683 198.60335694 453.52769285 199.68967138 C453.51827149 207.16811402 453.50911122 214.64655698 453.5 222.125 C453.48961279 230.64339217 453.47909094 239.16178416 453.46826172 247.68017578 C453.46693098 248.72900555 453.46560023 249.77783532 453.46422917 250.85844781 C453.44173346 268.39887419 453.41150334 285.93927927 453.37586927 303.47968376 C453.35429925 314.28067432 453.33961031 325.08163172 453.33403051 335.88264261 C453.32975579 343.30028507 453.31844648 350.71789601 453.30180657 358.13552095 C453.29248035 362.40352961 453.28625738 366.67147946 453.28886986 370.9394989 C453.31423363 422.79414565 445.87872151 469.89703235 408.36816406 508.58056641 C407.17225121 509.82129398 406.00181297 511.08647433 404.8359375 512.35546875 C392.68095674 525.23787114 377.53647099 534.74874815 362 543 C361.32066406 543.36432129 360.64132812 543.72864258 359.94140625 544.10400391 C339.53225147 554.86932788 316.70064051 561.34815783 294 565 C292.99163086 565.16226074 291.98326172 565.32452148 290.94433594 565.49169922 C248.74277533 571.91540519 203.37380947 569.17965548 163 555 C162.03537842 554.66597168 162.03537842 554.66597168 161.05126953 554.32519531 C134.02679553 544.89820783 110.74824485 530.75753739 90 511 C89.16855469 510.24460937 88.33710938 509.48921875 87.48046875 508.7109375 C66.83397385 489.29856265 53.73925997 462.41721026 47.125 435.1875 C46.93389648 434.40157471 46.74279297 433.61564941 46.54589844 432.8059082 C43.60895828 419.77223683 42.70089177 406.73746356 42.74171448 393.41375732 C42.73885083 391.91532116 42.73510799 390.41688646 42.73057598 388.91845441 C42.72070684 384.85037467 42.72293816 380.78238228 42.72730291 376.71429634 C42.72979997 372.30802552 42.72068456 367.90177647 42.71292114 363.49551392 C42.70092692 355.87506472 42.69577092 348.25463636 42.69503975 340.63417816 C42.69370879 329.60346239 42.67855155 318.57279686 42.65954458 307.54209891 C42.62876545 289.62442633 42.6045696 271.70675248 42.58666992 253.7890625 C42.58559724 252.7186557 42.58452456 251.6482489 42.58341938 250.54540554 C42.57159345 238.59720671 42.56138672 226.64900738 42.55297852 214.70080566 C42.54990422 210.36368814 42.54681549 206.02657062 42.54370117 201.68945312 C42.54293583 200.61914914 42.54217049 199.54884515 42.54138196 198.44610772 C42.52829151 180.58680601 42.50364414 162.72754092 42.46995777 144.86826634 C42.44970181 133.86708842 42.43937367 122.86598885 42.44194698 111.86479214 C42.44298362 104.32861388 42.43331994 96.79249758 42.41530795 89.25634095 C42.40528623 84.91252832 42.40010997 80.56885282 42.40807533 76.22503281 C42.4152907 72.24283315 42.40859024 68.26089981 42.39118993 64.27873388 C42.38733021 62.84428858 42.38844092 61.40981867 42.39524681 59.97538432 C42.47055062 42.72577068 38.51719771 27.90000281 26.359375 15.19140625 C18.57223593 7.9586496 10.07114606 4.72760206 0 2 C0 1.34 0 0.68 0 0 Z " fill="#E60011" transform="translate(2060,428)"/>
<path d="M0 0 C60.72 0 121.44 0 184 0 C183.67 0.99 183.34 1.98 183 3 C180.6640625 3.703125 180.6640625 3.703125 177.625 4.25 C166.80069299 6.74396147 158.35755006 12.94082719 152 22 C143.68897418 35.67891171 141.53499814 49.23602278 141.6257782 65.11553955 C141.62303048 66.5873505 141.61897235 68.05915947 141.61373454 69.53096366 C141.60324243 73.53502233 141.61121451 77.53885467 141.62248504 81.54290318 C141.631386 85.87706623 141.62286649 90.21120152 141.61662292 94.54536438 C141.60716608 103.02119389 141.61370798 111.49693787 141.62588587 119.97276101 C141.63955785 129.85979072 141.63786334 139.74680043 141.63575254 149.63383719 C141.63256701 167.28732169 141.64420388 184.94076577 141.66381836 202.59423828 C141.682809 219.6909305 141.68990835 236.78757533 141.68432617 253.88427734 C141.67825512 272.53320133 141.67847057 291.18210452 141.689812 309.83102679 C141.69101919 311.82347536 141.69222518 313.81592393 141.69342995 315.8083725 C141.69403349 316.78849722 141.69463702 317.76862194 141.69525885 318.7784474 C141.6991234 325.65557674 141.69875002 332.53269829 141.6968441 339.40982819 C141.69471202 347.80416156 141.70002206 356.19845364 141.71445765 364.59277543 C141.72165395 368.86843354 141.72581994 373.14403181 141.72121429 377.4196949 C141.68491918 416.08865769 145.00751002 449.99625913 173.16015625 479.1875 C193.46844823 499.30025134 219.51577216 510.2448766 248.0625 510.5 C273.69119764 510.29069491 297.80696371 500.92186033 317 484 C317.6084375 483.53464844 318.216875 483.06929687 318.84375 482.58984375 C338.02584561 467.79610492 349.30477394 441.20982159 353 418 C354.06002227 409.4357057 354.14424452 400.90563081 354.13371277 392.2875061 C354.13558438 390.82297278 354.13788648 389.35843995 354.14057809 387.8939079 C354.14665896 383.89629426 354.14656691 379.89870163 354.14538372 375.90108442 C354.14517877 371.57924043 354.15070732 367.25740302 354.15544128 362.93556213 C354.16372749 354.47907642 354.16649519 346.02259768 354.16705366 337.56610824 C354.16752969 330.69005072 354.16958876 323.81399549 354.17275429 316.93793869 C354.18155453 297.4239582 354.18617453 277.90998319 354.18542381 258.3960007 C354.18538386 257.34525211 354.1853439 256.29450352 354.18530273 255.21191406 C354.18526185 254.15987637 354.18522097 253.10783868 354.18517885 252.02392106 C354.18477234 234.97146319 354.19434498 217.9190274 354.2084411 200.86657591 C354.22281557 183.33854098 354.22971073 165.81051681 354.22884732 148.28247583 C354.22851578 138.44924955 354.23124459 128.61604643 354.24202538 118.78282547 C354.25114435 110.41207232 354.25329407 102.04135283 354.24651595 93.67059685 C354.2432581 89.40367488 354.24316749 85.13681744 354.2518692 80.86990166 C354.25976745 76.95659328 354.25826909 73.04340025 354.24958507 69.13009457 C354.2480574 67.72172173 354.2498383 66.31334014 354.25544515 64.90497763 C354.32450787 46.31172092 351.59904565 30.36423593 339 16 C331.10929635 8.31592689 322.48999876 4.73652142 312 2 C312 1.34 312 0.68 312 0 C372.72 0 433.44 0 496 0 C496 0.66 496 1.32 496 2 C495.17757813 2.21914063 494.35515625 2.43828125 493.5078125 2.6640625 C485.4916492 4.94117124 477.32976098 7.57789815 471.3515625 13.68359375 C470 15 470 15 468 15 C467.72800781 15.5775 467.45601562 16.155 467.17578125 16.75 C466.00179457 18.99656588 464.66438933 20.94248663 463.1875 23 C457.37326069 31.60735427 453.88215003 40.7511174 453.86692142 51.15039158 C453.86268038 52.39506846 453.85843933 53.63974534 453.85406977 54.9221397 C453.85437543 56.300678 453.85476861 57.67921627 453.85523987 59.05775452 C453.85210507 60.52449545 453.84853002 61.99123549 453.84455246 63.45797437 C453.83485949 67.48983015 453.83130475 71.52167176 453.82870948 75.55353749 C453.82481355 79.90220957 453.81517579 84.25086916 453.80615234 88.59953308 C453.79121142 96.13884794 453.77966722 103.67816181 453.77020454 111.21748543 C453.75631856 122.13988367 453.73512694 133.06225886 453.71177601 143.98464053 C453.67384621 161.7339769 453.63889028 179.48331746 453.60717773 197.23266602 C453.60527724 198.29523239 453.60337675 199.35779876 453.60141867 200.45256411 C453.57463502 215.50358976 453.55074952 230.55461863 453.52803367 245.60565089 C453.52563771 247.19267865 453.52563771 247.19267865 453.52319336 248.81176758 C453.52159989 249.86849031 453.52000643 250.92521305 453.51836468 252.01395769 C453.4915303 269.67858325 453.45709969 287.34318449 453.41653961 305.00778383 C453.3918536 315.8907254 453.37347737 326.77364089 453.363384 337.65660595 C453.35595214 345.12986464 453.34136483 352.60308829 453.32131977 360.0763237 C453.3100096 364.37849058 453.301789 368.68060119 453.30232811 372.98278427 C453.30240846 424.58103576 445.13171751 470.55713427 408 509 C406.72382812 510.37091797 406.72382812 510.37091797 405.421875 511.76953125 C376.54999908 541.98126967 334.50353753 558.37106258 294 565 C292.54400391 565.24339111 292.54400391 565.24339111 291.05859375 565.49169922 C262.33511361 570.07553523 231.66742179 569.77073319 203 565 C201.54859619 564.76651855 201.54859619 564.76651855 200.06787109 564.52832031 C159.7341071 557.79594791 120.96709254 541.01436782 91.43261719 512.38574219 C90.1473139 511.14249382 88.84426923 509.91764896 87.5390625 508.6953125 C60.03317512 482.34756774 43.97357037 442.56224458 42.90756738 404.71859491 C42.86967115 400.84689547 42.8635493 396.97586267 42.86869812 393.10404968 C42.8669932 391.60738105 42.86484226 390.11071287 42.86228687 388.61404544 C42.85771229 385.37456762 42.85626459 382.13510884 42.85725212 378.89562798 C42.85885241 373.6233127 42.85362675 368.35101617 42.84762573 363.07870483 C42.83952968 355.42377923 42.83457479 347.76885693 42.83133507 340.11392784 C42.82582524 328.00756309 42.80891483 315.90122629 42.78999329 303.7948761 C42.78363728 299.64859681 42.77732876 295.50231745 42.77101612 291.35603809 C42.76943236 290.31995925 42.7678486 289.28388041 42.76621684 288.21640524 C42.74829593 276.43406708 42.73206137 264.65172697 42.71704102 252.86938477 C42.71566514 251.79285665 42.71428927 250.71632854 42.71287171 249.60717837 C42.69093936 232.16020966 42.68018399 214.71324821 42.67267027 197.26626816 C42.66459268 179.33594954 42.64128365 161.40569298 42.6047166 143.47540981 C42.58272486 132.42548227 42.57301675 121.37568242 42.57921693 110.32573412 C42.58239719 102.75069244 42.57102404 95.17575969 42.54832252 87.60075172 C42.53568649 83.23454437 42.52944647 78.86857977 42.54073906 74.5023632 C42.55096187 70.49820861 42.54254724 66.49452372 42.5198761 62.49042425 C42.51491208 61.04905503 42.51655131 59.60764305 42.52580877 58.16629501 C42.62083048 42.09676911 38.39890285 29.18157191 28 17 C28 16.34 28 15.68 28 15 C27.42894531 14.73058594 26.85789062 14.46117187 26.26953125 14.18359375 C23.93068948 12.96385355 21.84946456 11.5716511 19.6875 10.0625 C13.44586087 5.87081098 7.27198291 3.65852242 0 2 C0 1.34 0 0.68 0 0 Z " fill="#E60011" transform="translate(378,428)"/>
<path d="M0 0 C0.74934814 0.18933105 1.49869629 0.37866211 2.27075195 0.57373047 C7.19323052 1.94149964 11.46999701 3.84499701 15.125 7.5 C15.22011266 10.14738089 15.25055635 12.76859001 15.23852539 15.41625977 C15.23867142 16.24545929 15.23881744 17.07465881 15.2389679 17.9289856 C15.23826851 20.68315198 15.23047493 23.43725161 15.22265625 26.19140625 C15.22079216 28.09569766 15.21936822 29.99998955 15.21836853 31.90428162 C15.21454263 36.92667963 15.20471173 41.94904892 15.19366455 46.97143555 C15.18345198 52.0922812 15.17887124 57.21313148 15.17382812 62.33398438 C15.16308953 72.38933557 15.14601224 82.4446654 15.125 92.5 C14.135 92.5 13.145 92.5 12.125 92.5 C10.3984375 90.41015625 10.3984375 90.41015625 8.5 87.5625 C-6.60263667 66.1944579 -30.55021993 55.80783496 -55.67211914 51.08740234 C-90.68036153 45.23064603 -133.46275301 48.41439991 -163.20703125 69.48828125 C-164.08746094 70.15214844 -164.96789063 70.81601562 -165.875 71.5 C-166.66261719 72.09167969 -167.45023438 72.68335938 -168.26171875 73.29296875 C-183.46855169 85.73974824 -192.52223687 105.22613554 -194.875 124.5 C-196.83201984 148.89803689 -192.53391183 166.9751445 -176.625 185.75 C-166.33048921 196.59378762 -153.99471411 203.62609387 -140.875 210.5 C-139.98458008 210.96664062 -139.09416016 211.43328125 -138.17675781 211.9140625 C-134.34548877 213.91741045 -130.51163419 215.91562494 -126.67285156 217.90454102 C-120.15000617 221.28908699 -113.6865882 224.7670423 -107.25 228.3125 C-98.69727609 233.01852191 -90.05664936 237.53828695 -81.375 242 C-71.74884442 246.94722277 -62.18702151 251.99106225 -52.71020508 257.22045898 C-47.42892629 260.12920975 -42.10856418 262.93909279 -36.74194336 265.68701172 C4.98374315 287.10683111 44.45159902 319.98283966 59.71557617 365.83349609 C70.15090501 398.81212324 67.53293677 435.0273438 53.125 466.5 C52.83254395 467.14775391 52.54008789 467.79550781 52.23876953 468.46289062 C34.28128944 507.81914662 -0.55577525 535.29334412 -40.37695312 550.57080078 C-62.58582686 558.83184197 -85.44364109 563.96485169 -108.9375 566.8125 C-109.60407623 566.89390228 -110.27065247 566.97530457 -110.95742798 567.05917358 C-129.36708309 569.26518929 -147.72379558 569.70717713 -166.25 569.6875 C-167.30536957 569.68689575 -168.36073914 569.6862915 -169.4480896 569.68566895 C-190.75898236 569.65263161 -211.67738376 568.64575524 -232.8125 565.75 C-233.81772705 565.61754883 -234.8229541 565.48509766 -235.85864258 565.34863281 C-237.95229027 565.03358644 -240.03643639 564.6503138 -242.10766602 564.21142578 C-245.13445252 563.63984546 -247.89705436 563.36078102 -250.95288086 563.15966797 C-256.95244457 562.48116425 -262.11537275 561.39327201 -266.875 557.5 C-272.79548765 548.6177143 -275.19541607 537.62789022 -277.93243408 527.43103027 C-278.96102898 523.66639087 -280.08374698 519.93044395 -281.20117188 516.19140625 C-282.95811687 510.27645012 -284.65885344 504.34814731 -286.32568359 498.40722656 C-289.26188813 487.97401714 -292.53410582 477.64909981 -295.84440613 467.32949829 C-296.24226822 466.07913788 -296.64013031 464.82877747 -297.05004883 463.54052734 C-297.4033577 462.44235687 -297.75666656 461.3441864 -298.12068176 460.21273804 C-298.875 457.5 -298.875 457.5 -298.875 454.5 C-295.62457109 455.89506426 -293.80128208 457.46783394 -291.5625 460.1875 C-262.03714398 494.7477062 -209.24542154 506.92227324 -165.875 511.5 C-132.76434694 513.74186713 -92.20195465 504.01890613 -65.875 483.0625 C-64.18576752 481.56677093 -62.51892213 480.04539052 -60.875 478.5 C-59.95460938 477.66984375 -59.03421875 476.8396875 -58.0859375 475.984375 C-42.66236707 461.45307724 -32.25056849 441.16927408 -30.59765625 419.9375 C-30.14082535 403.27230869 -36.03118271 388.31871405 -47.25 376.0625 C-60.87628235 361.84032967 -77.98607548 353.36960989 -95.30102539 344.45825195 C-102.21325222 340.89933224 -109.06484482 337.25026853 -115.875 333.5 C-123.65245984 329.22130306 -131.48850896 325.07415293 -139.375 321 C-148.09330692 316.49372887 -156.75059612 311.8954208 -165.34667969 307.16015625 C-170.48475695 304.33375253 -175.64549546 301.55749439 -180.83984375 298.8359375 C-194.35301208 291.74215342 -207.4577819 284.41787531 -219.875 275.5 C-220.54885742 275.02530273 -221.22271484 274.55060547 -221.91699219 274.06152344 C-256.56100416 249.58063777 -285.48485326 214.69496315 -293.15625 172.06640625 C-298.55353947 139.08373551 -290.81540522 104.56141905 -274.875 75.5 C-274.37097656 74.57703125 -273.86695313 73.6540625 -273.34765625 72.703125 C-251.31017105 34.36644714 -212.71954402 10.61208997 -170.89013672 -0.71826172 C-117.3098472 -14.61009063 -53.70225192 -13.62947893 0 0 Z " fill="#E60011" transform="translate(1999.875,426.5)"/>
<path d="M0 0 C119.79 0 239.58 0 363 0 C363 32.67 363 65.34 363 99 C362.34 99 361.68 99 361 99 C360.78085937 98.10539063 360.56171875 97.21078125 360.3359375 96.2890625 C356.44224552 81.44238334 350.1592387 71.6315468 336.75 63.6875 C324.9985569 57.81723872 313.00713185 57.55415811 300.18432617 57.56762695 C298.42872944 57.55859145 296.67313897 57.5482599 294.91755676 57.53674316 C290.19118753 57.50935688 285.46493859 57.49991383 280.73850036 57.49388909 C275.78438484 57.48445721 270.83035751 57.4582502 265.876297 57.43388367 C256.51276582 57.39034673 247.14925189 57.36172131 237.78565055 57.33856028 C227.11802811 57.31143968 216.45049494 57.26753259 205.78293645 57.22227156 C183.85533911 57.12960885 161.92771504 57.0578443 140 57 C140.02978156 57.76399644 140.05956312 58.52799288 140.09024715 59.31514072 C140.85056048 79.3197614 141.14113368 99.28835431 141.10128021 119.30619049 C141.09542422 122.7438819 141.09530865 126.18156625 141.09460449 129.6192627 C141.08943448 139.55867955 141.07547408 149.49809027 141.0625 159.4375 C141.041875 181.733125 141.02125 204.02875 141 227 C199.74 227 258.48 227 319 227 C319 259.34 319 291.68 319 325 C318.34 325 317.68 325 317 325 C316.76216797 323.85724609 316.76216797 323.85724609 316.51953125 322.69140625 C313.69695497 310.20033662 308.56741604 300.4885605 297.75 293.3125 C289.32408961 288.20414833 281.1548804 284.90589489 271.23564148 284.84178162 C270.08444321 284.8319928 268.93324493 284.82220398 267.74716187 284.81211853 C266.49343781 284.80636307 265.23971375 284.8006076 263.94799805 284.79467773 C262.60737308 284.78509206 261.26675108 284.77508157 259.9261322 284.76467896 C256.29433181 284.73769852 252.66251851 284.71665193 249.03067374 284.69667697 C245.23232419 284.67477497 241.4340141 284.64740694 237.63569641 284.62062073 C230.44644318 284.57075073 223.25716798 284.52579083 216.06787187 284.48259836 C207.8816704 284.43317727 199.69550854 284.37827724 191.50934541 284.32291877 C174.67293347 284.20918615 157.8364852 284.1023282 141 284 C140.95322825 312.0687588 140.91798579 340.13751174 140.89637566 368.20630169 C140.8860739 381.23984265 140.87203461 394.27335937 140.84912109 407.30688477 C140.82915352 418.67015611 140.81627556 430.03340989 140.81182301 441.3966983 C140.80922134 447.41048566 140.80312921 453.42422278 140.78853989 459.437994 C140.77490278 465.10551024 140.77078971 470.77295582 140.77378464 476.44048691 C140.77323721 478.51361666 140.76929648 480.58674893 140.76158905 482.65986443 C140.68725704 503.69621798 141.93271608 522.69845635 157 539 C164.95527473 546.01603177 172.91622412 549.26897737 183 552 C183 552.66 183 553.32 183 554 C122.61 554 62.22 554 0 554 C0.33 553.01 0.66 552.02 1 551 C3.40625 550.26171875 3.40625 550.26171875 6.5 549.6875 C12.74000754 548.277748 16.98322807 545.87423588 22 542 C23.299375 541.13375 23.299375 541.13375 24.625 540.25 C34.06366195 531.30810973 40.42350162 518.00936206 41.25299966 505.04618913 C41.26447728 503.63266212 41.26534272 502.21902101 41.25726891 500.80547047 C41.26077498 500.01672908 41.26428105 499.22798769 41.26789337 498.41534504 C41.27717523 495.78022822 41.27229239 493.14533396 41.26742554 490.51020813 C41.27116342 488.5986595 41.27576549 486.6871124 41.28115618 484.77556771 C41.29338458 479.52839269 41.29312589 474.28128143 41.29076743 469.03409541 C41.29035922 463.37271113 41.30139881 457.71134729 41.31088257 452.04997253 C41.32749283 440.96012895 41.33299213 429.87030662 41.33410732 418.78045163 C41.33505781 409.76520857 41.33916816 400.74997252 41.34550858 391.73473167 C41.36025559 370.33056872 41.37255829 348.92641269 41.37151146 327.52224445 C41.37146472 326.49580766 41.37146472 326.49580766 41.37141704 325.44863478 C41.37125083 321.98050604 41.37105275 318.5123773 41.37084763 315.04424856 C41.37080774 314.35548884 41.37076785 313.66672912 41.37072675 312.95709789 C41.37064587 311.56425784 41.37056228 310.17141779 41.37047596 308.77857774 C41.36925075 287.1135074 41.38425916 265.44849969 41.41162109 243.78344727 C41.44236331 219.43198146 41.45952696 195.08056725 41.45769465 170.72907895 C41.45703083 157.83964931 41.46251967 144.95029029 41.48405075 132.06087685 C41.50226611 121.08609628 41.50660692 110.11141835 41.4930319 99.1366292 C41.48650404 93.53907969 41.48637872 87.94172708 41.5037384 82.34419632 C41.51948189 77.2149593 41.5165922 72.0860751 41.49917014 66.95684662 C41.49610308 65.10625946 41.49972146 63.25564589 41.51089029 61.40508989 C41.60590163 44.53891969 38.61717311 28.53990579 26.7578125 15.625 C18.7826119 8.25237012 10.31550905 4.7937837 0 2 C0 1.34 0 0.68 0 0 Z " fill="#E60011" transform="translate(5,428)"/>
<path d="M0 0 C129.03 0 258.06 0 391 0 C387.62513771 13.49944917 387.62513771 13.49944917 385.93457031 18.96411133 C385.55697571 20.19031693 385.1793811 21.41652252 384.79034424 22.67988586 C384.3863216 23.98061666 383.98224712 25.28133136 383.578125 26.58203125 C383.15048438 27.96700659 382.72314343 29.35207449 382.29608154 30.73722839 C381.17710734 34.3639757 380.05441263 37.98955993 378.93078613 41.61486816 C377.59008742 45.94275034 376.25330492 50.27184366 374.91686249 54.60104179 C373.83348808 58.10999707 372.74821724 61.6183378 371.6583252 65.12527466 C369.69233457 71.45892174 367.75426946 77.79670176 365.90429688 84.16552734 C365.58724792 85.24646164 365.27019897 86.32739594 364.94354248 87.44108582 C364.3620882 89.43227285 363.79053992 91.42638982 363.23077393 93.42378235 C362.85115509 94.71774178 362.85115509 94.71774178 362.46386719 96.0378418 C362.25155457 96.78494919 362.03924194 97.53205658 361.82049561 98.30180359 C361.54973206 98.8622084 361.27896851 99.42261322 361 100 C359.515 100.495 359.515 100.495 358 101 C357.90525391 99.94425781 357.90525391 99.94425781 357.80859375 98.8671875 C356.32281952 86.88715525 351.49661962 76.12520859 342.5234375 67.90234375 C332.97037391 60.70057599 322.70410424 57.71283036 310.921875 57.68115234 C310.05263901 57.67110672 309.18340302 57.6610611 308.28782654 57.65071106 C305.4418905 57.62005485 302.59604777 57.60289312 299.75 57.5859375 C297.76602383 57.5672117 295.78205551 57.54763725 293.7980957 57.5272522 C288.59666585 57.47607417 283.39521022 57.43637196 278.19366455 57.39910889 C272.87774351 57.35897914 267.56192838 57.30792783 262.24609375 57.2578125 C251.83080373 57.16122298 241.4154537 57.07676417 231 57 C231.03599977 114.21646445 231.09293149 171.4328755 231.17792095 228.64928929 C231.18795177 235.40584106 231.19778705 242.16239311 231.20751953 248.91894531 C231.20897724 249.92746045 231.20897724 249.92746045 231.2104644 250.95634964 C231.24184854 272.73280667 231.26033056 294.50925132 231.27209247 316.28572704 C231.28459691 339.30681185 231.31186513 362.3278471 231.35461307 385.34889829 C231.37973655 399.13435944 231.39311811 412.91972893 231.39142957 426.70521329 C231.39139979 436.16137093 231.40604666 445.61743528 231.43216428 455.07355656 C231.44679638 460.52736691 231.4550249 465.98098594 231.44580269 471.43481255 C231.43749199 476.4343011 231.44773592 481.43340589 231.47233662 486.43283765 C231.47800204 488.23521978 231.47703321 490.03763851 231.46851245 491.84000941 C231.3867921 510.75662365 235.334349 525.54282625 248.56640625 539.734375 C255.9267284 546.58668134 264.11312339 549.81357481 274 551 C274 551.66 274 552.32 274 553 C213.28 553 152.56 553 90 553 C90 552.34 90 551.68 90 551 C91.16015625 550.74476563 91.16015625 550.74476563 92.34375 550.484375 C105.62280222 547.39469453 115.09465732 542.28421961 122.8125 530.625 C131.2599826 516.44809055 132.29830356 502.94191779 132.2784729 486.78964233 C132.28348013 484.93309875 132.28935718 483.07655734 132.29602563 481.22001898 C132.31178787 476.13469617 132.31525424 471.04942867 132.31667423 465.96408439 C132.32037487 460.47407704 132.33553368 454.9840998 132.34928894 449.49411011 C132.37154471 439.98771862 132.38656813 430.48133788 132.39665604 420.97492599 C132.41125188 407.23031392 132.43679129 393.48573925 132.46498732 379.74114914 C132.51043882 357.4405616 132.54707745 335.13996692 132.578125 312.83935547 C132.60830284 291.17853855 132.64264783 269.51773476 132.68261719 247.85693359 C132.68384819 247.18891181 132.68507919 246.52089002 132.6863475 245.83262515 C132.69994184 238.45819973 132.71365002 231.08377452 132.72740483 223.70934939 C132.83094805 168.13958467 132.92015943 112.56980348 133 57 C119.92523432 57.06140912 106.850665 57.13865707 93.77611256 57.23571491 C87.70402688 57.28030164 81.6320065 57.31958331 75.55981445 57.34643555 C69.69172914 57.37258546 63.82389668 57.41306978 57.95596886 57.46318626 C55.72550304 57.47977623 53.49499356 57.49133921 51.26447487 57.49761391 C36.67872925 57.54276857 23.06353924 57.66195958 9.875 64.6875 C9.2046875 65.03490234 8.534375 65.38230469 7.84375 65.74023438 C-7.03306804 73.64888764 -16.87615233 84.16279534 -26 98 C-26.66 98.99 -27.32 99.98 -28 101 C-28.66 101 -29.32 101 -30 101 C-29.39347438 95.91650643 -28.29586816 91.18765121 -26.76269531 86.29907227 C-26.53649506 85.56297226 -26.3102948 84.82687225 -26.07723999 84.06846619 C-25.33254392 81.64953486 -24.58039767 79.23299094 -23.828125 76.81640625 C-23.30299314 75.11610165 -22.77832256 73.41565452 -22.25408936 71.71507263 C-20.87317311 67.23996532 -19.48589143 62.76685606 -18.09729004 58.29412842 C-16.70154628 53.79430765 -15.31202538 49.29256682 -13.921875 44.79101562 C-11.86939174 38.14818272 -9.81461018 31.50606907 -7.75488281 24.86547852 C-7.55001251 24.20464264 -7.34514221 23.54380676 -7.13406372 22.86294556 C-4.7677765 15.23827422 -2.38126681 7.62005379 0 0 Z " fill="#E60011" transform="translate(1320,428)"/>
<path d="M0 0 C60.72 0 121.44 0 184 0 C183.67 0.99 183.34 1.98 183 3 C180.62890625 3.73828125 180.62890625 3.73828125 177.5625 4.3125 C167.00909855 6.73151007 158.53471923 12.42192536 152.37890625 21.3515625 C145.1012271 33.07570398 141.67367029 43.97259503 141.74666691 57.79260731 C141.74356964 58.7298365 141.74047236 59.66706569 141.73728123 60.63269576 C141.72934488 63.76095697 141.73555229 66.88902542 141.74171448 70.01728821 C141.73885852 72.28784325 141.7351198 74.55839733 141.73057598 76.82894963 C141.72060391 83.05949932 141.72296614 89.28999265 141.72730291 95.52054656 C141.72952603 101.5532264 141.72235177 107.58589008 141.71529961 113.61856437 C141.70113649 125.96023742 141.69578573 138.30189902 141.69503975 150.64357948 C141.69385963 167.51155429 141.6786427 184.37949657 141.65954458 201.24745955 C141.65064595 209.11337082 141.64237604 216.97928275 141.63422298 224.84519482 C141.63299636 226.0263408 141.63299636 226.0263408 141.63174495 227.23134832 C141.61241259 245.96778711 141.59886963 264.7042292 141.58666992 283.44067383 C141.58613313 284.26025219 141.58559634 285.07983056 141.58504328 285.92424463 C141.57255556 305.0343955 141.56177437 324.14454678 141.55297852 343.25469971 C141.54990862 349.87821453 141.54681625 356.50172934 141.54370117 363.12524414 C141.54331936 363.94270341 141.54293754 364.76016268 141.54254416 365.60239345 C141.53377249 384.28496094 141.52259349 402.96752149 141.50257015 421.65008068 C141.50130616 422.8297778 141.50130616 422.8297778 141.50001662 424.03330719 C141.49153078 431.88788308 141.48253506 439.74245824 141.47282485 447.59703271 C141.46806389 451.46218677 141.46344831 455.32734099 141.45893669 459.19249535 C141.45760487 460.33342261 141.45760487 460.33342261 141.45624614 461.49739892 C141.44235256 473.70513548 141.43967049 485.91284978 141.44161635 498.12059306 C141.44341736 510.40619107 141.43469704 522.69174461 141.41530795 534.9773278 C141.40513321 541.62491814 141.40009941 548.27243933 141.40807533 554.92004013 C141.41530438 561.01794871 141.40855958 567.11568373 141.39118993 573.21357038 C141.38733817 575.40743649 141.38842612 577.60131872 141.39524681 579.79517762 C141.53625326 629.10062571 125.17741048 673.76433923 90.375 709.0625 C77.03992521 722.29451521 62.26574929 732.68921068 46 742 C45.32565918 742.3913916 44.65131836 742.7827832 43.95654297 743.18603516 C18.45043239 757.86189726 -10.12845455 766.90874171 -39 772 C-39 771.01 -39 770.02 -39 769 C-37.13982102 767.39555757 -35.30657637 765.98244714 -33.3125 764.5625 C-22.11026639 756.24742406 -12.51500758 747.0832684 -4 736 C-3.18917969 734.99324219 -2.37835937 733.98648438 -1.54296875 732.94921875 C25.09937737 699.66040023 42.21616043 653.69101254 42.13142776 610.98012924 C42.13450672 609.51923729 42.13450672 609.51923729 42.13764787 608.02883238 C42.1432961 604.76983943 42.14186332 601.51088905 42.14044189 598.25189209 C42.14302676 595.8898785 42.14604026 593.52786534 42.1494453 591.16585279 C42.15665948 585.35803869 42.15921721 579.5502356 42.15977435 573.74241735 C42.16069019 566.78328214 42.16736415 559.82415537 42.17412117 552.86502381 C42.19015947 536.04922551 42.19608161 519.23342815 42.20086992 502.41762358 C42.20320765 494.46043457 42.20681045 486.50324629 42.2105653 478.54605785 C42.22339775 451.29890855 42.23411809 424.05175965 42.2375679 396.80460739 C42.23778953 395.09515805 42.23801132 393.3857087 42.23823325 391.67625935 C42.23845389 389.96273276 42.23867437 388.24920617 42.2388947 386.53567958 C42.23933725 383.0981679 42.23978437 379.66065621 42.24023438 376.22314453 C42.24034377 375.37084551 42.24045316 374.51854649 42.24056586 373.64042023 C42.24419711 345.99988592 42.26012129 318.35937782 42.28342474 290.71885354 C42.30802759 261.48356783 42.32174091 232.2482971 42.32293582 203.01300073 C42.32310727 199.80308294 42.3233227 196.59316516 42.32357025 193.38324738 C42.32362602 192.59289715 42.32368179 191.80254693 42.32373925 190.9882467 C42.32488916 178.27768834 42.33590585 165.56715692 42.35045731 152.85660766 C42.36483224 140.07926515 42.36805362 127.30195714 42.36001733 114.52460876 C42.35595741 107.60459379 42.35665419 100.68466143 42.37107468 93.76465797 C42.38380091 87.42720216 42.3826271 81.0899051 42.37048396 74.75244954 C42.36852481 72.46246052 42.37161547 70.17246031 42.38032833 67.88248703 C42.45203726 47.75790921 40.7929491 30.47450734 26.38305664 15.09985352 C19.13368276 7.8212532 11.1015449 4.2709102 1 3 C0.505 1.515 0.505 1.515 0 0 Z " fill="#E60011" transform="translate(896,428)"/>
<path d="M0 0 C1.61711796 1.33867381 3.22073118 2.69378159 4.8125 4.0625 C6.24335937 5.29226562 6.24335937 5.29226562 7.703125 6.546875 C24.37005785 21.18656679 36.64863315 38.9322867 45.8125 59.0625 C46.63041016 60.84720703 46.63041016 60.84720703 47.46484375 62.66796875 C62.62995038 98.05321756 62.15299527 139.21282991 48.8125 175.0625 C44.01705908 186.75829071 38.38409827 197.91401325 30.8125 208.0625 C30.24015625 208.84367188 29.6678125 209.62484375 29.078125 210.4296875 C24.66597852 216.27881746 19.80933756 221.70992732 14.8125 227.0625 C14.07515625 227.86558594 13.3378125 228.66867187 12.578125 229.49609375 C-15.02670514 258.44411193 -55.44135271 273.74401165 -94.921875 275.34765625 C-137.39100209 276.35539825 -179.38297682 262.31042783 -210.37109375 232.79296875 C-211.30050781 231.89191406 -212.22992187 230.99085938 -213.1875 230.0625 C-214.08597656 229.19238281 -214.98445313 228.32226562 -215.91015625 227.42578125 C-220.15278785 223.24714107 -224.20842267 218.98089754 -228.078125 214.45703125 C-231.04294917 211.09140677 -234.11809203 207.83262458 -237.1875 204.5625 C-241.27571542 200.20381875 -245.31341594 195.82717887 -249.20703125 191.29296875 C-252.78931496 187.25848355 -256.50965894 183.34925163 -260.21484375 179.42773438 C-262.68145049 176.80560044 -265.06361694 174.22157974 -267.27734375 171.37890625 C-278.46128159 157.8163804 -298.19192312 150.27751428 -315.1875 148.0625 C-337.69373764 146.60033071 -360.43977932 150.66009991 -377.92578125 165.94921875 C-379.04533203 166.99529297 -379.04533203 166.99529297 -380.1875 168.0625 C-381.02667969 168.81144531 -381.86585938 169.56039062 -382.73046875 170.33203125 C-397.63966853 184.29389912 -405.87287705 203.6923653 -406.5925293 224.00439453 C-406.87863057 245.44262946 -398.82516194 265.96068353 -383.84765625 281.48828125 C-369.47311421 294.99989659 -350.12085938 304.32762961 -330.1875 305.0625 C-328.94613281 305.1140625 -327.70476562 305.165625 -326.42578125 305.21875 C-298.53533918 306.0011178 -274.62313332 295.73072719 -254.1875 277.0625 C-253.46046875 276.41796875 -252.7334375 275.7734375 -251.984375 275.109375 C-241.49936292 265.30631493 -233.930812 252.60235527 -227.1875 240.0625 C-226.8575 240.0625 -226.5275 240.0625 -226.1875 240.0625 C-226.00148025 248.64255545 -225.85966625 257.2217576 -225.77300262 265.80333614 C-225.73139033 269.78897155 -225.67502887 273.77321963 -225.58398438 277.75805664 C-225.49654312 281.60964474 -225.44912106 285.45990572 -225.42848206 289.31241035 C-225.41379063 290.77608686 -225.38509987 292.23969716 -225.34165955 293.70280266 C-225.13586211 300.92683357 -225.05929442 306.67014785 -230.05908203 312.37084961 C-231.39984262 313.63985478 -232.7729327 314.87632446 -234.1875 316.0625 C-235.59128906 317.35027344 -235.59128906 317.35027344 -237.0234375 318.6640625 C-239.72831849 320.81964458 -242.44207593 322.95871187 -245.1875 325.0625 C-245.93257812 325.64644531 -246.67765625 326.23039062 -247.4453125 326.83203125 C-275.95155208 348.0378924 -311.69898844 355.09146737 -346.484375 350.48535156 C-379.94634263 345.25087469 -410.59781435 326.99281018 -430.875 299.875 C-440.34528545 286.7270814 -446.87524982 272.65487795 -451.1875 257.0625 C-451.5278125 255.86238281 -451.868125 254.66226562 -452.21875 253.42578125 C-456.4990779 235.09567333 -456.29834096 213.21835035 -451.1875 195.0625 C-450.8471875 193.83402344 -450.506875 192.60554687 -450.15625 191.33984375 C-440.04460538 158.30619391 -417.16347704 131.80989554 -387 115.375 C-356.44888363 99.28472231 -319.35018656 96.34996146 -286.43066406 106.26879883 C-262.59149054 113.8830048 -241.3664878 127.47613218 -225.21875 146.7109375 C-222.3427402 150.04047193 -219.3239448 153.23061987 -216.3125 156.4375 C-211.63636134 161.42562593 -207.01038074 166.44950006 -202.453125 171.546875 C-199.25854591 175.09395936 -196.01956252 178.59929138 -192.77124023 182.09716797 C-190.27406671 184.78862326 -187.79560042 187.49186796 -185.36328125 190.2421875 C-166.06551628 211.97702368 -141.10450324 224.79817376 -112.1875 228.0625 C-77.4759535 230.1095912 -47.66761839 219.63486379 -21.6640625 196.8515625 C-2.98415182 179.22034856 9.19974879 152.59461405 10.1484375 126.93359375 C10.58550209 95.7651248 1.69846822 68.77901708 -20.05200195 45.74194336 C-41.46706425 23.7923212 -69.03113244 13.90453633 -99.1875 12.0625 C-100.19039062 11.9903125 -101.19328125 11.918125 -102.2265625 11.84375 C-132.97287379 10.70147218 -162.64533334 25.21323681 -184.69140625 45.63671875 C-203.21787391 63.64131408 -217.07597817 86.49213446 -225.1875 111.0625 C-225.8475 111.0625 -226.5075 111.0625 -227.1875 111.0625 C-227.46683531 100.59624094 -227.67940047 90.13088296 -227.80924606 79.66164112 C-227.8716023 74.79887591 -227.95601221 69.93867938 -228.09277344 65.07739258 C-228.22418466 60.37628587 -228.29511495 55.67763167 -228.32602692 50.97482872 C-228.34802211 49.19051206 -228.39097681 47.40631404 -228.45626068 45.62305641 C-228.76010405 36.97095628 -228.87392751 30.08821871 -222.98250961 23.29397869 C-220.49641481 20.73440571 -217.88572066 18.39901885 -215.1875 16.0625 C-214.00700352 14.8371553 -212.83752977 13.60056772 -211.69921875 12.3359375 C-195.63778977 -4.3392164 -175.69500569 -16.54781347 -154.1875 -24.9375 C-153.011875 -25.39898437 -151.83625 -25.86046875 -150.625 -26.3359375 C-99.9659976 -44.66649758 -41.9312513 -32.61319546 0 0 Z " fill="#E60011" transform="translate(1302.1875,38.9375)"/>
<path d="M0 0 C60.39 0 120.78 0 183 0 C182.67 0.99 182.34 1.98 182 3 C179.6640625 3.703125 179.6640625 3.703125 176.625 4.25 C165.8247732 6.7384133 157.32092284 12.93200943 151 22 C145.34981024 31.7370859 141.67792422 40.83856461 141.74273109 52.2101469 C141.73747198 53.39579155 141.73747198 53.39579155 141.73210663 54.60538861 C141.72282448 57.24624868 141.72770769 59.88688669 141.73257446 62.52775574 C141.7288366 64.44342916 141.72423453 66.35910107 141.71884382 68.27477056 C141.70661524 73.53334712 141.70687413 78.79186005 141.70923257 84.05044758 C141.70964077 89.72410189 141.69860123 95.39773581 141.68911743 101.07138062 C141.67250708 112.18528766 141.66700786 123.2991735 141.66589268 134.41309192 C141.66494219 143.44788113 141.66083187 152.48266334 141.65449142 161.51745033 C141.63974439 182.96793642 141.62744171 204.41841561 141.62848854 225.86890697 C141.6285197 226.55468103 141.62855086 227.24045508 141.62858296 227.94701017 C141.62874917 231.42265546 141.62894725 234.89830074 141.62915237 238.37394603 C141.62919226 239.06419869 141.62923215 239.75445135 141.62927325 240.46562076 C141.62935413 241.8614799 141.62943772 243.25733904 141.62952404 244.65319818 C141.63074925 266.36526112 141.61574082 288.07726157 141.58837891 309.78930664 C141.55763683 334.19351014 141.54047304 358.59766215 141.54230535 383.0018881 C141.54296917 395.91926335 141.53748014 408.83656814 141.51594925 421.75392723 C141.49773406 432.75249631 141.49339295 443.75096296 141.5069681 454.74954059 C141.51349604 460.35924155 141.51362098 465.96874603 141.4962616 471.57842827 C141.48051848 476.71876757 141.48340742 481.8587548 141.50082986 486.99908558 C141.503897 488.85371039 141.50027823 490.70836156 141.48910971 492.56295528 C141.3894379 510.29548429 144.70701467 525.35447422 157.1875 538.875 C164.50055309 545.73955239 173.20356181 549.3672603 183 551 C183 551.66 183 552.32 183 553 C122.61 553 62.22 553 0 553 C0 552.34 0 551.68 0 551 C1.21623047 550.79697266 1.21623047 550.79697266 2.45703125 550.58984375 C14.99901151 548.15153094 24.5996882 542.56069866 32 532 C40.89122816 517.20513946 42.44896728 503.08609942 42.38768005 486.19487 C42.39185904 484.31001637 42.39733965 482.42516527 42.40399987 480.54031879 C42.41839907 475.39001025 42.41422706 470.2398625 42.40683305 465.08954537 C42.40208995 459.52362021 42.41462135 453.95772927 42.42485046 448.39181519 C42.44202164 437.49882438 42.44288192 426.6058913 42.43763756 415.71289047 C42.43359136 406.85606606 42.43504477 397.99925867 42.44038582 389.14243507 C42.44150845 387.24949635 42.44150845 387.24949635 42.44265376 385.31831643 C42.44418529 382.75439907 42.44572364 380.19048171 42.44726873 377.62656436 C42.45709303 360.41940179 42.46126598 343.21224737 42.45364285 326.00508404 C42.45334567 325.3328786 42.4530485 324.66067317 42.45274232 323.96809787 C42.45029364 318.51009243 42.44768192 313.05208707 42.44505819 307.59408172 C42.43495836 286.31081942 42.44330908 265.02763605 42.46655273 243.74438477 C42.49265574 219.80449906 42.50541558 195.8646672 42.49836498 171.92476207 C42.49487566 159.25943954 42.4970859 146.59418178 42.51461601 133.92886925 C42.52935486 123.14679395 42.5299514 112.36482905 42.5125451 101.58275589 C42.50404653 96.08606597 42.50185772 90.58957312 42.51719666 85.0928936 C42.53108765 80.05251118 42.52622398 75.01249385 42.50695742 69.9721323 C42.50321061 68.15730983 42.50608094 66.3424578 42.51656907 64.52766176 C42.61020214 47.07267801 39.89770221 32.40779209 29.75 17.75 C21.3070585 9.3070585 11.38959406 4.97119845 0 2 C0 1.34 0 0.68 0 0 Z " fill="#E50012" transform="translate(1108,428)"/>
</svg>
