<?xml version="1.0" encoding="UTF-8"?>
<svg version="1.1" xmlns="http://www.w3.org/2000/svg" width="2560" height="330">
<path d="M0 0 C0.76781799 0.09710266 1.53563599 0.19420532 2.32672119 0.29425049 C83.53962498 10.58280963 178.80344321 33.99005468 231.68969727 101.71923828 C246.96056994 122.22343332 255.34263626 146.93620476 252.3125 172.5625 C248.4384489 197.29274404 236.01858084 217.02629472 219 235 C218.24203125 235.81082031 217.4840625 236.62164062 216.703125 237.45703125 C189.96130356 265.20385578 152.81710695 283.22762013 116.97802734 295.94287109 C115.06390696 296.62233832 113.15250242 297.30953261 111.24462891 298.00634766 C39.76810455 324.06023391 -39.45298318 330.75515504 -246 301 C-246.87495117 300.73251953 -247.74990234 300.46503906 -248.65136719 300.18945312 C-300.76118687 284.12242241 -358.01327457 254.35939856 -384.5625 204.25 C-395.08218105 183.81069839 -397.89466869 159.5656326 -391.1953125 137.359375 C-382.34100376 112.47471646 -367.95048079 92.17366733 -347 76 C-345.72992991 74.99156368 -344.46043429 73.98240358 -343.19140625 72.97265625 C-291.80032082 32.44795134 -228.59809539 14.42322637 -165 4 C-163.84806152 3.80567383 -162.69612305 3.61134766 -161.50927734 3.41113281 C-153.69238179 2.10203413 -145.86351447 0.98928085 -138 0 C-136.84854492 -0.15098145 -135.69708984 -0.30196289 -134.51074219 -0.45751953 C-90.8618768 -5.92690291 -43.6106834 -5.66977386 0 0 Z M-103 39 C-104.07507813 39.92425781 -104.07507813 39.92425781 -105.171875 40.8671875 C-122.18579161 56.72415778 -137.70598375 84.90745675 -139.21484375 108.3359375 C-139.43973032 116.77368162 -138.75728517 123.5066464 -134.3125 130.75 C-124.90499583 139.9032473 -113.96070819 140.46281136 -101.40625 140.42944336 C-37.539751 139.15869139 41.85544826 101.65833981 91.875 64.5625 C92.54740723 64.06637207 93.21981445 63.57024414 93.91259766 63.05908203 C98.65545228 59.6433048 98.65545228 59.6433048 102 55 C101.49428679 52.43594292 101.49428679 52.43594292 100 50 C91.0505789 44.72516966 79.41661308 42.8834767 69.375 40.5625 C68.55252777 40.37023834 67.73005554 40.17797668 66.88265991 39.97988892 C27.3398843 30.77196063 -13.23755169 24.92483739 -53.87963867 24.64990234 C-55.67013492 24.63328294 -57.46056324 24.60591483 -59.25073242 24.56787109 C-76.87291683 24.19823111 -89.37846296 27.25042858 -103 39 Z M-197 37.4375 C-198.26585937 37.70191895 -199.53171875 37.96633789 -200.8359375 38.23876953 C-250.01815142 48.75434311 -301.15210127 67.74840013 -338 103 C-338.69351563 103.64195313 -339.38703125 104.28390625 -340.1015625 104.9453125 C-353.90305265 118.10735137 -365.89019528 138.04428303 -367.23828125 157.42578125 C-367.69754828 181.4768706 -357.96730696 200.69999718 -341.42041016 217.97949219 C-324.29087527 235.77640611 -324.29087527 235.77640611 -302.5078125 245.140625 C-296.04499753 242.20115152 -292.90470122 231.99055537 -289.97265625 225.88671875 C-289.2742437 224.44798149 -289.2742437 224.44798149 -288.5617218 222.98017883 C-287.57050272 220.93821829 -286.58103679 218.89540591 -285.59320068 216.85180664 C-283.01595673 211.5240569 -280.42076656 206.20508149 -277.82421875 200.88671875 C-277.3155426 199.84474335 -276.80686646 198.80276794 -276.28277588 197.72921753 C-266.52612647 177.77705408 -256.1366539 158.21791019 -245 139 C-244.4652002 138.07348633 -243.93040039 137.14697266 -243.37939453 136.19238281 C-224.99594321 104.41756187 -204.21720234 74.38232428 -180.671875 46.21484375 C-179.93453125 45.31894531 -179.1971875 44.42304687 -178.4375 43.5 C-177.44556641 42.30890625 -177.44556641 42.30890625 -176.43359375 41.09375 C-174.71752009 39.01035988 -174.71752009 39.01035988 -175 36 C-181.37817951 32.81091025 -190.46484986 36.07222037 -197 37.4375 Z M155 83 C153.71069805 85.2104093 153.71069805 85.2104093 152.6875 87.671875 C152.26210938 88.62610352 151.83671875 89.58033203 151.3984375 90.56347656 C150.93695312 91.6150293 150.47546875 92.66658203 150 93.75 C138.55741478 119.15107218 126.08182567 144.23792132 112.40087891 168.51025391 C110.90411928 171.17040633 109.42626859 173.84057703 107.94921875 176.51171875 C96.60322175 196.92718097 84.57630042 216.98261419 71 236 C69.96477744 237.46870326 68.92962417 238.93745537 67.89453125 240.40625 C60.65732092 250.61061861 52.99670971 260.38283492 45 270 C43.28879011 272.0601672 41.58081899 274.12285177 39.875 276.1875 C39.19179688 277.00605469 38.50859375 277.82460938 37.8046875 278.66796875 C35.97194579 281.03625187 34.37040572 283.33532222 33 286 C33.33 286.66 33.66 287.32 34 288 C40.54568557 288.16496183 46.57018233 287.63988122 53 286.4375 C54.42179565 286.17296021 54.42179565 286.17296021 55.87231445 285.90307617 C67.44828493 283.64759976 78.72870782 280.44470952 90 277 C91.08974121 276.66871094 92.17948242 276.33742188 93.30224609 275.99609375 C126.98064202 265.61985345 160.9577799 251.08814758 188 228 C188.81855469 227.30390625 189.63710938 226.6078125 190.48046875 225.890625 C207.37347693 211.11906436 221.85553778 191.81822144 225 169 C226.47717225 146.93928006 218.76685209 128.3784005 204.54003906 111.73925781 C196.56733293 102.73520605 188.0396797 94.44270578 178.4375 87.1875 C177.47432861 86.4593811 177.47432861 86.4593811 176.49169922 85.71655273 C171.81613765 82.31453554 167.1076638 79.50589876 161.3125 78.5625 C158.13953026 79.16279157 157.11797883 80.60176128 155 83 Z M-130.5947876 207.13555908 C-132.7883122 207.92391874 -134.98393298 208.70589489 -137.18115234 209.48388672 C-153.20279054 215.16358153 -168.72560301 221.53240698 -184 229 C-185.03398926 229.50402344 -186.06797852 230.00804687 -187.13330078 230.52734375 C-205.79457282 239.71055601 -224.37713809 250.09355117 -240 264 C-240.57363281 264.50144531 -241.14726562 265.00289063 -241.73828125 265.51953125 C-243.31763717 267.05650456 -243.31763717 267.05650456 -243.0625 270 C-242.28587029 273.21268831 -242.28587029 273.21268831 -239.35595703 274.56152344 C-236.00582004 275.99750534 -232.75804114 277.05865861 -229.2421875 278.015625 C-228.59421707 278.1922316 -227.94624664 278.3688382 -227.27864075 278.55079651 C-225.14651801 279.1267704 -223.01137455 279.69001284 -220.875 280.25 C-220.13335602 280.44564545 -219.39171204 280.64129089 -218.62759399 280.84286499 C-174.11944612 292.5160551 -128.02819807 299.03965071 -82 299.4375 C-80.91292755 299.45568787 -80.91292755 299.45568787 -79.80389404 299.47424316 C-62.357872 299.72467647 -49.57359668 294.3953882 -36.71484375 282.734375 C-29.16255201 275.12775023 -23.25478401 267.79804605 -18.3125 258.25 C-17.75578613 257.19522461 -17.19907227 256.14044922 -16.62548828 255.05371094 C-9.13724011 240.72013387 -2.86751111 227.15356436 -2.5625 210.75 C-2.54010254 210.00524414 -2.51770508 209.26048828 -2.49462891 208.49316406 C-2.52261162 201.86862477 -4.59528986 196.85433031 -8.859375 191.79296875 C-39.1414442 166.07823643 -99.16366332 195.80749127 -130.5947876 207.13555908 Z " fill="#003884" transform="translate(394,3)"/>
<path d="M0 0 C1.96411687 0.00092087 3.92823473 0.00051535 5.89235115 -0.00109577 C11.11271271 -0.00176808 16.33286448 0.01551394 21.55317688 0.03673553 C26.46669109 0.05392611 31.38015641 0.05463061 36.29370117 0.0567627 C50.62698049 0.07245266 64.96022148 0.11433646 79.29345703 0.15307617 C127.37033203 0.24588867 127.37033203 0.24588867 176.41845703 0.34057617 C176.41845703 85.15057617 176.41845703 169.96057617 176.41845703 257.34057617 C157.60845703 257.34057617 138.79845703 257.34057617 119.41845703 257.34057617 C119.41845703 233.25057617 119.41845703 209.16057617 119.41845703 184.34057617 C77.83845703 184.34057617 36.25845703 184.34057617 -6.58154297 184.34057617 C-6.58154297 208.43057617 -6.58154297 232.52057617 -6.58154297 257.34057617 C-25.39154297 257.34057617 -44.20154297 257.34057617 -63.58154297 257.34057617 C-63.64935798 229.95826756 -63.70458182 202.57602733 -63.73697948 175.19365597 C-63.75242452 162.47851993 -63.77346878 149.76343992 -63.80786133 137.04833984 C-63.83783611 125.96118953 -63.85713513 114.8740798 -63.86380845 103.78689009 C-63.86770703 97.92056314 -63.8768198 92.05435228 -63.89873314 86.18806267 C-63.91922604 80.65676471 -63.92535106 75.12562972 -63.92086601 69.59429741 C-63.92168552 67.57360445 -63.92757432 65.55290555 -63.93915939 63.53224564 C-64.03492134 45.95452222 -63.36107885 28.03911532 -51.51123047 13.86401367 C-37.42570318 0.38431551 -18.31477583 -0.11332003 0 0 Z M-2.51904297 54.09057617 C-6.05567271 59.66344727 -6.83251852 64.94973744 -6.80859375 71.46923828 C-6.80883482 72.15402284 -6.80907589 72.83880739 -6.80932426 73.54434299 C-6.80784521 75.73567288 -6.79267822 77.92665183 -6.77685547 80.11791992 C-6.77391065 81.48091468 -6.77187291 82.8439117 -6.77075195 84.20690918 C-6.76031547 89.23066626 -6.73239294 94.25437476 -6.70654297 99.27807617 C-6.66529297 110.51870117 -6.62404297 121.75932617 -6.58154297 133.34057617 C34.99845703 133.34057617 76.57845703 133.34057617 119.41845703 133.34057617 C119.41845703 105.29057617 119.41845703 77.24057617 119.41845703 48.34057617 C100.08741544 48.25328124 100.08741544 48.25328124 80.75634766 48.1940918 C72.86899746 48.17617638 64.981752 48.15500909 57.09448242 48.11425781 C50.73376761 48.08160043 44.37316517 48.06370956 38.01237297 48.05594444 C35.58875701 48.05041243 33.16514702 48.03960978 30.74157906 48.023386 C27.34019935 48.00152743 23.93928073 47.99861284 20.5378418 48 C19.54161804 47.98921417 18.54539429 47.97842834 17.51898193 47.96731567 C10.37148285 47.99874261 2.58597839 48.50625081 -2.51904297 54.09057617 Z " fill="#003983" transform="translate(2272.58154296875,35.659423828125)"/>
<path d="M0 0 C46.2825 -0.12375 46.2825 -0.12375 93.5 -0.25 C103.22146484 -0.28641602 112.94292969 -0.32283203 122.95898438 -0.36035156 C134.88378906 -0.37841797 134.88378906 -0.37841797 140.47668457 -0.3817749 C144.36024222 -0.38548254 148.24357835 -0.4003961 152.1270752 -0.42230225 C157.09791061 -0.44996562 162.06842906 -0.45792318 167.0393343 -0.4522891 C168.85289446 -0.45346528 170.66646698 -0.46126204 172.47996044 -0.47686052 C189.43621157 -0.61580025 206.82383044 1.23946949 219.875 13.3125 C231.82037384 26.28666202 233.30531307 43.08992943 233.2746582 59.87597656 C233.27901304 61.46062966 233.28419874 63.04528066 233.29014587 64.62992859 C233.30346632 68.90908958 233.30412218 73.18816186 233.30158257 77.46733952 C233.30050781 81.05285745 233.30540927 84.6383578 233.310188 88.22387195 C233.32125984 96.69141646 233.32173415 105.15891661 233.31567383 113.62646484 C233.30963989 122.32992457 233.32193564 131.0332224 233.3432439 139.73665452 C233.36092363 147.23681099 233.36685112 154.73691622 233.36360615 162.23709273 C233.36180278 166.70427212 233.36433388 171.17133609 233.37832069 175.6384964 C233.39099812 179.84441242 233.38886242 184.05007831 233.37590981 188.25599098 C233.37356562 189.78849946 233.3762 191.3210261 233.38453293 192.85351372 C233.48159202 212.11121785 229.85373581 229.77583495 216.125 243.93359375 C202.99962933 256.23862876 187.46503524 257.44948159 170.40161133 257.34057617 C168.50794588 257.33965582 166.61427941 257.34005993 164.72061443 257.34167194 C159.67617998 257.34234573 154.63196155 257.3250321 149.58757782 257.30384064 C144.84398257 257.28668175 140.10043832 257.28594727 135.35681152 257.28381348 C121.50867937 257.26810799 107.66058691 257.22622424 93.8125 257.1875 C62.854375 257.125625 31.89625 257.06375 0 257 C0 172.19 0 87.38 0 0 Z M57 48 C57 100.47 57 152.94 57 207 C81.9975 207.0928125 81.9975 207.0928125 107.5 207.1875 C112.75228516 207.21481201 118.00457031 207.24212402 123.41601562 207.27026367 C128.14471141 207.28030007 128.14471141 207.28030007 132.87341309 207.28633118 C134.9714143 207.2909228 137.06940784 207.30144263 139.1673584 207.31672668 C142.35454965 207.33877534 145.54125921 207.34171502 148.72851562 207.34057617 C149.65530373 207.3513705 150.58209183 207.36216482 151.53696442 207.37328625 C158.57637066 207.33975147 164.21598744 206.289077 169.8125 201.6875 C174.55063141 195.86636713 176.11510957 190.29651623 176.14044189 182.91035461 C176.14615204 181.90823441 176.15186218 180.9061142 176.15774536 179.87362671 C176.15886322 178.78522491 176.15998108 177.69682312 176.16113281 176.57543945 C176.16609772 175.42034378 176.17106262 174.26524811 176.17617798 173.07514954 C176.19078012 169.2545207 176.19759877 165.4339334 176.203125 161.61328125 C176.2074239 159.62628953 176.21172334 157.63929781 176.2160995 155.65230626 C176.22790025 150.11491777 176.23544403 144.57753928 176.2388947 139.0401395 C176.24336948 131.90029221 176.26089463 124.76063694 176.2898953 117.620848 C176.31158246 112.08772405 176.32160276 106.55465385 176.32293582 101.02148789 C176.32397907 97.72356809 176.33125218 94.42586904 176.34775543 91.127985 C176.36488094 87.44235472 176.36291935 83.75718754 176.35644531 80.0715332 C176.3656601 78.99325256 176.37487488 77.91497192 176.3843689 76.80401611 C176.34167851 69.01417765 175.35680596 61.87189551 171.25 55.125 C166.17846599 50.33521788 160.66222873 47.87106688 153.68463135 47.87974548 C152.83107182 47.87836799 151.97751228 47.87699049 151.09808731 47.87557125 C150.16627514 47.87916936 149.23446297 47.88276747 148.27441406 47.88647461 C147.27280117 47.88635407 146.27118828 47.88623354 145.23922348 47.88610935 C141.99800137 47.88685556 138.75683682 47.89447055 135.515625 47.90234375 C133.51416044 47.90381407 131.51269549 47.90483423 129.51123047 47.90539551 C122.09081445 47.91063792 114.67040666 47.92459911 107.25 47.9375 C82.37625 47.9684375 82.37625 47.9684375 57 48 Z " fill="#003883" transform="translate(1921,36)"/>
<path d="M0 0 C18.81 0 37.62 0 57 0 C57 33.33 57 66.66 57 101 C97.92 101 138.84 101 181 101 C181 67.67 181 34.34 181 0 C199.48 0 217.96 0 237 0 C237 84.81 237 169.62 237 257 C218.52 257 200.04 257 181 257 C181 222.68 181 188.36 181 153 C140.08 153 99.16 153 57 153 C57 187.32 57 221.64 57 257 C38.19 257 19.38 257 0 257 C0 172.19 0 87.38 0 0 Z " fill="#003883" transform="translate(784,36)"/>
<path d="M0 0 C47.8603125 -0.0928125 47.8603125 -0.0928125 96.6875 -0.1875 C106.74951904 -0.21481201 116.81153809 -0.24212402 127.1784668 -0.27026367 C139.49768066 -0.28381348 139.49768066 -0.28381348 145.27107239 -0.28633118 C149.28971866 -0.28911783 153.30824516 -0.30032719 157.32685852 -0.31672668 C162.46422411 -0.33741166 167.6014173 -0.34345363 172.73882067 -0.33921683 C174.61712823 -0.34010185 176.49544226 -0.3459867 178.37371385 -0.35764539 C193.54989196 -0.44741579 207.26824068 0.00344317 218.96484375 10.81640625 C233.08771277 25.5961529 231.14975161 48.60951631 231.11352539 67.52612305 C231.11324296 69.59668476 231.11340234 71.66724657 231.1139679 73.73780823 C231.1142537 79.33202861 231.10839201 84.92622735 231.10139394 90.52044272 C231.09512432 96.37673059 231.09455375 102.23301899 231.09336853 108.08930969 C231.09026583 119.16706269 231.08206679 130.24480577 231.07201904 141.32255441 C231.06082489 153.93925494 231.05533914 166.55595596 231.05032361 179.17266023 C231.03988326 205.11511358 231.02155101 231.05755334 231 257 C212.19 257 193.38 257 174 257 C173.98018066 251.23611816 173.96036133 245.47223633 173.93994141 239.53369141 C173.8730497 220.49477068 173.795509 201.45590434 173.71247292 182.4170475 C173.66238604 170.87325994 173.61594265 159.32947934 173.578125 147.78564453 C173.54514758 137.72212879 173.50528461 127.6586677 173.45720994 117.59521234 C173.43200214 112.26844998 173.410204 106.9417236 173.39665604 101.61491776 C173.38378375 96.59659909 173.3616739 91.5784042 173.33261681 86.56015396 C173.32358133 84.72282758 173.31786026 82.88548128 173.31578636 81.04813385 C174.03835597 65.66281678 174.03835597 65.66281678 168.625 51.9375 C164.9594663 49.23198703 162.01305692 48.87929593 157.53277588 48.84178162 C156.2020574 48.82712058 156.2020574 48.82712058 154.84445572 48.81216335 C153.8751701 48.8063931 152.90588448 48.80062284 151.90722656 48.79467773 C150.34533411 48.77962865 150.34533411 48.77962865 148.75188828 48.76427555 C145.38148981 48.73289444 142.01107959 48.70812087 138.640625 48.68359375 C136.55972917 48.66518996 134.47883713 48.64635326 132.39794922 48.6270752 C124.68201093 48.5586333 116.9660001 48.49857682 109.25 48.4375 C92.0075 48.293125 74.765 48.14875 57 48 C57 116.97 57 185.94 57 257 C38.19 257 19.38 257 0 257 C0 172.19 0 87.38 0 0 Z " fill="#003984" transform="translate(1636,36)"/>
<path d="M0 0 C18.81 0 37.62 0 57 0 C57 68.64 57 137.28 57 208 C118.81063312 218.46308883 118.81063312 218.46308883 170 203.0625 C175.0833284 192.57813518 173.16665585 178.01656044 173.20532227 166.54174805 C173.21492195 164.71719146 173.22493318 162.89263699 173.23532104 161.06808472 C173.26215002 156.15373575 173.28327746 151.2393774 173.30332303 146.32499671 C173.32531979 141.1747214 173.35264095 136.02447429 173.37937927 130.8742218 C173.42912233 121.13882082 173.4741287 111.40340404 173.51740164 101.66797239 C173.56693203 90.57717404 173.62179112 79.486404 173.67708123 68.3956331 C173.7906187 45.59711395 173.89681504 22.79856852 174 0 C192.48 0 210.96 0 230 0 C230.06782431 27.8865731 230.12304424 55.773079 230.15543652 83.65971375 C230.17087922 96.60911012 230.19191898 109.55845146 230.22631836 122.5078125 C230.25630033 133.79969731 230.27559386 145.09154225 230.28226548 156.38346577 C230.28616286 162.35769401 230.29526783 168.33180821 230.31719017 174.30599976 C230.33769447 179.93989702 230.34380583 185.57363427 230.33932304 191.20756531 C230.34014205 193.26492688 230.34602396 195.32229433 230.35761642 197.37962341 C230.45217942 215.04217375 230.32499447 234.13100955 217.6875 248 C209.45768317 255.43396641 198.21997074 257.32551704 187.47679138 257.24050903 C186.2675853 257.24307709 186.2675853 257.24307709 185.03395081 257.24569702 C182.35123569 257.24898109 179.66877589 257.23800368 176.98608398 257.22705078 C175.02257578 257.22643754 173.05906713 257.22670607 171.09555912 257.2277813 C165.85422861 257.2282314 160.61299008 257.21666947 155.37168121 257.20256042 C150.44704408 257.19114068 145.52242892 257.19063256 140.59777832 257.18920898 C126.21100678 257.17872909 111.82425221 257.15080665 97.4375 257.125 C49.2059375 257.063125 49.2059375 257.063125 0 257 C0 172.19 0 87.38 0 0 Z " fill="#003884" transform="translate(1351,36)"/>
<path d="M0 0 C61.2267196 -7.36218569 61.2267196 -7.36218569 75.69433594 3.62548828 C84.47579307 12.06131298 89.60533903 23.58793529 94.52911377 34.54957581 C99.41258015 45.39850585 105.91728094 54.85840542 112.75363159 64.55575562 C115.79393323 68.88972913 118.74366593 73.28379359 121.69921875 77.67578125 C122.7750386 79.26526484 123.85104274 80.85462371 124.92724609 82.44384766 C128.32432119 87.47129403 131.68863974 92.52042052 135.03483582 97.5818634 C136.84006059 100.43022257 136.84006059 100.43022257 139 103 C139.95132812 101.46472656 139.95132812 101.46472656 140.921875 99.8984375 C147.52544762 89.31081084 154.36248414 78.88914642 161.30371094 68.52099609 C170.51209461 54.76521863 179.61716991 40.94242721 188.71118164 27.11083984 C205.64961732 1.35038268 205.64961732 1.35038268 207 0 C209.14743549 -0.09425595 211.29801026 -0.11742648 213.44750977 -0.11352539 C214.12065216 -0.11367142 214.79379456 -0.11381744 215.48733521 -0.1139679 C217.72205784 -0.11326878 219.9566981 -0.10547652 222.19140625 -0.09765625 C223.73697362 -0.09579206 225.28254157 -0.09436816 226.82810974 -0.09336853 C230.90357077 -0.0895434 234.97899637 -0.07971317 239.05444336 -0.06866455 C243.21011882 -0.05845032 247.36579999 -0.05387089 251.52148438 -0.04882812 C259.68100587 -0.03809089 267.84049853 -0.02101454 276 0 C272.86664722 5.81121667 269.54044824 11.39473482 265.84375 16.86328125 C265.35315598 17.59570541 264.86256195 18.32812958 264.35710144 19.08274841 C263.29686769 20.66508426 262.23510944 22.24639951 261.17196655 23.82678223 C258.24897515 28.17240246 255.33774284 32.52589054 252.42578125 36.87890625 C251.81620071 37.78965912 251.20662018 38.70041199 250.5785675 39.63876343 C244.49941113 48.73031195 238.49195607 57.86845428 232.48773193 67.00958252 C220.41674694 85.38473611 208.22124224 103.67141738 195.8430481 121.84132385 C194.72334304 123.50218715 193.61804827 125.17284671 192.52658081 126.85240173 C189.64420545 131.26044616 186.68537405 135.44360226 183.28136349 139.46893692 C165.24966934 160.96526193 165.44228575 181.92491333 166.23181152 209.10253906 C166.3921119 215.47963231 166.40594437 221.85868455 166.44567108 228.23744965 C166.52115267 237.8308627 166.77692309 247.40381328 167 257 C148.19 257 129.38 257 110 257 C110.26425781 250.79703125 110.52851562 244.5940625 110.80078125 238.203125 C114.05425933 177.56954589 114.05425933 177.56954589 85.73944092 126.2412262 C85.10105286 125.56647751 84.46266479 124.89172882 83.80493164 124.1965332 C76.95286252 116.8550228 71.55598586 108.3343275 66 100 C65.1693251 98.75701645 65.1693251 98.75701645 64.3218689 97.48892212 C60.92279229 92.39002749 57.55747584 87.2695531 54.2046814 82.14013672 C41.57222827 62.8207099 28.73163207 43.64682686 15.7959137 24.52952576 C13.19602245 20.68719697 10.59742481 16.84399647 8 13 C7.33656586 12.01894287 7.33656586 12.01894287 6.659729 11.01806641 C5.49587205 9.29500791 4.33567032 7.569482 3.17578125 5.84375 C2.55227783 4.91755859 1.92877441 3.99136719 1.28637695 3.03710938 C0 1 0 1 0 0 Z " fill="#003884" transform="translate(1048,36)"/>
<path d="M0 0 C18.48 0 36.96 0 56 0 C56 84.81 56 169.62 56 257 C37.52 257 19.04 257 0 257 C0 172.19 0 87.38 0 0 Z " fill="#003984" transform="translate(2504,36)"/>
</svg>
