<?xml version="1.0" encoding="UTF-8"?>
<svg version="1.1" xmlns="http://www.w3.org/2000/svg" width="2560" height="1174">
<path d="M0 0 C1.44705322 0.72268066 1.44705322 0.72268066 2.92333984 1.45996094 C36.04758933 18.06628278 67.71031959 39.04948862 96 63 C97.04251137 63.86903855 98.08550528 64.73749848 99.12890625 65.60546875 C105.64026644 71.0433684 111.97261868 76.64059976 118.19140625 82.41015625 C120.63855306 84.6667047 123.12251038 86.8680091 125.625 89.0625 C130.64135467 93.56498419 135.41383075 98.30475907 140.1875 103.0625 C140.94820801 103.81861572 141.70891602 104.57473145 142.49267578 105.35375977 C146.63815499 109.51054565 150.61684396 113.75389518 154.44750977 118.20239258 C156.53702449 120.62181339 158.70588469 122.96445094 160.875 125.3125 C165.79181449 130.71656638 170.46285127 136.27518587 175 142 C175.76570312 142.96486328 175.76570312 142.96486328 176.546875 143.94921875 C242.24776302 226.99636926 283.20692597 326.1524583 295 444 C295.08685059 445.1741748 295.17370117 446.34834961 295.26318359 447.55810547 C296.11841134 459.94883006 296.2419809 472.33325382 296.25 484.75 C296.25100708 485.84138275 296.25201416 486.9327655 296.25305176 488.05722046 C296.24060095 508.16692981 295.26104601 528.02066336 293 548 C292.85546387 549.28551758 292.71092773 550.57103516 292.56201172 551.89550781 C281.70778278 644.66731172 246.06437262 735.23520835 190 810 C189.54109375 810.61198242 189.0821875 811.22396484 188.609375 811.85449219 C181.1223497 821.79131621 173.24916926 831.40128845 165.1875 840.875 C164.75066895 841.39118896 164.31383789 841.90737793 163.86376953 842.43920898 C154.36931423 853.52724477 144.19942762 863.98717574 133.8815918 874.30371094 C131.93053259 876.25697528 129.98766164 878.21815254 128.04492188 880.1796875 C121.72469542 886.5275438 115.38875688 892.60086754 108.33276367 898.13476562 C105.90754494 900.07392535 103.64143736 902.12853894 101.375 904.25 C94.31299312 910.66697318 86.63232824 916.28813618 79 922 C78.22382324 922.58507324 77.44764648 923.17014648 76.64794922 923.77294922 C65.7231423 932.00199534 54.63114111 939.80111412 43 947 C42.23107422 947.47646973 41.46214844 947.95293945 40.66992188 948.44384766 C-31.55600888 992.96165834 -110.70240964 1019.6035203 -195 1029 C-196.0327002 1029.12004395 -197.06540039 1029.24008789 -198.12939453 1029.36376953 C-235.58763626 1033.54240298 -274.60340629 1032.38171918 -312 1028 C-313.26408691 1027.85546387 -314.52817383 1027.71092773 -315.83056641 1027.56201172 C-370.66470245 1021.11723431 -424.86778389 1006.17184634 -475 983 C-476.06025391 982.51321777 -477.12050781 982.02643555 -478.21289062 981.52490234 C-519.59773579 962.41306347 -559.15119702 938.51960072 -594 909 C-595.06605475 908.10765282 -596.13248115 907.21574952 -597.19921875 906.32421875 C-603.05064173 901.41946237 -608.82188438 896.44235543 -614.46582031 891.29858398 C-616.04530461 889.86593999 -617.63186444 888.44101105 -619.22900391 887.02807617 C-625.58113579 881.39762488 -631.63649177 875.51831339 -637.6237793 869.5065918 C-639.1927236 867.93225845 -640.76698558 866.36338411 -642.34179688 864.79492188 C-647.77210633 859.36856454 -653.02862335 853.85394455 -658 848 C-659.04490353 846.80816452 -660.09176718 845.61804455 -661.140625 844.4296875 C-667.89145381 836.7290041 -674.41461405 828.90286937 -680.640625 820.77148438 C-681.99070178 819.01211707 -683.35440336 817.26393777 -684.71875 815.515625 C-697.99619245 798.32463677 -710.28954077 779.89990432 -721 761 C-721.37995117 760.33339355 -721.75990234 759.66678711 -722.15136719 758.97998047 C-724.71340746 754.47017223 -727.22529189 749.93496218 -729.70410156 745.37890625 C-730.56087767 743.8061055 -731.42213656 742.2357376 -732.28808594 740.66796875 C-768.80709224 674.38968192 -788.20685352 599.13780221 -794 524 C-794.07057617 523.1558252 -794.14115234 522.31165039 -794.21386719 521.44189453 C-801.16782853 436.65139762 -785.19308543 346.56590431 -736 238 C-735.55188965 237.09975098 -735.1037793 236.19950195 -734.64208984 235.27197266 C-717.84605855 201.78570204 -697.1093814 169.23601821 -672.5078125 140.90625 C-670.1292427 138.14977658 -667.83969364 135.34037057 -665.5625 132.5 C-660.78675203 126.6345983 -655.66204162 121.1294134 -650.49658203 115.60986328 C-649.06726853 114.0723603 -647.6535126 112.52238728 -646.24609375 110.96484375 C-637.65501504 101.47338998 -628.84981667 92.09049566 -619.078125 83.796875 C-616.9191349 81.93007905 -614.82447007 80.00109099 -612.7331543 78.05908203 C-606.685115 72.44761736 -600.45845345 67.13879652 -594 62 C-593.48775879 61.58814453 -592.97551758 61.17628906 -592.44775391 60.75195312 C-517.7208799 0.68139257 -428.51486174 -38.52157513 -286 -59 C-285.16726563 -59.05784668 -284.33453125 -59.11569336 -283.4765625 -59.17529297 C-203.92596104 -64.4608909 -122.58766894 -51.5369742 0 0 Z " fill="#A50034" transform="translate(837,101)"/>
<path d="M0 0 C1.28922363 0.16628906 2.57844727 0.33257812 3.90673828 0.50390625 C40.75077731 5.27724232 77.59267109 14.49557125 111 31 C111.92264648 31.45246094 112.84529297 31.90492188 113.79589844 32.37109375 C137.11413829 43.90131888 158.22287333 57.9278353 177 76 C177.62841797 76.60118652 178.25683594 77.20237305 178.90429688 77.82177734 C188.10531766 86.66874142 196.36003481 95.78221439 204 106 C204.77859375 106.89332031 205.5571875 107.78664063 206.359375 108.70703125 C206.90078125 109.46371094 207.4421875 110.22039062 208 111 C206.9254319 114.22370429 206.3944369 114.74568921 203.875 116.8125 C199.66846559 120.37594911 195.6417117 124.1013154 191.625 127.875 C186.63564783 132.55251766 181.61001328 137.17931044 176.51171875 141.73828125 C171.8582295 145.92859272 167.27312358 150.19346168 162.67773438 154.44726562 C153.31709736 163.11048614 143.92780911 171.74199919 134.52050781 180.35449219 C133.53071706 181.26076731 132.54105287 182.16718069 131.55151367 183.07373047 C130.56255361 183.97950697 129.57313626 184.88478444 128.58325195 185.78955078 C125.89520865 188.24952567 123.22261422 190.72440587 120.56640625 193.21875 C119.99204834 193.7557251 119.41769043 194.2927002 118.82592773 194.84594727 C117.72706668 195.8741481 116.63129474 196.90566485 115.53930664 197.94116211 C112.20962415 201.05003352 108.83514413 203.57870751 105 206 C104.51273438 205.37996094 104.02546875 204.75992188 103.5234375 204.12109375 C93.77142799 191.93994732 83.47383346 180.45042245 71 171 C70.08089844 170.26523437 69.16179688 169.53046875 68.21484375 168.7734375 C60.29029368 162.56605104 51.89872115 157.644709 43 153 C42.39849121 152.68289063 41.79698242 152.36578125 41.17724609 152.0390625 C-11.12405993 124.8650284 -84.0803586 125.37573438 -139.32006836 142.44238281 C-149.38592111 145.71055255 -158.736893 149.90932311 -168 155 C-169.56427734 155.82951172 -169.56427734 155.82951172 -171.16015625 156.67578125 C-206.37391578 176.11526115 -228.11885175 211.64246771 -239.2734375 249.41943359 C-260.96754914 326.4714363 -263.86023559 436.1789377 -224 508 C-214.77035011 523.70934748 -203.76362725 538.15700405 -189 549 C-188.01644531 549.73605469 -187.03289063 550.47210937 -186.01953125 551.23046875 C-158.13310614 571.35719296 -123.99569831 580.41278794 -90 583 C-88.90945313 583.08540039 -87.81890625 583.17080078 -86.6953125 583.25878906 C-77.50188928 583.93024589 -68.34418306 584.24209999 -59.125 584.25 C-58.40066772 584.25067474 -57.67633545 584.25134949 -56.93005371 584.25204468 C-18.55614712 584.19628986 21.97554619 579.50917018 58 566 C58.33 525.74 58.66 485.48 59 444 C15.11 444 -28.78 444 -74 444 C-74 400.44 -74 356.88 -74 312 C19.72 312 113.44 312 210 312 C210.72596428 397.63241659 210.72596428 397.63241659 210.87890625 433.38867188 C210.9141473 441.57284185 210.95051579 449.75700563 210.98876953 457.94116211 C210.99351701 458.96689557 210.99826449 459.99262904 211.00315583 461.04944533 C211.08141883 477.60375318 211.22331054 494.15693423 211.38875033 510.71057419 C211.55715301 527.70255346 211.65707278 544.69394342 211.69359291 561.68672293 C211.71827829 572.17075483 211.79619108 582.65160343 211.9424964 593.13465508 C212.03774156 600.32603029 212.06638322 607.51576329 212.04302479 614.70772324 C212.03150468 618.85698836 212.04897611 623.00070019 212.14569855 627.14897346 C212.68326865 651.377207 212.68326865 651.377207 208.23398924 657.38436484 C204.04498008 661.1583692 199.43606168 663.37178967 194.14925075 665.21967351 C191.1965507 666.2917076 188.57620311 667.82160762 185.87890625 669.41796875 C184.11152297 670.35021132 182.3394106 671.27354783 180.5625 672.1875 C179.59207764 672.68813965 178.62165527 673.1887793 177.62182617 673.70458984 C168.59655121 678.30037722 159.45692387 682.37955593 150 686 C148.9996875 686.38365723 147.999375 686.76731445 146.96875 687.16259766 C93.86700585 707.29115843 37.55117804 717.96617619 -19 722 C-20.30380615 722.09498779 -21.6076123 722.18997559 -22.95092773 722.2878418 C-36.72629877 723.21234172 -50.5115405 723.19986491 -64.3125 723.1875 C-65.55699921 723.18689575 -66.80149841 723.1862915 -68.08370972 723.18566895 C-86.13680761 723.16186005 -104.03888178 722.98120123 -122 721 C-123.23782227 720.86577637 -124.47564453 720.73155273 -125.75097656 720.59326172 C-187.86203346 713.6501713 -249.23977523 696.14282261 -299 657 C-300.31291016 655.97712891 -300.31291016 655.97712891 -301.65234375 654.93359375 C-370.20977053 600.26886139 -398.92722391 515.48337393 -409 431 C-409.08463501 430.30461121 -409.16927002 429.60922241 -409.25646973 428.89276123 C-414.74785781 383.32773246 -414.70676264 334.51881147 -409 289 C-408.86078125 287.80987305 -408.7215625 286.61974609 -408.578125 285.39355469 C-401.41875435 225.01951009 -383.53238827 162.7656735 -346 114 C-345.02546875 112.72769531 -345.02546875 112.72769531 -344.03125 111.4296875 C-342.06041202 108.91767679 -340.04221137 106.4543333 -338 104 C-337.58057129 103.49033691 -337.16114258 102.98067383 -336.72900391 102.45556641 C-325.6845338 89.07347516 -313.76105441 76.61736525 -300 66 C-299.0203125 65.21496094 -298.040625 64.42992187 -297.03125 63.62109375 C-249.36191228 25.67561278 -190.39867221 8.40382569 -131 0 C-129.71270996 -0.18224121 -128.42541992 -0.36448242 -127.09912109 -0.55224609 C-86.09593827 -5.97223804 -40.93227161 -5.6681461 0 0 Z " fill="#6A6B6A" transform="translate(2308,224)"/>
<path d="M0 0 C54.12 0 108.24 0 164 0 C164 187.11 164 374.22 164 567 C275.21 567 386.42 567 501 567 C501 612.87 501 658.74 501 706 C335.67 706 170.34 706 0 706 C0 473.02 0 240.04 0 0 Z " fill="#6A6C6A" transform="translate(1376,231)"/>
<path d="M0 0 C0 13.53 0 27.06 0 41 C-6.3525 41.0825 -12.705 41.165 -19.25 41.25 C-39.36249997 41.64201615 -59.08238317 43.2412781 -79 46 C-80.10214844 46.14808105 -81.20429687 46.29616211 -82.33984375 46.44873047 C-141.80427499 54.63929305 -200.84685211 77.50292433 -250 112 C-250.53995605 112.37688965 -251.07991211 112.7537793 -251.63623047 113.14208984 C-265.35702306 122.73853498 -278.43327061 132.93332784 -291 144 C-291.91652344 144.80308594 -292.83304688 145.60617187 -293.77734375 146.43359375 C-300.28620098 152.27008696 -306.51661138 158.39027252 -312.72167969 164.54644775 C-314.14381295 165.95667858 -315.56989288 167.36292595 -316.99609375 168.76904297 C-323.10302276 174.86833832 -328.62258739 181.25479915 -334 188 C-334.86349653 189.02745904 -335.73189014 190.05086764 -336.609375 191.06640625 C-353.10922436 210.3061941 -366.6977917 231.89809888 -379 254 C-379.67264893 255.205354 -379.67264893 255.205354 -380.35888672 256.43505859 C-396.51504134 285.64645663 -408.11166442 316.62430132 -416 349 C-416.54414104 351.19404261 -417.08841518 353.38805221 -417.6328125 355.58203125 C-418.17313443 357.78354544 -418.71222648 359.98536191 -419.25 362.1875 C-419.49637207 363.19022949 -419.74274414 364.19295898 -419.99658203 365.22607422 C-422.62103305 376.15372962 -424.2360634 387.16060709 -425.5625 398.3125 C-425.68818359 399.32505859 -425.81386719 400.33761719 -425.94335938 401.38085938 C-427.74364126 416.37692469 -428.24013404 431.28877527 -428.25 446.375 C-428.25067474 447.31208801 -428.25134949 448.24917603 -428.25204468 449.21466064 C-428.22068769 476.88558933 -425.47895208 503.83948463 -420 531 C-419.79568359 532.02367676 -419.59136719 533.04735352 -419.38085938 534.10205078 C-409.98839624 579.83440105 -390.98606095 624.70462434 -366 664 C-365.37279053 664.9895166 -365.37279053 664.9895166 -364.73291016 665.99902344 C-354.62841101 681.81652914 -343.3804766 696.89719851 -331 711 C-330.05060547 712.09828125 -330.05060547 712.09828125 -329.08203125 713.21875 C-327.4009234 715.15760207 -325.70195555 717.07944466 -324 719 C-323.39671875 719.69609375 -322.7934375 720.3921875 -322.171875 721.109375 C-317.13109223 726.84278441 -311.82503557 732.28071906 -306.4375 737.6875 C-305.72932129 738.400271 -305.02114258 739.11304199 -304.29150391 739.84741211 C-299.6900549 744.43553749 -294.93348137 748.77289304 -290 753 C-289.03578125 753.845625 -288.0715625 754.69125 -287.078125 755.5625 C-267.59599284 772.35372993 -246.50808206 786.60681624 -224.36474609 799.60986328 C-222.89609184 800.47322456 -221.42980275 801.34063909 -219.96728516 802.21435547 C-133.66564726 853.73605331 -26.23534758 864.77791863 81.546875 841.88354492 C102.9313689 836.27946797 123.72896165 828.79169116 144 820 C144.83112305 819.64615234 145.66224609 819.29230469 146.51855469 818.92773438 C185.31550418 802.38041946 220.41714849 778.79593886 252 751 C252.9384375 750.175 253.876875 749.35 254.84375 748.5 C267.57486794 737.05629848 280.51085779 725.0891684 291.01953125 711.5390625 C292.89460334 709.13512392 294.86001115 706.83348792 296.86303711 704.53588867 C313.25339386 685.64701952 326.50173827 664.26776024 338.62597656 642.46923828 C339.4820415 640.93081596 340.34258953 639.39486909 341.20996094 637.86279297 C352.22975969 618.37026951 360.38898901 597.57781308 367.4375 576.375 C367.68271393 575.63889496 367.92792786 574.90278992 368.18057251 574.14437866 C373.18011176 559.05079688 377.75644284 543.84384231 380.625 528.1875 C380.93401245 526.52714722 380.93401245 526.52714722 381.24926758 524.83325195 C381.84900767 521.55811066 382.430217 518.28047569 383 515 C383.15742676 514.09378906 383.31485352 513.18757812 383.47705078 512.25390625 C386.13187123 496.52252374 386.89640222 481.00216782 388 465 C296.92 465 205.84 465 112 465 C112 451.47 112 437.94 112 424 C216.94 424 321.88 424 430 424 C430 482.04940439 430 482.04940439 427.3137207 499.91339111 C426.95910824 502.27197795 426.61365807 504.63184574 426.26757812 506.99169922 C416.43968792 573.39392563 394.62710577 636.9494658 357 693 C356.58959473 693.61617187 356.17918945 694.23234375 355.75634766 694.8671875 C343.52588969 713.17840304 329.97094441 730.3540593 315.1484375 746.6328125 C313.76505648 748.15704686 312.39414979 749.69274506 311.0390625 751.2421875 C306.04043055 756.93028593 300.78152945 762.32441773 295.4375 767.6875 C294.72916016 768.40043213 294.02082031 769.11336426 293.29101562 769.84790039 C288.68946761 774.4361214 283.93090265 778.76994929 279 783 C277.91712476 783.94955922 276.83504838 784.90003049 275.75390625 785.8515625 C251.42530186 807.07334091 224.67278456 825.49462507 196.25048828 840.78662109 C194.00288755 841.99844314 191.76515026 843.22723691 189.52734375 844.45703125 C168.87223783 855.6944373 147.29118792 864.33134631 125.0703125 871.94238281 C122.45480599 872.84333496 119.8507815 873.76860889 117.25 874.7109375 C97.7091799 881.68707539 77.29385334 885.81250121 56.875 889.25 C55.83101044 889.42825317 55.83101044 889.42825317 54.76593018 889.61010742 C49.52246716 890.49629159 44.26832074 891.27678827 39 892 C37.55441208 892.19965866 37.55441208 892.19965866 36.07962036 892.40335083 C18.43563151 894.7704859 1.00488367 895.53281717 -16.78839111 895.44683075 C-18.85022254 895.43732611 -20.91202847 895.4325014 -22.97387695 895.42828369 C-45.16080517 895.36712846 -67.06674634 894.52057483 -89 891 C-89.68076599 890.89109436 -90.36153198 890.78218872 -91.06292725 890.66998291 C-177.33277544 876.66988385 -258.00921853 837.98210745 -322.62890625 779.15234375 C-324.16663754 777.75647894 -325.7155623 776.37280903 -327.27734375 775.00390625 C-332.77081293 770.1685565 -338.00447349 765.10088031 -343.1875 759.9375 C-344.18547607 758.94641235 -344.18547607 758.94641235 -345.20361328 757.93530273 C-349.0730494 754.05384376 -352.76528775 750.06818228 -356.3449707 745.91821289 C-357.87806673 744.14132316 -359.43347862 742.38802842 -361 740.640625 C-426.34928049 667.10375673 -467.66531858 566.38128261 -469.53369141 418.19897461 C-469.15179493 412.78371631 -468.6020745 407.3947668 -468 402 C-467.85318696 400.63183628 -467.70637723 399.26367219 -467.55957031 397.89550781 C-465.59874721 379.96181166 -462.72679415 362.37061723 -458.5625 344.8125 C-458.38153778 344.04360443 -458.20057556 343.27470886 -458.01412964 342.48251343 C-455.62426 332.43673754 -452.69010903 322.66410449 -449.32299805 312.90332031 C-448.18939011 309.60920105 -447.18890361 306.29305986 -446.25 302.9375 C-440.20657299 283.19728963 -431.22994111 264.41117541 -422 246 C-421.53980469 245.07703125 -421.07960938 244.1540625 -420.60546875 243.203125 C-405.1449058 212.37110896 -385.50411496 184.08668658 -363 158 C-362.04287109 156.89011719 -362.04287109 156.89011719 -361.06640625 155.7578125 C-359.38877489 153.82834271 -357.69567606 151.91362695 -356 150 C-355.37569092 149.29085449 -354.75138184 148.58170898 -354.1081543 147.85107422 C-348.58084498 141.63180525 -342.82753889 135.67205945 -336.93383789 129.8034668 C-335.43193075 128.30695075 -333.93548938 126.805117 -332.43945312 125.30273438 C-327.13347118 119.99232303 -321.74946472 114.83326308 -316 110 C-315.35603271 109.454646 -314.71206543 108.90929199 -314.04858398 108.34741211 C-283.55050343 82.6780381 -250.6006484 61.87518807 -215 44 C-213.7919873 43.38898438 -213.7919873 43.38898438 -212.55957031 42.765625 C-199.45460738 36.18033639 -185.76057619 31.03667214 -172 26 C-170.54859619 25.46608643 -170.54859619 25.46608643 -169.06787109 24.92138672 C-140.90182642 14.69300056 -111.60594597 8.29435567 -82 4 C-80.83742676 3.8246875 -79.67485352 3.649375 -78.47705078 3.46875 C-52.34643091 -0.40723811 -26.35754511 -0.18053113 0 0 Z " fill="#FEFDFD" transform="translate(610,139)"/>
<path d="M0 0 C13.86 0 27.72 0 42 0 C42 138.27 42 276.54 42 419 C78.63 419 115.26 419 153 419 C153 432.53 153 446.06 153 460 C102.51 460 52.02 460 0 460 C0 308.2 0 156.4 0 0 Z " fill="#FDFAFB" transform="translate(568,356)"/>
<path d="M0 0 C1.44632812 -0.01836914 1.44632812 -0.01836914 2.921875 -0.03710938 C18.71045692 -0.06928719 34.20273207 6.59737846 45.875 17.25 C53.17730645 25.06258811 58.98992036 35.0290198 62.25 45.1875 C62.6625 46.38375 63.075 47.58 63.5 48.8125 C67.29225757 65.98108429 62.48506001 84.59679181 53.25 99.1875 C43.76575024 112.15985464 30.28181386 121.29775587 14.51953125 124.79296875 C-4.46466516 127.08377381 -21.15491997 125.0207134 -36.75 113.1875 C-47.62655386 104.58557155 -54.00110026 95.14695168 -58.75 82.1875 C-59.07097656 81.42308594 -59.39195312 80.65867187 -59.72265625 79.87109375 C-65.00785532 65.73625902 -62.09981392 49.25826483 -56.3125 35.859375 C-48.11815939 19.23431858 -34.93893718 8.37957901 -17.5625 2.09765625 C-11.57594194 0.16033955 -6.2737335 0.00412746 0 0 Z " fill="#FEFDFE" transform="translate(420.75,354.8125)"/>
</svg>
