<svg version="1.1" id="Layer_1" xmlns="http://www.w3.org/2000/svg" xmlns:xlink="http://www.w3.org/1999/xlink" x="0px" y="0px"
	 width="100%" viewBox="0 0 600 150" enable-background="new 0 0 600 150" xml:space="preserve">
<path fill="#242AE0" opacity="1.000000" stroke="none" 
	d="
M552.000000,151.000015 
	C384.979095,151.000000 217.958206,151.000000 50.750637,150.679977 
	C50.078876,149.938370 49.662338,149.319336 49.098824,149.123718 
	C27.563812,141.648132 12.983915,126.904610 4.003246,106.220520 
	C3.330522,104.671112 2.016114,103.400314 1.000001,102.000000 
	C1.000000,84.979103 1.000000,67.958214 1.307792,50.769432 
	C1.982116,50.267487 2.538430,50.002220 2.688009,49.589527 
	C10.916115,26.887901 26.122501,11.129103 48.947456,2.869946 
	C49.457119,2.685526 49.656097,1.642509 50.000000,1.000000 
	C217.020889,1.000000 384.041779,1.000000 551.230530,1.307771 
	C552.046875,2.070931 552.633057,2.713938 553.353333,2.953461 
	C563.619629,6.367366 572.705811,12.080238 580.474609,19.279320 
	C588.932007,27.116556 595.145447,36.874859 598.991394,47.947521 
	C599.275452,48.765553 600.312866,49.321960 601.000000,50.000000 
	C601.000000,67.020897 601.000000,84.041786 600.679932,101.249359 
	C599.937927,101.923782 599.307556,102.343864 599.124023,102.909027 
	C592.021912,124.786224 577.032532,139.118454 556.246033,147.992020 
	C554.686768,148.657654 553.408752,149.981934 552.000000,151.000015 
M13.980914,89.510880 
	C16.584738,101.675011 22.365122,112.243149 30.806875,121.220558 
	C45.565544,136.915695 64.874054,141.778976 85.355385,141.874680 
	C155.336670,142.201691 225.320435,141.999969 295.303253,141.999969 
	C297.073242,141.999969 298.843262,141.999969 300.613525,141.999969 
	C300.613525,97.661972 300.613525,53.957623 300.613525,10.000009 
	C298.242188,10.000009 296.256165,9.992144 294.270172,10.001144 
	C221.016815,10.333123 147.762970,10.591388 74.510689,11.084814 
	C64.064774,11.155177 54.103809,14.449032 45.095573,19.586983 
	C29.210949,28.646961 19.467777,42.689934 14.438428,60.105839 
	C11.708420,69.559456 10.420001,79.079788 13.980914,89.510880 
M450.082275,100.354324 
	C455.125702,110.739853 464.390778,105.951721 473.346588,107.209900 
	C465.921783,97.467453 459.263489,88.730782 452.530548,79.896156 
	C454.138458,78.990692 455.003967,78.530098 455.843536,78.026260 
	C462.955414,73.758278 466.533630,66.312729 464.893951,57.694725 
	C463.540894,50.583073 458.139435,47.009659 451.603638,45.371292 
	C448.608398,44.620457 445.318817,45.067207 442.164978,44.921215 
	C432.953094,44.494789 423.742401,44.043385 414.338318,43.592525 
	C414.338318,65.233505 414.338318,85.942978 414.338318,106.580765 
	C419.733185,106.580765 424.782654,106.580765 430.212372,106.580765 
	C430.212372,98.890129 430.212372,91.614746 430.212372,84.454185 
	C435.787537,83.051422 439.589539,84.202881 442.286102,89.381752 
	C444.229858,93.114838 447.332703,96.244400 450.082275,100.354324 
M342.863220,94.823044 
	C342.482452,89.676834 342.101685,84.530624 341.674927,78.763275 
	C351.391205,78.763275 360.115845,78.763275 368.685181,78.763275 
	C368.685181,74.575745 368.685181,70.977142 368.685181,66.812592 
	C359.657410,66.812592 350.931305,66.812592 342.288696,66.812592 
	C342.288696,62.961102 342.288696,59.696899 342.288696,55.861168 
	C351.953766,55.861168 361.344299,55.861168 370.736145,55.861168 
	C370.736145,51.677444 370.736145,48.081825 370.736145,44.337902 
	C355.763702,44.337902 341.057068,44.337902 326.406586,44.337902 
	C326.406586,65.382523 326.406586,86.086647 326.406586,106.700104 
	C341.405457,106.700104 355.996002,106.700104 370.620605,106.700104 
	C370.620605,102.682693 370.620605,98.973351 370.620605,94.965622 
	C361.431000,94.965622 352.618622,94.965622 342.863220,94.823044 
M523.068359,58.966705 
	C525.221924,57.321358 527.256409,54.485329 529.551636,54.255642 
	C536.228210,53.587513 543.112183,53.185257 549.278503,57.046200 
	C551.685608,58.553371 554.215393,59.864506 556.999878,61.440723 
	C556.999878,59.839409 556.995056,58.677757 557.000610,57.516155 
	C557.048828,47.420765 557.135437,46.963535 546.867554,45.031162 
	C535.597717,42.910221 524.472534,42.610512 514.208618,49.828472 
	C505.131653,56.211723 505.739807,71.745598 514.937134,76.894791 
	C518.167603,78.703400 521.810608,79.864838 525.375732,80.963364 
	C529.884460,82.352654 534.548523,83.235809 539.063782,84.606689 
	C542.042786,85.511116 544.998352,87.518333 543.773254,90.882217 
	C542.904114,93.268906 540.259949,96.211304 537.988403,96.630196 
	C533.517395,97.454697 528.523865,97.554230 524.168640,96.383339 
	C518.261780,94.795288 512.751282,91.732758 507.002869,89.273628 
	C507.002869,92.736404 506.842529,96.409882 507.095123,100.054733 
	C507.176849,101.233833 508.095184,103.032150 509.049011,103.371346 
	C521.936401,107.954384 535.001526,109.294205 547.985352,103.934265 
	C555.029724,101.026207 559.829590,93.469559 559.451660,87.038879 
	C558.944336,78.407249 555.406372,73.925613 546.178833,71.016716 
	C540.129517,69.109703 533.957092,67.567825 527.788330,66.074829 
	C524.308899,65.232719 522.811218,63.227982 523.068359,58.966705 
z"/>
<path fill="#000000" opacity="1.000000" stroke="none" 
	d="
M49.531342,1.000000 
	C49.656097,1.642509 49.457119,2.685526 48.947456,2.869946 
	C26.122501,11.129103 10.916115,26.887901 2.688009,49.589527 
	C2.538430,50.002220 1.982116,50.267487 1.307792,50.300774 
	C1.000000,33.739925 1.000000,17.479853 1.000000,1.000000 
	C17.020226,1.000000 33.041454,1.000000 49.531342,1.000000 
z"/>
<path fill="#000000" opacity="1.000000" stroke="none" 
	d="
M1.000001,102.468658 
	C2.016114,103.400314 3.330522,104.671112 4.003246,106.220520 
	C12.983915,126.904610 27.563812,141.648132 49.098824,149.123718 
	C49.662338,149.319336 50.078876,149.938370 50.281979,150.679977 
	C33.739925,151.000000 17.479853,151.000000 1.000000,151.000000 
	C1.000000,134.979782 1.000000,118.958549 1.000001,102.468658 
z"/>
<path fill="#000000" opacity="1.000000" stroke="none" 
	d="
M601.000000,49.531342 
	C600.312866,49.321960 599.275452,48.765553 598.991394,47.947521 
	C595.145447,36.874859 588.932007,27.116556 580.474609,19.279320 
	C572.705811,12.080238 563.619629,6.367366 553.353333,2.953461 
	C552.633057,2.713938 552.046875,2.070931 551.699219,1.307771 
	C568.260071,1.000000 584.520142,1.000000 601.000000,1.000000 
	C601.000000,17.020226 601.000000,33.041454 601.000000,49.531342 
z"/>
<path fill="#000000" opacity="1.000000" stroke="none" 
	d="
M552.468628,151.000015 
	C553.408752,149.981934 554.686768,148.657654 556.246033,147.992020 
	C577.032532,139.118454 592.021912,124.786224 599.124023,102.909027 
	C599.307556,102.343864 599.937927,101.923782 600.679932,101.718018 
	C601.000000,118.260071 601.000000,134.520142 601.000000,151.000000 
	C584.979797,151.000000 568.958557,151.000000 552.468628,151.000015 
z"/>
<path fill="#000000" opacity="1.000000" stroke="none" 
	d="
M13.934256,89.091209 
	C10.420001,79.079788 11.708420,69.559456 14.438428,60.105839 
	C19.467777,42.689934 29.210949,28.646961 45.095573,19.586983 
	C54.103809,14.449032 64.064774,11.155177 74.510689,11.084814 
	C147.762970,10.591388 221.016815,10.333123 294.270172,10.001144 
	C296.256165,9.992144 298.242188,10.000009 300.613525,10.000009 
	C300.613525,53.957623 300.613525,97.661972 300.613525,141.999969 
	C298.843262,141.999969 297.073242,141.999969 295.303253,141.999969 
	C225.320435,141.999969 155.336670,142.201691 85.355385,141.874680 
	C64.874054,141.778976 45.565544,136.915695 30.806875,121.220558 
	C22.365122,112.243149 16.584738,101.675011 13.934256,89.091209 
M233.628815,79.845093 
	C233.262344,80.912483 232.895874,81.979881 232.391983,83.447510 
	C231.777145,82.260933 231.226395,81.582832 231.061005,80.821060 
	C228.674194,69.827438 226.291962,58.832291 224.026138,47.813339 
	C223.484940,45.181423 222.487167,43.787689 219.483734,43.939899 
	C214.865234,44.173962 210.226135,44.001457 205.632172,44.001457 
	C205.816391,45.661823 205.798813,47.023960 206.133850,48.292999 
	C210.460800,64.681168 214.797287,81.067062 219.217941,97.430138 
	C221.808395,107.018776 221.877823,107.000023 231.848145,106.999985 
	C233.347153,106.999977 234.876068,106.808525 236.339310,107.037262 
	C240.069183,107.620338 241.634293,105.935150 242.340454,102.402390 
	C243.329849,97.452698 244.708511,92.576775 246.026291,87.697838 
	C247.646103,81.700661 249.374710,75.732880 251.417465,68.467880 
	C254.774918,80.713791 257.872742,91.510452 260.637756,102.391693 
	C261.512573,105.834373 262.872620,107.457169 266.641144,107.074493 
	C270.103149,106.722939 273.640808,106.821335 277.123108,107.052734 
	C280.207397,107.257683 281.338318,106.014732 282.082703,103.065613 
	C284.714661,92.638275 287.763641,82.317078 290.533234,71.923325 
	C292.979156,62.744442 295.263123,53.522408 297.658966,44.161766 
	C291.528076,44.161766 286.055267,44.161766 280.316986,44.161766 
	C277.222168,57.233906 274.147736,70.220085 270.796326,84.376068 
	C268.043854,74.199707 265.676819,65.394821 263.276794,56.598934 
	C262.169586,52.541145 262.201019,46.886032 259.526886,44.893898 
	C256.689453,42.780083 251.244507,44.293106 246.959686,43.952713 
	C243.895706,43.709305 242.648499,44.900467 241.937286,47.859024 
	C239.422653,58.319710 236.622818,68.711830 233.628815,79.845093 
M62.853600,57.380482 
	C65.919495,59.130905 68.985390,60.881329 72.993340,63.169601 
	C72.993340,57.507313 73.238914,53.502071 72.853355,49.558533 
	C72.727089,48.267067 71.198494,46.538872 69.907570,46.025635 
	C59.305370,41.810474 48.083084,41.358871 37.409786,44.278667 
	C23.329018,48.130615 17.703745,59.841778 23.971781,72.516998 
	C26.886131,78.410393 32.924133,80.381210 38.829212,81.950111 
	C43.549454,83.204216 48.470562,83.763680 53.105862,85.246300 
	C54.996136,85.850914 57.617306,88.052162 57.649612,89.574875 
	C57.687687,91.369629 55.501373,93.464058 53.846600,94.944740 
	C52.899132,95.792534 51.106720,95.826683 49.668770,95.974266 
	C40.953819,96.868660 33.140965,94.476181 25.990553,89.503403 
	C24.729340,88.626289 23.048473,88.352592 21.173107,87.656006 
	C21.173107,93.612862 21.173107,98.578209 21.173107,103.443787 
	C33.183186,108.914742 45.727360,109.882172 57.992844,106.776237 
	C71.990532,103.231651 76.676743,96.326981 74.854408,82.781914 
	C73.701775,74.214645 66.522598,71.211563 59.276344,69.060936 
	C53.823830,67.442680 48.097492,66.674034 42.750454,64.794785 
	C37.812527,63.059315 37.636513,59.523262 42.051632,56.605225 
	C43.469242,55.668304 45.448616,54.969646 47.094292,55.103668 
	C52.123524,55.513233 57.115452,56.380859 62.853600,57.380482 
M169.463409,96.953918 
	C163.501434,80.363503 157.620590,63.742691 151.436859,47.235344 
	C150.890930,45.778042 148.425385,44.272915 146.749908,44.147659 
	C141.455872,43.751877 136.113586,44.001587 130.471573,44.001587 
	C122.839912,64.825539 115.237732,85.569016 107.387421,106.989563 
	C113.092506,106.989563 117.903610,107.141136 122.691414,106.874443 
	C123.779503,106.813835 125.228722,105.514549 125.748840,104.422165 
	C127.332367,101.096306 127.625542,96.165741 130.147095,94.544655 
	C132.878845,92.788414 137.552597,94.050896 141.379471,94.001572 
	C142.212433,93.990829 143.066605,94.120728 143.875381,93.980492 
	C149.301453,93.039680 152.680374,94.723076 153.405045,100.677933 
	C153.667038,102.830788 154.858337,104.870552 155.533356,106.710602 
	C161.512589,106.710602 167.095474,106.710602 173.080917,106.710602 
	C171.935913,103.425301 170.923248,100.519699 169.463409,96.953918 
z"/>
<path fill="#000000" opacity="1.000000" stroke="none" 
	d="
M450.000427,99.998741 
	C447.332703,96.244400 444.229858,93.114838 442.286102,89.381752 
	C439.589539,84.202881 435.787537,83.051422 430.212372,84.454185 
	C430.212372,91.614746 430.212372,98.890129 430.212372,106.580765 
	C424.782654,106.580765 419.733185,106.580765 414.338318,106.580765 
	C414.338318,85.942978 414.338318,65.233505 414.338318,43.592525 
	C423.742401,44.043385 432.953094,44.494789 442.164978,44.921215 
	C445.318817,45.067207 448.608398,44.620457 451.603638,45.371292 
	C458.139435,47.009659 463.540894,50.583073 464.893951,57.694725 
	C466.533630,66.312729 462.955414,73.758278 455.843536,78.026260 
	C455.003967,78.530098 454.138458,78.990692 452.530548,79.896156 
	C459.263489,88.730782 465.921783,97.467453 473.346588,107.209900 
	C464.390778,105.951721 455.125702,110.739853 450.000427,99.998741 
M448.984497,59.678268 
	C447.089996,58.127129 445.363373,55.591091 443.265411,55.233429 
	C439.118927,54.526535 434.766998,55.024849 430.304932,55.024849 
	C430.304932,61.204998 430.304932,66.897430 430.304932,72.549660 
	C445.911469,74.508904 450.567902,71.441513 448.984497,59.678268 
z"/>
<path fill="#000000" opacity="1.000000" stroke="none" 
	d="
M343.334717,94.894333 
	C352.618622,94.965622 361.431000,94.965622 370.620605,94.965622 
	C370.620605,98.973351 370.620605,102.682693 370.620605,106.700104 
	C355.996002,106.700104 341.405457,106.700104 326.406586,106.700104 
	C326.406586,86.086647 326.406586,65.382523 326.406586,44.337902 
	C341.057068,44.337902 355.763702,44.337902 370.736145,44.337902 
	C370.736145,48.081825 370.736145,51.677444 370.736145,55.861168 
	C361.344299,55.861168 351.953766,55.861168 342.288696,55.861168 
	C342.288696,59.696899 342.288696,62.961102 342.288696,66.812592 
	C350.931305,66.812592 359.657410,66.812592 368.685181,66.812592 
	C368.685181,70.977142 368.685181,74.575745 368.685181,78.763275 
	C360.115845,78.763275 351.391205,78.763275 341.674927,78.763275 
	C342.101685,84.530624 342.482452,89.676834 343.334717,94.894333 
z"/>
<path fill="#000000" opacity="1.000000" stroke="none" 
	d="
M523.041016,59.366737 
	C522.811218,63.227982 524.308899,65.232719 527.788330,66.074829 
	C533.957092,67.567825 540.129517,69.109703 546.178833,71.016716 
	C555.406372,73.925613 558.944336,78.407249 559.451660,87.038879 
	C559.829590,93.469559 555.029724,101.026207 547.985352,103.934265 
	C535.001526,109.294205 521.936401,107.954384 509.049011,103.371346 
	C508.095184,103.032150 507.176849,101.233833 507.095123,100.054733 
	C506.842529,96.409882 507.002869,92.736404 507.002869,89.273628 
	C512.751282,91.732758 518.261780,94.795288 524.168640,96.383339 
	C528.523865,97.554230 533.517395,97.454697 537.988403,96.630196 
	C540.259949,96.211304 542.904114,93.268906 543.773254,90.882217 
	C544.998352,87.518333 542.042786,85.511116 539.063782,84.606689 
	C534.548523,83.235809 529.884460,82.352654 525.375732,80.963364 
	C521.810608,79.864838 518.167603,78.703400 514.937134,76.894791 
	C505.739807,71.745598 505.131653,56.211723 514.208618,49.828472 
	C524.472534,42.610512 535.597717,42.910221 546.867554,45.031162 
	C557.135437,46.963535 557.048828,47.420765 557.000610,57.516155 
	C556.995056,58.677757 556.999878,59.839409 556.999878,61.440723 
	C554.215393,59.864506 551.685608,58.553371 549.278503,57.046200 
	C543.112183,53.185257 536.228210,53.587513 529.551636,54.255642 
	C527.256409,54.485329 525.221924,57.321358 523.041016,59.366737 
z"/>
<path fill="#242AE0" opacity="1.000000" stroke="none" 
	d="
M233.779968,79.487518 
	C236.622818,68.711830 239.422653,58.319710 241.937286,47.859024 
	C242.648499,44.900467 243.895706,43.709305 246.959686,43.952713 
	C251.244507,44.293106 256.689453,42.780083 259.526886,44.893898 
	C262.201019,46.886032 262.169586,52.541145 263.276794,56.598934 
	C265.676819,65.394821 268.043854,74.199707 270.796326,84.376068 
	C274.147736,70.220085 277.222168,57.233906 280.316986,44.161766 
	C286.055267,44.161766 291.528076,44.161766 297.658966,44.161766 
	C295.263123,53.522408 292.979156,62.744442 290.533234,71.923325 
	C287.763641,82.317078 284.714661,92.638275 282.082703,103.065613 
	C281.338318,106.014732 280.207397,107.257683 277.123108,107.052734 
	C273.640808,106.821335 270.103149,106.722939 266.641144,107.074493 
	C262.872620,107.457169 261.512573,105.834373 260.637756,102.391693 
	C257.872742,91.510452 254.774918,80.713791 251.417465,68.467880 
	C249.374710,75.732880 247.646103,81.700661 246.026291,87.697838 
	C244.708511,92.576775 243.329849,97.452698 242.340454,102.402390 
	C241.634293,105.935150 240.069183,107.620338 236.339310,107.037262 
	C234.876068,106.808525 233.347153,106.999977 231.848145,106.999985 
	C221.877823,107.000023 221.808395,107.018776 219.217941,97.430138 
	C214.797287,81.067062 210.460800,64.681168 206.133850,48.292999 
	C205.798813,47.023960 205.816391,45.661823 205.632172,44.001457 
	C210.226135,44.001457 214.865234,44.173962 219.483734,43.939899 
	C222.487167,43.787689 223.484940,45.181423 224.026138,47.813339 
	C226.291962,58.832291 228.674194,69.827438 231.061005,80.821060 
	C231.226395,81.582832 231.777145,82.260933 232.391983,83.447510 
	C232.895874,81.979881 233.262344,80.912483 233.779968,79.487518 
z"/>
<path fill="#242AE0" opacity="1.000000" stroke="none" 
	d="
M62.487747,57.225380 
	C57.115452,56.380859 52.123524,55.513233 47.094292,55.103668 
	C45.448616,54.969646 43.469242,55.668304 42.051632,56.605225 
	C37.636513,59.523262 37.812527,63.059315 42.750454,64.794785 
	C48.097492,66.674034 53.823830,67.442680 59.276344,69.060936 
	C66.522598,71.211563 73.701775,74.214645 74.854408,82.781914 
	C76.676743,96.326981 71.990532,103.231651 57.992844,106.776237 
	C45.727360,109.882172 33.183186,108.914742 21.173107,103.443787 
	C21.173107,98.578209 21.173107,93.612862 21.173107,87.656006 
	C23.048473,88.352592 24.729340,88.626289 25.990553,89.503403 
	C33.140965,94.476181 40.953819,96.868660 49.668770,95.974266 
	C51.106720,95.826683 52.899132,95.792534 53.846600,94.944740 
	C55.501373,93.464058 57.687687,91.369629 57.649612,89.574875 
	C57.617306,88.052162 54.996136,85.850914 53.105862,85.246300 
	C48.470562,83.763680 43.549454,83.204216 38.829212,81.950111 
	C32.924133,80.381210 26.886131,78.410393 23.971781,72.516998 
	C17.703745,59.841778 23.329018,48.130615 37.409786,44.278667 
	C48.083084,41.358871 59.305370,41.810474 69.907570,46.025635 
	C71.198494,46.538872 72.727089,48.267067 72.853355,49.558533 
	C73.238914,53.502071 72.993340,57.507313 72.993340,63.169601 
	C68.985390,60.881329 65.919495,59.130905 62.487747,57.225380 
z"/>
<path fill="#242AE0" opacity="1.000000" stroke="none" 
	d="
M169.686996,97.284012 
	C170.923248,100.519699 171.935913,103.425301 173.080917,106.710602 
	C167.095474,106.710602 161.512589,106.710602 155.533356,106.710602 
	C154.858337,104.870552 153.667038,102.830788 153.405045,100.677933 
	C152.680374,94.723076 149.301453,93.039680 143.875381,93.980492 
	C143.066605,94.120728 142.212433,93.990829 141.379471,94.001572 
	C137.552597,94.050896 132.878845,92.788414 130.147095,94.544655 
	C127.625542,96.165741 127.332367,101.096306 125.748840,104.422165 
	C125.228722,105.514549 123.779503,106.813835 122.691414,106.874443 
	C117.903610,107.141136 113.092506,106.989563 107.387421,106.989563 
	C115.237732,85.569016 122.839912,64.825539 130.471573,44.001587 
	C136.113586,44.001587 141.455872,43.751877 146.749908,44.147659 
	C148.425385,44.272915 150.890930,45.778042 151.436859,47.235344 
	C157.620590,63.742691 163.501434,80.363503 169.686996,97.284012 
M138.878204,66.483650 
	C137.034378,71.861542 135.190552,77.239426 133.340561,82.635330 
	C138.336288,82.635330 142.540146,82.635330 147.030487,82.635330 
	C144.795166,75.930000 142.700287,69.645920 140.429916,62.835449 
	C139.808823,64.078743 139.398010,64.901093 138.878204,66.483650 
z"/>
<path fill="#242AE0" opacity="1.000000" stroke="none" 
	d="
M448.991882,60.076141 
	C450.567902,71.441513 445.911469,74.508904 430.304932,72.549660 
	C430.304932,66.897430 430.304932,61.204998 430.304932,55.024849 
	C434.766998,55.024849 439.118927,54.526535 443.265411,55.233429 
	C445.363373,55.591091 447.089996,58.127129 448.991882,60.076141 
z"/>
<path fill="#000000" opacity="1.000000" stroke="none" 
	d="
M138.932709,66.103546 
	C139.398010,64.901093 139.808823,64.078743 140.429916,62.835449 
	C142.700287,69.645920 144.795166,75.930000 147.030487,82.635330 
	C142.540146,82.635330 138.336288,82.635330 133.340561,82.635330 
	C135.190552,77.239426 137.034378,71.861542 138.932709,66.103546 
z"/>
</svg>