<?xml version="1.0" encoding="UTF-8" standalone="no"?>
<svg xmlns="http://www.w3.org/2000/svg" xmlns:xlink="http://www.w3.org/1999/xlink" xmlns:serif="http://www.serif.com/" width="300" height="200" viewBox="0 0 300 200" version="1.1" xml:space="preserve" style="fill-rule:evenodd;clip-rule:evenodd;stroke-linejoin:round;stroke-miterlimit:2;">
    <g transform="matrix(1,0,0,1,-2800,0)">
        <rect id="Artboard9" x="2800" y="0" width="300" height="200" style="fill:none;"></rect>
        <g id="Artboard91" serif:id="Artboard9">
            <g transform="matrix(0.888889,0,0,0.888889,327.778,11.6377)">
                <g transform="matrix(1.75887,0,0,1.31375,2426.49,-967.626)">
                    <rect x="220.884" y="782.518" width="153.508" height="59.372" style="fill:rgb(238,44,41);"></rect>
                </g>
                <g transform="matrix(1,0,0,1,0.160661,-2.84217e-14)">
                    <g transform="matrix(2,0,0,2,2935.79,101.784)">
                        <path d="M0,-5.415L-1.68,3.361L4.653,3.361L5.352,1.562L1.022,1.562L1.666,-1.962L4.958,-1.962L5.62,-3.761L2.006,-3.761L2.65,-6.978L6.515,-6.978L6.819,-8.776L-0.555,-8.776C0.09,-7.844 0.219,-6.558 0,-5.415" style="fill:white;fill-rule:nonzero;"></path>
                    </g>
                    <g transform="matrix(2,0,0,2,3004.21,108.378)">
                        <path d="M0,-11.955C-0.271,-12.034 -0.588,-12.103 -0.951,-12.161C-1.319,-12.221 -1.714,-12.251 -2.147,-12.255C-2.564,-12.255 -2.976,-12.197 -3.378,-12.089C-3.781,-11.979 -4.157,-11.819 -4.51,-11.61C-4.864,-11.401 -5.177,-11.149 -5.444,-10.853C-5.717,-10.559 -5.929,-10.226 -6.08,-9.853C-6.235,-9.481 -6.313,-9.076 -6.316,-8.639C-6.313,-8.215 -6.239,-7.83 -6.095,-7.483C-5.952,-7.137 -5.764,-6.819 -5.529,-6.533C-5.292,-6.247 -5.033,-5.983 -4.753,-5.741C-4.471,-5.499 -4.19,-5.272 -3.906,-5.057C-3.626,-4.841 -3.368,-4.632 -3.131,-4.425C-2.896,-4.221 -2.708,-4.013 -2.564,-3.802C-2.421,-3.591 -2.347,-3.371 -2.344,-3.132C-2.347,-2.842 -2.412,-2.594 -2.535,-2.39C-2.659,-2.185 -2.821,-2.015 -3.019,-1.889C-3.214,-1.758 -3.427,-1.665 -3.65,-1.605C-3.874,-1.547 -4.088,-1.516 -4.294,-1.516C-4.568,-1.52 -4.843,-1.555 -5.121,-1.625C-5.394,-1.696 -5.656,-1.783 -5.907,-1.884C-6.158,-1.99 -6.382,-2.094 -6.575,-2.198C-6.77,-2.303 -6.924,-2.39 -7.038,-2.461C-7.152,-2.531 -7.207,-2.566 -7.211,-2.569L-7.496,-0.699C-7.494,-0.695 -7.439,-0.662 -7.329,-0.595C-7.219,-0.529 -7.064,-0.444 -6.861,-0.346C-6.662,-0.247 -6.423,-0.15 -6.149,-0.05C-5.872,0.047 -5.57,0.132 -5.239,0.199C-4.908,0.265 -4.556,0.298 -4.186,0.3C-3.61,0.298 -3.072,0.207 -2.57,0.026C-2.067,-0.154 -1.624,-0.409 -1.243,-0.732C-0.862,-1.058 -0.563,-1.443 -0.346,-1.882C-0.131,-2.324 -0.02,-2.809 -0.018,-3.333C-0.02,-3.762 -0.092,-4.15 -0.233,-4.493C-0.371,-4.833 -0.558,-5.142 -0.786,-5.414C-1.016,-5.689 -1.272,-5.944 -1.545,-6.174C-1.822,-6.404 -2.096,-6.625 -2.374,-6.837C-2.648,-7.05 -2.901,-7.264 -3.131,-7.483C-3.362,-7.696 -3.545,-7.927 -3.686,-8.172C-3.826,-8.418 -3.898,-8.687 -3.9,-8.984C-3.898,-9.278 -3.823,-9.538 -3.676,-9.762C-3.531,-9.989 -3.333,-10.165 -3.086,-10.296C-2.839,-10.425 -2.561,-10.49 -2.254,-10.493C-1.974,-10.49 -1.697,-10.456 -1.426,-10.392C-1.153,-10.332 -0.906,-10.258 -0.684,-10.178C-0.461,-10.096 -0.284,-10.023 -0.153,-9.966C-0.018,-9.905 0.051,-9.875 0.053,-9.875L0.859,-11.655C0.855,-11.658 0.781,-11.689 0.633,-11.749C0.481,-11.81 0.272,-11.876 0,-11.955" style="fill:white;fill-rule:nonzero;"></path>
                    </g>
                    <g transform="matrix(2,0,0,2,2979.64,108.506)">
                        <path d="M1.355,-12.137L-1.67,-12.137C-1.137,-11.519 -1.051,-10.437 -1.188,-9.656L-2.242,-3.65L-2.903,-5.05L-7.501,-12.137L-10.407,-12.137C-9.495,-11.597 -9.351,-9.755 -9.544,-8.736L-11.186,0L-8.021,0C-8.787,-0.682 -8.746,-1.977 -8.576,-2.908L-8.266,-4.602L-7.591,-8.285L-6.929,-6.831L-2.278,0L-0.81,0L-0.649,-1.544L1.355,-12.137Z" style="fill:white;fill-rule:nonzero;"></path>
                    </g>
                    <g transform="matrix(2,0,0,2,2888.92,84.1318)">
                        <path d="M0,17.165C-0.545,17.238 -1.115,17.275 -1.702,17.275C-4.022,17.275 -6.186,16.649 -8.002,15.515C-11.142,13.558 -12.363,10.501 -14.014,7.366C-8.259,5.639 -8.765,-1.614 -13.531,-1.614L-17.14,-1.614C-19.138,-1.614 -21.528,-1.492 -23.346,-2.131L-23.386,-2.088C-22.863,-0.418 -19.935,0.084 -18.259,0.116L-14.786,0.116C-10.656,0.183 -11.699,5.692 -16.054,5.641L-17.746,5.641C-16.187,8.992 -14.541,11.881 -12.551,14.389C-9.403,18.357 -3.309,19.296 1.722,16.995L1.695,16.827C1.12,16.981 0.553,17.092 0,17.165" style="fill:white;fill-rule:nonzero;"></path>
                    </g>
                    <g transform="matrix(2,0,0,2,3026.62,107.968)">
                        <path d="M0,-12.05C-0.814,-12.047 -1.556,-11.911 -2.228,-11.642C-2.899,-11.375 -3.494,-11 -4.017,-10.515C-4.535,-10.031 -4.973,-9.464 -5.332,-8.812C-5.689,-8.162 -5.961,-7.449 -6.146,-6.678C-6.33,-5.905 -6.422,-5.1 -6.422,-4.255C-6.422,-3.602 -6.327,-2.986 -6.137,-2.414C-5.946,-1.842 -5.663,-1.338 -5.287,-0.899C-4.912,-0.463 -4.443,-0.121 -3.885,0.127C-3.33,0.376 -2.683,0.499 -1.95,0.505C-1.002,0.499 -0.135,0.308 0.656,-0.073C1.446,-0.451 2.133,-0.992 2.713,-1.69C3.293,-2.389 3.742,-3.22 4.062,-4.178C4.381,-5.139 4.542,-6.199 4.544,-7.362C4.548,-7.747 4.499,-8.15 4.405,-8.577C4.347,-8.84 4.27,-9.057 4.177,-9.306C3.411,-9.131 2.615,-9.023 1.778,-8.999C1.818,-8.912 1.856,-8.821 1.891,-8.725C2.072,-8.234 2.165,-7.665 2.165,-7.017C2.165,-6.475 2.103,-5.93 1.976,-5.385C1.852,-4.839 1.672,-4.322 1.443,-3.828C1.211,-3.334 0.936,-2.895 0.614,-2.511C0.295,-2.124 -0.062,-1.821 -0.457,-1.599C-0.846,-1.375 -1.268,-1.259 -1.718,-1.257C-2.186,-1.259 -2.593,-1.392 -2.94,-1.659C-3.289,-1.923 -3.557,-2.296 -3.752,-2.774C-3.942,-3.256 -4.041,-3.821 -4.043,-4.473C-4.041,-5.257 -3.957,-5.963 -3.798,-6.587C-3.638,-7.211 -3.422,-7.756 -3.153,-8.222C-2.881,-8.689 -2.579,-9.076 -2.242,-9.382C-1.346,-10.204 -0.525,-10.306 0.668,-10.306L0.848,-10.306C3.193,-10.306 5.978,-10.901 7.396,-12.371L7.396,-12.555C6.295,-12.172 4.762,-12.027 0,-12.05" style="fill:white;fill-rule:nonzero;"></path>
                    </g>
                    <g transform="matrix(2,0,0,2,2897.1,104.538)">
                        <path d="M0,-8.115C-0.212,-8.525 -0.495,-8.896 -0.848,-9.229C-1.197,-9.563 -1.628,-9.829 -2.139,-10.03C-2.651,-10.229 -3.255,-10.329 -3.947,-10.335C-4.76,-10.332 -5.502,-10.196 -6.173,-9.927C-6.844,-9.66 -7.44,-9.285 -7.962,-8.8C-8.481,-8.316 -8.92,-7.749 -9.278,-7.097C-9.635,-6.447 -9.906,-5.734 -10.092,-4.963C-10.276,-4.19 -10.369,-3.385 -10.369,-2.54C-10.369,-1.886 -10.273,-1.271 -10.082,-0.699C-9.892,-0.127 -9.609,0.377 -9.232,0.816C-8.858,1.252 -8.388,1.594 -7.831,1.842C-7.277,2.091 -6.629,2.214 -5.896,2.22C-4.948,2.214 -4.08,2.023 -3.29,1.642C-2.5,1.264 -1.813,0.723 -1.232,0.025C-0.653,-0.674 -0.203,-1.505 0.116,-2.463C0.435,-3.424 0.595,-4.484 0.599,-5.647C0.601,-6.032 0.554,-6.435 0.459,-6.862C0.365,-7.285 0.211,-7.703 0,-8.115M-1.969,-3.67C-2.095,-3.124 -2.273,-2.607 -2.503,-2.112C-2.735,-1.619 -3.01,-1.18 -3.332,-0.796C-3.65,-0.409 -4.009,-0.106 -4.402,0.116C-4.793,0.34 -5.213,0.456 -5.663,0.458C-6.131,0.456 -6.54,0.323 -6.886,0.056C-7.235,-0.208 -7.503,-0.581 -7.697,-1.059C-7.888,-1.54 -7.986,-2.106 -7.989,-2.758C-7.986,-3.542 -7.902,-4.248 -7.744,-4.872C-7.584,-5.496 -7.37,-6.041 -7.098,-6.507C-6.826,-6.974 -6.525,-7.361 -6.189,-7.667C-5.851,-7.976 -5.508,-8.209 -5.15,-8.362C-4.796,-8.515 -4.453,-8.591 -4.125,-8.591C-3.623,-8.588 -3.197,-8.446 -2.849,-8.167C-2.5,-7.888 -2.234,-7.503 -2.056,-7.01C-1.873,-6.519 -1.781,-5.95 -1.781,-5.302C-1.781,-4.76 -1.844,-4.215 -1.969,-3.67" style="fill:white;fill-rule:nonzero;"></path>
                    </g>
                    <g transform="matrix(2,0,0,2,2906.2,104.836)">
                        <path d="M0,-8.467L3.758,-8.467L1.789,1.835L5.304,1.835C4.461,1.082 4.535,-0.313 4.731,-1.329L6.102,-8.467L9.483,-8.467L9.823,-10.302L0.359,-10.302L0,-8.467Z" style="fill:white;fill-rule:nonzero;"></path>
                    </g>
                    <g transform="matrix(-0.375213,1.96449,1.96449,0.375213,2981.95,112.763)">
                        <path d="M0.103,-0.908L0.94,-0.908L0.751,0.086L-0.086,0.086L0.103,-0.908Z" style="fill:white;fill-rule:nonzero;"></path>
                    </g>
                    <g transform="matrix(2,0,0,2,2978.51,119.37)">
                        <path d="M0,-1.407L0.433,-1.407L0.013,0.792L1.023,0.792L1.595,-2.199L0.151,-2.199L0,-1.407Z" style="fill:white;fill-rule:nonzero;"></path>
                    </g>
                    <g transform="matrix(2,0,0,2,2974.68,120.954)">
                        <path d="M0,-4.105L-1.039,-4.105L-1.824,0L1.323,0L1.48,-0.821L-0.628,-0.821L0,-4.105Z" style="fill:white;fill-rule:nonzero;"></path>
                    </g>
                    <g transform="matrix(2,0,0,2,3011.22,121.072)">
                        <path d="M0,-3.225L-1.155,-3.225C-1.444,-3.225 -1.686,-3.142 -1.881,-2.976C-2.076,-2.81 -2.202,-2.58 -2.258,-2.287L-2.527,-0.879C-2.578,-0.613 -2.54,-0.4 -2.413,-0.24C-2.286,-0.08 -2.091,0 -1.829,0C-1.225,0 -0.544,-0.039 0.214,-0.117L0.354,-0.85C-0.392,-0.791 -0.956,-0.762 -1.337,-0.762C-1.395,-0.762 -1.439,-0.781 -1.47,-0.821C-1.501,-0.86 -1.511,-0.909 -1.5,-0.967L-1.455,-1.202L0.537,-1.202L0.744,-2.287C0.801,-2.58 0.763,-2.81 0.631,-2.976C0.499,-3.142 0.289,-3.225 0,-3.225M-0.272,-2.257L-0.333,-1.935L-1.315,-1.935L-1.253,-2.257C-1.223,-2.414 -1.132,-2.492 -0.978,-2.492L-0.458,-2.492C-0.304,-2.492 -0.242,-2.414 -0.272,-2.257" style="fill:white;fill-rule:nonzero;"></path>
                    </g>
                    <g transform="matrix(2,0,0,2,2987,120.954)">
                        <path d="M0,-3.108L-1.068,-0.997L-1.328,-3.108L-2.396,-3.108L-1.836,0L-0.681,0L1.068,-3.108L0,-3.108Z" style="fill:white;fill-rule:nonzero;"></path>
                    </g>
                    <g transform="matrix(2,0,0,2,3016.72,121.074)">
                        <path d="M0,-3.871L-0.895,-3.871L-1.145,-3.167L-1.491,-3.167L-1.643,-2.376L-1.296,-2.376L-1.582,-0.88C-1.633,-0.614 -1.595,-0.401 -1.468,-0.241C-1.341,-0.081 -1.146,0 -0.884,0C-0.526,0 -0.157,-0.02 0.224,-0.059L0.37,-0.821L-0.381,-0.821C-0.439,-0.821 -0.483,-0.841 -0.514,-0.88C-0.545,-0.919 -0.555,-0.968 -0.544,-1.027L-0.286,-2.376L0.436,-2.376L0.587,-3.167L-0.135,-3.167L0,-3.871Z" style="fill:white;fill-rule:nonzero;"></path>
                    </g>
                    <g transform="matrix(2,0,0,2,3021.8,121.074)">
                        <path d="M0,-3.871L-0.895,-3.871L-1.145,-3.167L-1.492,-3.167L-1.643,-2.376L-1.296,-2.376L-1.582,-0.88C-1.633,-0.614 -1.595,-0.401 -1.468,-0.241C-1.341,-0.081 -1.146,0 -0.884,0C-0.526,0 -0.157,-0.02 0.224,-0.059L0.37,-0.821L-0.381,-0.821C-0.439,-0.821 -0.483,-0.841 -0.514,-0.88C-0.545,-0.919 -0.555,-0.968 -0.544,-1.027L-0.286,-2.376L0.436,-2.376L0.587,-3.167L-0.135,-3.167L0,-3.871Z" style="fill:white;fill-rule:nonzero;"></path>
                    </g>
                    <g transform="matrix(2,0,0,2,3032.94,120.076)">
                        <path d="M0,-2.287L0.015,-2.668L-0.88,-2.668L-1.474,0.44L-0.464,0.44L-0.066,-1.642C0.215,-1.759 0.476,-1.818 0.719,-1.818L1.21,-1.818L1.383,-2.727L1.123,-2.727C0.762,-2.727 0.387,-2.58 0,-2.287" style="fill:white;fill-rule:nonzero;"></path>
                    </g>
                    <g transform="matrix(2,0,0,2,3004.41,119.08)">
                        <path d="M0,-2.229L-0.202,-2.229C-0.483,-2.229 -0.818,-2.19 -1.206,-2.112L-1.004,-3.167L-2.015,-3.167L-2.8,0.938L-0.663,0.938C-0.375,0.938 -0.133,0.855 0.063,0.689C0.258,0.522 0.384,0.293 0.44,0L0.698,-1.349C0.749,-1.615 0.711,-1.828 0.583,-1.989C0.456,-2.149 0.262,-2.229 0,-2.229M-0.335,-1.232L-0.554,-0.088C-0.584,0.068 -0.675,0.146 -0.829,0.146L-1.638,0.146L-1.346,-1.379C-1.279,-1.386 -1.186,-1.398 -1.065,-1.414C-0.945,-1.43 -0.804,-1.437 -0.642,-1.437L-0.498,-1.437C-0.44,-1.437 -0.396,-1.418 -0.365,-1.379C-0.334,-1.34 -0.324,-1.291 -0.335,-1.232" style="fill:white;fill-rule:nonzero;"></path>
                    </g>
                    <g transform="matrix(2,0,0,2,3028.31,121.072)">
                        <path d="M0,-3.225L-1.155,-3.225C-1.444,-3.225 -1.686,-3.142 -1.881,-2.976C-2.076,-2.81 -2.202,-2.58 -2.258,-2.287L-2.527,-0.879C-2.578,-0.613 -2.54,-0.4 -2.413,-0.24C-2.286,-0.08 -2.091,0 -1.829,0C-1.225,0 -0.544,-0.039 0.214,-0.117L0.354,-0.85C-0.392,-0.791 -0.956,-0.762 -1.337,-0.762C-1.395,-0.762 -1.439,-0.781 -1.47,-0.821C-1.501,-0.86 -1.511,-0.909 -1.5,-0.967L-1.455,-1.202L0.537,-1.202L0.744,-2.287C0.801,-2.58 0.763,-2.81 0.631,-2.976C0.499,-3.142 0.289,-3.225 0,-3.225M-0.272,-2.257L-0.333,-1.935L-1.315,-1.935L-1.253,-2.257C-1.223,-2.414 -1.131,-2.492 -0.977,-2.492L-0.458,-2.492C-0.304,-2.492 -0.242,-2.414 -0.272,-2.257" style="fill:white;fill-rule:nonzero;"></path>
                    </g>
                    <g transform="matrix(2,0,0,2,2993.67,121.072)">
                        <path d="M0,-3.225L-1.155,-3.225C-1.444,-3.225 -1.686,-3.142 -1.881,-2.976C-2.076,-2.81 -2.202,-2.58 -2.258,-2.287L-2.527,-0.879C-2.578,-0.613 -2.54,-0.4 -2.413,-0.24C-2.286,-0.08 -2.091,0 -1.829,0C-1.225,0 -0.544,-0.039 0.214,-0.117L0.354,-0.85C-0.392,-0.791 -0.956,-0.762 -1.337,-0.762C-1.395,-0.762 -1.439,-0.781 -1.47,-0.821C-1.501,-0.86 -1.511,-0.909 -1.5,-0.967L-1.455,-1.202L0.537,-1.202L0.745,-2.287C0.801,-2.58 0.763,-2.81 0.631,-2.976C0.499,-3.142 0.289,-3.225 0,-3.225M-0.272,-2.257L-0.333,-1.935L-1.315,-1.935L-1.253,-2.257C-1.223,-2.414 -1.131,-2.492 -0.977,-2.492L-0.458,-2.492C-0.304,-2.492 -0.242,-2.414 -0.272,-2.257" style="fill:white;fill-rule:nonzero;"></path>
                    </g>
                    <g transform="matrix(2,0,0,2,3052.67,83.6038)">
                        <path d="M0,0.725C-0.059,0.662 -0.145,0.599 -0.26,0.534C0.055,0.487 0.289,0.374 0.441,0.193C0.594,0.011 0.671,-0.212 0.673,-0.48C0.675,-0.686 0.632,-0.876 0.544,-1.049C0.454,-1.221 0.334,-1.342 0.183,-1.41C0.032,-1.479 -0.19,-1.515 -0.482,-1.518L-1.934,-1.534L-1.972,2.229L-1.539,2.233L-1.522,0.562L-1.019,0.568C-0.908,0.569 -0.828,0.576 -0.778,0.588C-0.711,0.608 -0.646,0.642 -0.581,0.691C-0.518,0.738 -0.444,0.824 -0.364,0.944C-0.283,1.064 -0.18,1.238 -0.056,1.465L0.369,2.253L0.914,2.259L0.355,1.228C0.243,1.028 0.125,0.859 0,0.725M-0.586,0.141L-1.518,0.132L-1.505,-1.114L-0.469,-1.103C-0.226,-1.101 -0.048,-1.041 0.063,-0.925C0.174,-0.809 0.229,-0.663 0.227,-0.485C0.226,-0.362 0.195,-0.251 0.136,-0.149C0.077,-0.046 -0.008,0.029 -0.121,0.075C-0.232,0.121 -0.388,0.143 -0.586,0.141" style="fill:white;fill-rule:nonzero;"></path>
                    </g>
                    <g transform="matrix(2,0,0,2,3051.21,90.7058)">
                        <path d="M0,-6.482C-1.758,-6.5 -3.206,-5.06 -3.224,-3.275C-3.242,-1.489 -1.823,-0.019 -0.066,0C1.692,0.018 3.141,-1.423 3.159,-3.208C3.177,-4.993 1.758,-6.464 0,-6.482M-0.061,-0.429C-1.586,-0.445 -2.817,-1.721 -2.801,-3.27C-2.785,-4.818 -1.529,-6.068 -0.004,-6.052C1.521,-6.037 2.751,-4.76 2.736,-3.212C2.72,-1.663 1.464,-0.413 -0.061,-0.429" style="fill:white;fill-rule:nonzero;"></path>
                    </g>
                </g>
            </g>
        </g>
    </g>
</svg>
