<?xml version="1.0" encoding="UTF-8"?>
<svg version="1.1" xmlns="http://www.w3.org/2000/svg" width="2560" height="543">
<path d="M0 0 C1.46641195 -0.00087395 2.93282359 -0.0026284 4.39923358 -0.00517833 C8.39691769 -0.00961868 12.39449322 -0.0016942 16.39216352 0.00837779 C20.71510116 0.01705815 25.03803326 0.0140889 29.36097717 0.01257324 C36.84020678 0.01152728 44.31940134 0.01777362 51.79862213 0.02904892 C62.61216085 0.04534021 73.42568273 0.05051563 84.23923239 0.0530249 C101.78577959 0.05739632 119.33230814 0.07069039 136.87884521 0.08963013 C153.91823231 0.10800326 170.95761429 0.1221298 187.99700928 0.13064575 C189.05897188 0.13118175 190.12093447 0.13171774 191.21507776 0.13226998 C199.5209871 0.13642911 207.82689656 0.14034286 216.13280606 0.14417911 C256.80712139 0.16302811 297.48139 0.20326907 338.15570068 0.24050903 C338.15570068 52.38050903 338.15570068 104.52050903 338.15570068 158.24050903 C336.83570068 158.24050903 335.51570068 158.24050903 334.15570068 158.24050903 C333.66263428 157.22343872 333.66263428 157.22343872 333.15960693 156.18582153 C325.17087733 140.5547571 312.47859853 129.80292827 295.87054443 124.11550903 C263.55584614 114.38173502 218.70470061 114.01273839 188.15570068 130.24050903 C168.64196089 141.4414459 157.5668165 157.85065824 151.74163818 179.27175903 C145.21547524 204.67600782 144.94587857 230.46882633 144.96820068 256.55300903 C144.9684726 257.7461673 144.96874451 258.93932556 144.96902466 260.16864014 C144.98763797 277.92708009 145.17858327 295.57330961 147.15570068 313.24050903 C147.25221924 314.12448364 147.34873779 315.00845825 147.44818115 315.91921997 C150.30582266 340.55406053 158.02079477 365.6165603 177.47991943 382.18191528 C198.306163 398.20444135 224.52178608 401.47073208 250.03070068 401.49050903 C250.81126831 401.49118378 251.59183594 401.49185852 252.39605713 401.49255371 C277.88998465 401.45754357 302.47594161 397.96915804 321.83929443 379.69363403 C328.14136028 373.01960814 332.97513207 365.3805585 337.15570068 357.24050903 C338.14570068 357.24050903 339.13570068 357.24050903 340.15570068 357.24050903 C340.54078679 371.40312012 339.25137801 384.99670384 338.15570068 399.24050903 C359.93570068 399.24050903 381.71570068 399.24050903 404.15570068 399.24050903 C404.15570068 267.57050903 404.15570068 135.90050903 404.15570068 0.24050903 C562.74954869 0.15975175 562.74954869 0.15975175 623.4739126 0.14417911 C639.35290402 0.14009668 655.23189541 0.13592083 671.11088673 0.13145705 C673.03157923 0.13091736 674.95227173 0.13038062 676.87296423 0.12984686 C707.4938217 0.12131285 738.11467179 0.10630505 768.7355248 0.08791459 C800.20587849 0.06904826 831.67622809 0.05673788 863.14658734 0.05267905 C867.59133846 0.05210274 872.03608958 0.05145147 876.48084068 0.05075455 C877.35563328 0.0506197 878.23042589 0.05048486 879.13172735 0.05034592 C893.21467312 0.04798229 907.29760626 0.03870564 921.38054687 0.02684497 C935.53792164 0.01506909 949.69528388 0.01057343 963.85266338 0.01350628 C972.26426811 0.01502766 980.67582702 0.01096987 989.08742348 -0.00108605 C995.36859495 -0.0094736 1001.64972224 -0.00741092 1007.93089541 -0.00128876 C1010.47212535 -0.00044269 1013.01335915 -0.00298871 1015.5545815 -0.00925733 C1019.00858981 -0.01728268 1022.46237408 -0.01295719 1025.91637897 -0.00558662 C1026.90303249 -0.01084065 1027.889686 -0.01609468 1028.90623811 -0.02150792 C1038.96381379 0.0269911 1048.96197015 0.77148508 1056.84320068 7.55300903 C1061.84662742 13.36780227 1063.50786477 19.27157733 1063.3661499 26.85769653 C1062.41364288 37.64246284 1058.33222675 47.99267883 1054.72039795 58.10794067 C1053.04073121 62.81353861 1051.38560152 67.52780091 1049.72601318 72.24050903 C1049.36545837 73.26229248 1049.00490356 74.28407593 1048.63342285 75.33682251 C1044.35837791 87.46742196 1040.18591061 99.63332666 1036.00939941 111.7980957 C1033.75855282 118.35396808 1031.50472257 124.90881402 1029.24945068 131.46316528 C1029.03019299 132.10040087 1028.81093529 132.73763645 1028.58503342 133.39418221 C1023.88834688 147.0410349 1019.13904738 160.66925739 1014.36395264 174.28884888 C1011.33446401 182.93816941 1008.34608133 191.59945036 1005.41741943 200.28347778 C1005.11417755 201.18023727 1004.81093567 202.07699677 1004.49850464 203.00093079 C1003.05299782 207.27570186 1001.61421345 211.55246651 1000.18890381 215.83401489 C999.68207038 217.33681111 999.17492735 218.83950296 998.66741943 220.34207153 C998.44108322 221.03137253 998.21474701 221.72067352 997.98155212 222.43086243 C996.38289254 227.1269131 996.38289254 227.1269131 994.15570068 228.24050903 C994.06071289 227.31528442 993.9657251 226.39005981 993.86785889 225.4367981 C991.30250919 199.50287983 991.30250919 199.50287983 985.15570068 174.24050903 C984.93688232 173.56052856 984.71806396 172.8805481 984.49261475 172.17996216 C978.35324948 153.77077689 967.1342157 140.27859703 949.88372803 131.34646606 C921.98444899 117.66748665 886.63827589 117.06705269 856.15570068 118.24050903 C855.08175049 118.2815979 854.00780029 118.32268677 852.90130615 118.36502075 C820.96052422 119.74760473 787.81738993 123.66140858 764.15570068 147.24050903 C763.53050537 147.84250122 762.90531006 148.44449341 762.26116943 149.06472778 C747.50583585 164.41960088 742.59544837 187.78980265 740.15570068 208.24050903 C740.05273682 209.06373657 739.94977295 209.88696411 739.84368896 210.73513794 C735.99062693 243.37964298 736.07491285 278.62526256 740.15570068 311.24050903 C740.31643066 312.54254272 740.31643066 312.54254272 740.48040771 313.87088013 C743.60734146 338.10803033 750.25820488 364.17867507 770.15570068 380.24050903 C798.47464147 400.52351573 834.38297558 401.79213031 867.97064209 401.57669067 C871.91664955 401.55294314 875.86198261 401.55618243 879.80804443 401.56277466 C893.96467126 401.54642356 907.91727038 401.0307047 921.9901123 399.4730835 C925.16656397 399.13194686 928.34632261 398.87209102 931.53070068 398.61550903 C933.0723726 398.49057386 934.61404033 398.36558688 936.15570068 398.24050903 C934.16347459 405.92499434 931.82229068 413.42289505 929.20648193 420.91629028 C928.64201607 422.54596992 928.64201607 422.54596992 928.06614685 424.20857239 C927.27194372 426.49919 926.47600288 428.78920578 925.67840576 431.0786438 C924.48517915 434.50426573 923.29749564 437.93176788 922.11077881 441.35964966 C919.81065706 447.99305652 917.48845755 454.61851581 915.15570068 461.24050903 C914.59702805 462.83156967 914.59702805 462.83156967 914.02706909 464.45477295 C912.96067103 467.48258644 911.88423739 470.50662231 910.80413818 473.52957153 C910.48943069 474.4251326 910.17472321 475.32069366 909.85047913 476.24339294 C906.66641791 485.07857286 902.19544317 491.90474079 895.15570068 498.24050903 C894.45960693 498.94240356 894.45960693 498.94240356 893.74945068 499.65847778 C879.02436981 513.69783185 858.16096656 513.69100159 839.17547607 513.58108521 C837.10432447 513.58023722 835.03317196 513.58071741 832.96202087 513.58241272 C827.38449395 513.58326741 821.80716374 513.56572752 816.22968221 513.54469085 C810.38410412 513.52583564 804.53852067 513.52416667 798.69291687 513.52061462 C787.64359151 513.51132001 776.59435604 513.48674143 765.54507011 513.45656615 C752.95730817 513.4229414 740.36954176 513.40651589 727.78174603 513.39147985 C701.9063479 513.36018941 676.03102935 513.30747953 650.15570068 513.24050903 C650.15570068 512.58050903 650.15570068 511.92050903 650.15570068 511.24050903 C651.0387085 510.8396106 651.92171631 510.43871216 652.83148193 510.02566528 C670.87725967 501.58779218 683.0114661 489.06962876 690.15570068 470.24050903 C696.88169788 451.23371099 699.29678759 431.50281734 699.31391907 411.41465759 C699.32132603 409.54458504 699.32132603 409.54458504 699.32888263 407.63673323 C699.34150699 404.20690058 699.34984559 400.77710773 699.35630929 397.34726131 C699.3643685 393.63711533 699.37804696 389.92698937 699.39102173 386.21685791 C699.41270676 379.79894964 699.43088009 373.38103927 699.44662666 366.96311378 C699.46939833 357.68402179 699.49753077 348.40495204 699.52694594 339.12587901 C699.57453275 324.06896541 699.61782089 309.01204268 699.65838623 293.95510864 C699.69778663 279.33400767 699.73922365 264.71291479 699.78338623 250.09182739 C699.78747264 248.73857284 699.78747264 248.73857284 699.7916416 247.35797981 C699.80532183 242.8317831 699.81904195 238.30558651 699.83278191 233.77938998 C699.9466066 196.26644559 700.05265125 158.75348487 700.15570068 121.24050903 C678.37570068 121.24050903 656.59570068 121.24050903 634.15570068 121.24050903 C634.48570068 121.90050903 634.81570068 122.56050903 635.15570068 123.24050903 C635.38073138 125.54111048 635.54917951 127.84733653 635.69085693 130.15457153 C635.73383408 130.84304169 635.77681122 131.53151184 635.8210907 132.24084473 C635.91134571 133.7017064 635.99946767 135.16270118 636.08563232 136.62380981 C636.21646949 138.83623503 636.35445062 141.04812348 636.49359131 143.26004028 C636.90150971 149.93140269 637.20347759 156.55638085 637.15570068 163.24050903 C635.32757568 163.04910278 635.32757568 163.04910278 633.15570068 162.24050903 C631.73382568 160.08816528 631.73382568 160.08816528 630.40570068 157.30300903 C621.10695383 139.3114487 606.30444631 128.99851543 587.40570068 122.86550903 C554.35727277 113.64930125 512.37855687 115.73773012 481.96820068 132.49050903 C467.78089639 141.18956667 457.99925055 153.71922045 452.15570068 169.24050903 C451.73675537 170.35039185 451.31781006 171.46027466 450.88616943 172.60379028 C443.35312858 194.52015991 442.00648182 217.91813263 441.95257568 240.91238403 C441.94833462 242.15505413 441.94833462 242.15505413 441.94400787 243.42282867 C441.92911639 247.81534631 441.91982611 252.207832 441.91546631 256.60037231 C441.91110099 260.17241742 441.8972706 263.74421837 441.87445068 267.31619263 C440.91604395 325.6712011 440.91604395 325.6712011 466.89007568 375.96707153 C468.01156006 377.0924231 468.01156006 377.0924231 469.15570068 378.24050903 C469.75898193 378.86699341 470.36226318 379.49347778 470.98382568 380.13894653 C481.37849731 390.12687014 495.36847639 395.10511558 509.15570068 398.24050903 C509.85598389 398.40421997 510.55626709 398.56793091 511.277771 398.73660278 C533.76040348 403.71218309 561.80424629 403.9751246 584.15570068 398.24050903 C584.8118335 398.07421997 585.46796631 397.90793091 586.14398193 397.73660278 C606.88615802 392.21353815 621.06267488 380.77710343 632.09320068 362.49050903 C632.77382568 361.41800903 633.45445068 360.34550903 634.15570068 359.24050903 C634.81570068 359.24050903 635.47570068 359.24050903 636.15570068 359.24050903 C636.22564881 368.51669872 636.278737 377.79279564 636.3111372 387.06919289 C636.32669878 391.3780216 636.34775995 395.68666801 636.38201904 399.99539185 C636.41495595 404.1645928 636.43262488 408.33361997 636.44033241 412.50294113 C636.44581506 414.08231715 636.45651837 415.6616852 636.47289085 417.24098587 C636.62097252 432.13677432 635.69291654 448.30046428 625.49163818 460.17800903 C610.25607907 474.09176165 586.70258136 473.41117754 567.40570068 473.49050903 C565.47065674 473.50440674 565.47065674 473.50440674 563.496521 473.51858521 C550.13881746 473.47510532 534.99844475 473.13241264 523.99554443 464.55691528 C514.72526543 455.08981507 514.15570068 441.71216504 514.15570068 429.24050903 C493.69570068 429.24050903 473.23570068 429.24050903 452.15570068 429.24050903 C453.60771009 464.09296149 453.60771009 464.09296149 469.15570068 494.24050903 C469.91882568 495.29238403 470.68195068 496.34425903 471.46820068 497.42800903 C476.46652421 502.65881272 482.6509092 506.33746703 488.78070068 510.11550903 C489.89445068 510.81675903 491.00820068 511.51800903 492.15570068 512.24050903 C492.15570068 512.57050903 492.15570068 512.90050903 492.15570068 513.24050903 C426.89572398 513.27478426 361.63574621 513.30658374 296.37576294 513.32519531 C295.41006356 513.32547143 294.44436417 513.32574754 293.44940117 513.32603202 C272.46270641 513.33201768 251.47601156 513.33755807 230.48931656 513.34263969 C220.19760994 513.34513439 209.90590336 513.34772749 199.61419678 513.35037231 C198.59004228 513.35063383 197.56588778 513.35089535 196.5106983 513.35116479 C163.30835119 513.35968915 130.10601088 513.37471302 96.90366788 513.39310347 C62.78707428 513.41196602 28.67048445 513.42427931 -5.44611428 513.42833901 C-10.26363293 513.42891533 -15.08115157 513.42956661 -19.8986702 513.43026352 C-21.3209207 513.43046579 -21.3209207 513.43046579 -22.77190353 513.43067214 C-38.0415134 513.43303658 -53.31111163 513.44231543 -68.58071675 513.4541731 C-83.92773434 513.46594358 -99.27474038 513.47044599 -114.62176232 513.46751179 C-123.74232531 513.46598938 -132.86284608 513.47005732 -141.98340145 513.48210412 C-148.07567381 513.48960202 -154.1679185 513.48983764 -160.26019276 513.48417266 C-163.73164385 513.48115245 -167.20301506 513.48128559 -170.67445759 513.4902754 C-174.416477 513.49828171 -178.15828868 513.49398688 -181.90030479 513.48660469 C-182.97461563 513.49185872 -184.04892647 513.49711275 -185.15579218 513.50252599 C-195.06918624 513.45822619 -203.89519951 512.60714916 -211.84429932 506.24050903 C-217.4738446 500.46281782 -218.28021009 494.14009917 -218.25094604 486.31654358 C-218.03902362 478.87378566 -215.7408381 472.25401667 -213.21929932 465.30300903 C-212.69397692 463.79933182 -212.17105499 462.2948144 -211.65020752 460.7895813 C-210.44398242 457.31380784 -209.22449866 453.8430054 -207.99810791 450.3742981 C-205.5122364 443.32179396 -203.09453563 436.24609956 -200.67633057 429.17019653 C-199.74859804 426.45722173 -198.82057261 423.74434722 -197.89239502 421.03152466 C-197.65836692 420.34749699 -197.42433882 419.66346931 -197.18321896 418.95871353 C-189.62769247 396.88415867 -182.00269146 374.83291583 -174.28375244 352.81497192 C-171.30017554 344.30133336 -168.33776227 335.78115539 -165.41392517 327.2467804 C-163.84104924 322.65604633 -162.26312639 318.06705234 -160.68527222 313.47802734 C-159.92087384 311.24971011 -159.15910156 309.02049016 -158.40005493 306.79034424 C-157.35023026 303.70634773 -156.29157576 300.62551539 -155.23101807 297.54519653 C-154.76024841 296.15026726 -154.76024841 296.15026726 -154.27996826 294.72715759 C-153.98755249 293.88319931 -153.69513672 293.03924103 -153.39385986 292.16970825 C-153.14154099 291.43114594 -152.88922211 290.69258362 -152.6292572 289.93164062 C-151.84429932 288.24050903 -151.84429932 288.24050903 -149.84429932 287.24050903 C-149.77436768 288.04456177 -149.70443604 288.8486145 -149.63238525 289.67703247 C-145.28137493 339.99031168 -145.28137493 339.99031168 -117.15679932 380.49050903 C-90.04973333 400.91478525 -53.01815083 401.61253068 -20.61236572 401.50125122 C-16.615375 401.48765312 -12.61863778 401.50118442 -8.62164307 401.51394653 C41.59306357 401.86158257 41.59306357 401.86158257 85.47601318 380.04519653 C103.7751087 360.38430786 105.14377071 337.39559875 107.15570068 311.24050903 C85.37570068 311.24050903 63.59570068 311.24050903 41.15570068 311.24050903 C41.15570068 315.20050903 41.15570068 319.16050903 41.15570068 323.24050903 C39.03682677 332.60816212 35.66687274 340.31228907 27.59320068 345.92410278 C17.40062655 351.42874619 6.06503892 352.39326572 -5.28570557 352.40847778 C-6.17104477 352.41180618 -7.05638397 352.41513458 -7.96855164 352.41856384 C-9.83508795 352.42360113 -11.70163317 352.42597316 -13.56817627 352.42581177 C-16.37456764 352.42798408 -19.18055613 352.44613512 -21.98687744 352.46511841 C-39.57817665 352.52098914 -58.81413843 352.46209449 -72.84429932 340.24050903 C-88.24496715 323.25852263 -84.84429932 292.70959101 -84.84429932 272.24050903 C-21.48429932 272.24050903 41.87570068 272.24050903 107.15570068 272.24050903 C108.36724973 204.12254556 108.36724973 204.12254556 79.22601318 143.02957153 C55.4563277 120.67346786 18.96756001 119.14396141 -11.84429932 118.24050903 C-12.61290283 118.21714478 -13.38150635 118.19378052 -14.17340088 118.16970825 C-39.98252918 117.5005827 -66.99045399 119.13841507 -91.57867432 127.50613403 C-93.84429932 128.24050903 -93.84429932 128.24050903 -95.84429932 128.24050903 C-93.87709605 120.6645415 -91.58255758 113.26852974 -89.00054932 105.88113403 C-88.63479797 104.82540695 -88.26904663 103.76967987 -87.89221191 102.68196106 C-86.71353282 99.28341973 -85.52936959 95.88682658 -84.34429932 92.49050903 C-83.5281316 90.14621965 -82.71205132 87.80189983 -81.89605713 85.45755005 C-80.28550742 80.8330903 -78.67217178 76.20961404 -77.05718994 71.58670044 C-75.42766888 66.91937111 -73.80917936 62.24842446 -72.20074463 57.5737915 C-71.22412394 54.73916375 -70.23990612 51.90722345 -69.25323486 49.07608032 C-68.61924719 47.24987167 -67.99428088 45.42053876 -67.36968994 43.59109497 C-61.65737886 27.31052996 -53.50346805 14.38501427 -37.84429932 6.24050903 C-25.68324677 0.67469015 -13.19732527 -0.05914465 0 0 Z " fill="#DA2027" transform="translate(1480.8442993164063,14.759490966796875)"/>
<path d="M0 0 C1.65660645 0.02682861 1.65660645 0.02682861 3.34667969 0.05419922 C76.36039922 1.36039922 76.36039922 1.36039922 100 25 C120.487265 47.65810102 122.34821747 78.97777241 122.22705078 108.03564453 C122.22648496 109.96930943 122.22680656 111.90297475 122.22793579 113.8366394 C122.22850362 119.02552943 122.21684284 124.21432475 122.20278788 129.403193 C122.1901843 134.84836996 122.1891025 140.29354971 122.18673706 145.73873901 C122.18055033 156.02295713 122.16417797 166.30713213 122.14403808 176.59133136 C122.1215911 188.31098771 122.11066364 200.03064624 122.10064721 211.75031877 C122.07980889 235.83357517 122.04316824 259.91677255 122 284 C99.56 284 77.12 284 54 284 C55.16071429 261.94642857 55.16071429 261.94642857 56 251 C55.6596875 251.68964844 55.319375 252.37929688 54.96875 253.08984375 C47.34629875 267.86847928 37.10020644 276.28040148 21.46875 281.9375 C9.02742794 285.74835541 -3.62023332 287.14403122 -16.5703125 287.203125 C-17.56843964 287.20882507 -18.56656677 287.21452515 -19.59494019 287.22039795 C-21.70439614 287.22980114 -23.81386648 287.23636319 -25.92333984 287.24023438 C-29.06766406 287.24982512 -32.21130064 287.28084564 -35.35546875 287.3125 C-62.98663056 287.45735466 -93.79832958 285.48024633 -114.7890625 265.3046875 C-133.86352229 245.4214167 -136.59874462 218.1193394 -136.18359375 191.78125 C-135.66081436 171.85718597 -131.34635165 149.91574762 -117.12109375 134.8984375 C-93.24287918 113.52677584 -61.77408387 111.6265278 -31.26977539 111.73925781 C-27.80792869 111.7500142 -24.34659703 111.73928532 -20.88476562 111.7265625 C-0.45244536 111.71226532 20.8299969 112.47053828 38 125 C38.70511719 125.51175781 39.41023437 126.02351563 40.13671875 126.55078125 C44.22453725 129.81324973 46.98223457 133.29229936 49.73828125 137.73828125 C50.35356689 138.72481689 50.96885254 139.71135254 51.6027832 140.7277832 C52.06386475 141.47761475 52.52494629 142.22744629 53 143 C53.0769118 135.33608531 53.12895627 127.67227237 53.16479492 120.00805664 C53.17975671 117.40808391 53.20013343 114.80813587 53.22631836 112.20825195 C54.57083067 84.06893407 54.57083067 84.06893407 43.47265625 59.2734375 C28.96183063 45.41133115 3.32184259 47.56380144 -15.10888672 47.90673828 C-26.53052559 48.27517824 -39.90244984 49.840761 -48.50390625 58.1328125 C-55.1755902 66.45935279 -55.58712781 75.40345859 -57 86 C-79.44 86 -101.88 86 -125 86 C-125 63.12518909 -122.23042092 40.74371029 -105.875 23.25 C-78.73728839 -2.09689815 -34.75837016 -0.66917984 0 0 Z M-60 170 C-68.53967806 179.74370578 -68.7371407 193.73187261 -68 206 C-67.14849797 215.88688471 -64.70327075 224.71731957 -57.5 231.875 C-47.72176157 239.74212162 -34.08513241 240.15172332 -22.08984375 240.203125 C-20.52309654 240.21167511 -20.52309654 240.21167511 -18.92469788 240.22039795 C-16.71844484 240.22981579 -14.51217795 240.23636909 -12.3059082 240.24023438 C-8.97256114 240.24989835 -5.63984222 240.28093606 -2.30664062 240.3125 C13.97628189 240.39446703 30.98294374 240.26388998 44.16015625 229.18359375 C53.57711082 219.28679436 54.50571556 206.60435163 54.265625 193.62109375 C53.83903713 183.43108058 50.84252689 175.39818812 43.62109375 168.09375 C22.45594163 151.18686246 -40.18287152 150.63428675 -60 170 Z " fill="#000000" transform="translate(893,131)"/>
<path d="M0 0 C31.75258018 33.29705475 26.67729956 93.36790847 25.73046875 135.86328125 C23.56632868 210.3269827 23.56632868 210.3269827 -1.41015625 235.2734375 C-5.69677815 239.15599258 -10.2075128 242.09674236 -15.26953125 244.86328125 C-15.98753906 245.29898437 -16.70554687 245.7346875 -17.4453125 246.18359375 C-32.25444052 254.5482522 -50.58890194 257.15689901 -67.26953125 258.86328125 C-68.13457275 258.95826904 -68.99961426 259.05325684 -69.89086914 259.15112305 C-80.65391199 260.16565369 -91.45759979 260.04935137 -102.25854492 260.04858398 C-105.6679358 260.05075634 -109.07699481 260.06892388 -112.48632812 260.08789062 C-130.1188211 260.13382626 -147.8734417 259.59076561 -165.20703125 256.05078125 C-166.06490234 255.87973877 -166.92277344 255.70869629 -167.80664062 255.5324707 C-185.22165891 251.90867722 -200.6046249 245.68537615 -213.26953125 232.86328125 C-214.20539063 231.96029297 -214.20539063 231.96029297 -215.16015625 231.0390625 C-241.28693055 203.91193873 -238.63799095 155.90449517 -238.53027344 121.29785156 C-238.51887981 117.60407718 -238.52567061 113.91059104 -238.53714371 110.21682644 C-238.59479943 88.39087948 -238.64807812 66.23174158 -234.01953125 44.80078125 C-233.80409668 43.77259277 -233.58866211 42.7444043 -233.36669922 41.68505859 C-228.98642192 21.71237175 -220.58614214 3.09043553 -202.94921875 -8.515625 C-154.89646738 -37.58543815 -42.31749692 -41.32187302 0 0 Z M-155.01953125 35.61328125 C-171.24636887 51.84011887 -170.41911238 78.30090837 -170.4375 99.6484375 C-170.44072894 101.03926118 -170.4440941 102.43008455 -170.44758606 103.82090759 C-170.45352359 106.71939884 -170.45543168 109.61786053 -170.45483398 112.51635742 C-170.45475297 115.44350394 -170.46166446 118.37049314 -170.4753418 121.29760742 C-172.29867849 161.20742395 -172.29867849 161.20742395 -156.64453125 196.17578125 C-143.93884426 208.02006573 -125.59396717 208.05042065 -109.26049805 208.04858398 C-107.10379956 208.05075929 -104.94762338 208.06894063 -102.79101562 208.08789062 C-87.11851472 208.15215482 -69.67074364 207.4839633 -57.234375 196.82421875 C-38.81703953 178.44349826 -42.21256404 143.57607588 -42.14648438 119.50552368 C-40.05213542 76.78332705 -40.05213542 76.78332705 -55.33984375 38.6875 C-77.55829562 17.68341696 -130.41578719 19.95635321 -155.01953125 35.61328125 Z " fill="#000000" transform="translate(552.26953125,158.13671875)"/>
<path d="M0 0 C15.08691329 15.44222103 19 36.12225412 19 57 C-3.44 57 -25.88 57 -49 57 C-49.99 51.39 -50.98 45.78 -52 40 C-54.92009052 34.08297447 -57.84078352 29.64883225 -64.1875 27.1328125 C-73.05468705 24.22326675 -82.14464242 23.84496052 -91.41796875 23.83203125 C-92.27828201 23.82870285 -93.13859528 23.82537445 -94.02497864 23.82194519 C-95.83248365 23.8169217 -97.63999778 23.81453543 -99.44750977 23.81469727 C-102.16373572 23.81251906 -104.87954912 23.79433653 -107.59570312 23.77539062 C-121.47108047 23.72972503 -135.28936096 23.75574432 -148 30 C-148.928125 30.4125 -149.85625 30.825 -150.8125 31.25 C-156.81046367 36.04837093 -159.39877053 43.39262318 -160.625 50.75 C-161.61640981 60.23148293 -161.50141167 69.59695079 -157.4375 78.375 C-149.83885181 86.55815959 -136.82074574 87.23051826 -126.31640625 88.03515625 C-124.77008263 88.1586721 -124.77008263 88.1586721 -123.19252014 88.28468323 C-108.50036485 89.40684002 -93.77165654 89.97941196 -79.05151367 90.60180664 C-9.7242852 93.56854189 -9.7242852 93.56854189 11 116 C27.87159182 134.81831395 30.03917562 162.22168538 29.15234375 186.37011719 C28.02192644 205.88430835 22.39153069 224.96868823 7.984375 238.95703125 C-22.58603446 264.34329784 -65.82722356 263.36918268 -103.34326172 263.26074219 C-107.33099294 263.24932887 -111.31845778 263.25613868 -115.30618 263.26761913 C-186.09316827 263.44085977 -186.09316827 263.44085977 -209.6875 241.875 C-227.41964319 222.65810798 -230 195.92255025 -230 171 C-207.56 171 -185.12 171 -162 171 C-161.01 178.26 -160.02 185.52 -159 193 C-154.84511141 203.38722148 -152.60408172 207.36800332 -142.91046143 211.85800171 C-133.98466526 215.36027935 -124.16256029 215.31773392 -114.703125 215.3359375 C-112.85445831 215.3459227 -112.85445831 215.3459227 -110.96844482 215.35610962 C-108.37676471 215.36617269 -105.78505901 215.37092862 -103.19335938 215.37060547 C-99.27429559 215.37497292 -95.35636487 215.41134819 -91.4375 215.44921875 C-69.86413576 215.91841602 -69.86413576 215.91841602 -49.8125 208.8125 C-41.11125938 200.11125938 -39.85061392 189.74882127 -39.75 177.875 C-39.81290429 169.32900317 -40.20826537 161.70621905 -46 155 C-60.95876219 142.08106902 -87.01701974 143.70365318 -105.5189209 143.10943604 C-111.20347396 142.92407242 -116.88686134 142.70840352 -122.5703125 142.4921875 C-123.67052734 142.45044403 -124.77074219 142.40870056 -125.90429688 142.36569214 C-195.49746763 139.67344495 -195.49746763 139.67344495 -215.375 118.6875 C-232.13129346 98.34057223 -231.84263157 65.63457661 -229.53515625 40.65795898 C-227.48334217 22.49985438 -220.85329758 5.64186146 -206.3828125 -6.12890625 C-161.97130464 -37.84281498 -40.81289738 -37.88797307 0 0 Z " fill="#000000" transform="translate(246,155)"/>
<path d="M0 0 C10.02519098 10.30318588 15.28453418 23.02747631 18 37 C18.18095215 37.92087402 18.3619043 38.84174805 18.54833984 39.79052734 C20.47430169 51.12701414 20.22120871 62.41083828 20.125 73.875 C20.08375 80.84625 20.0425 87.8175 20 95 C-0.79 95 -21.58 95 -43 95 C-43.75 78.3125 -43.75 78.3125 -43.95605469 73.1340332 C-44.61129786 56.64665332 -44.61129786 56.64665332 -52.6875 42.875 C-63.72461747 34.64807111 -77.62472996 35.43896411 -90.61328125 37.2109375 C-100.46696754 38.80469741 -110.42236838 43.14488978 -116.6796875 51.1484375 C-123.68380244 61.91595749 -126.14077137 74.29457051 -126.15821838 86.97898865 C-126.16315636 87.75267747 -126.16809434 88.52636628 -126.17318195 89.32350022 C-126.18846373 91.89982819 -126.19689212 94.47613143 -126.20532227 97.05249023 C-126.21490813 98.90571813 -126.22491862 100.75894387 -126.23532104 102.61216736 C-126.26229943 107.63224008 -126.28334716 112.65232213 -126.30332303 117.67242694 C-126.32522628 122.9228349 -126.3525937 128.17321433 -126.37937927 133.42359924 C-126.42924756 143.36107091 -126.47420811 153.29855848 -126.51740164 163.23606116 C-126.56682418 174.5516256 -126.62172368 185.86716141 -126.67708123 197.18269813 C-126.79081125 220.45510666 -126.89694681 243.72754158 -127 267 C-149.44 267 -171.88 267 -195 267 C-195 174.6 -195 82.2 -195 -13 C-173.22 -13 -151.44 -13 -129 -13 C-129 11.375 -129 11.375 -130 23 C-129.34 23 -128.68 23 -128 23 C-127.74605469 22.12214844 -127.49210937 21.24429688 -127.23046875 20.33984375 C-122.35346079 7.10225072 -110.31162594 -2.92652803 -98 -9 C-68.59380597 -21.61793053 -25.05863749 -21.96974535 0 0 Z " fill="#000000" transform="translate(1271,148)"/>
<path d="M0 0 C22.44 0 44.88 0 68 0 C68 132 68 264 68 400 C45.56 400 23.12 400 0 400 C0 268 0 136 0 0 Z " fill="#000000" transform="translate(634,15)"/>
<path d="M0 0 C2.31904094 0.0160757 4.63633383 0.00005948 6.95532227 -0.01904297 C24.64562587 -0.0433227 42.3196645 2.38981135 55.38696289 15.39111328 C71.73016713 34.94572536 69.72438917 63.12500944 69.64770508 87.02856445 C69.63632213 90.60636875 69.64307019 94.18387511 69.65459061 97.76166916 C69.80667651 153.45416758 69.80667651 153.45416758 54.26196289 170.26611328 C37.65980039 185.59118636 13.73348554 185.00121777 -7.43432617 184.52294922 C-20.53285692 183.97969218 -32.70194042 180.26932223 -42.48803711 171.26611328 C-57.38378529 155.02355242 -57.75946926 131.02432161 -57.81616211 110.21533203 C-57.81898949 109.50266489 -57.82181686 108.78999775 -57.82472992 108.05573463 C-57.83962526 104.27616651 -57.84891278 100.49663552 -57.85327148 96.71704102 C-57.85763464 93.64432765 -57.8714557 90.57189848 -57.89428711 87.49926758 C-58.32489291 28.3612335 -58.32489291 28.3612335 -42.95288086 11.57861328 C-31.08172112 0.76206683 -15.30005163 -0.12568763 0 0 Z " fill="#DA2027" transform="translate(2045.613037109375,182.60888671875)"/>
<path d="M0 0 C2.41130319 0.01607048 4.82092531 0.00007256 7.23217773 -0.01904297 C23.8291111 -0.0418764 41.56566472 2.10536898 54.01538086 14.17236328 C71.56423659 33.98896379 69.1673482 65.35522045 69.16552734 90.12426758 C69.16770483 93.42363576 69.18590493 96.7226636 69.20483398 100.02197266 C69.34878948 153.80038375 69.34878948 153.80038375 53.85522461 171.14111328 C37.96121889 185.91975018 13.39903871 184.97671865 -6.79370117 184.52294922 C-20.27818118 183.97189585 -34.39867293 180.45970888 -44.01977539 170.39111328 C-59.87983793 149.76953086 -58.20688924 121.46240791 -58.20507812 96.73339844 C-58.20725301 93.42515966 -58.22544011 90.11726168 -58.24438477 86.80908203 C-58.39975832 27.92908173 -58.39975832 27.92908173 -41.46118164 10.51611328 C-29.97948376 0.52244345 -14.50440577 -0.11468258 0 0 Z " fill="#DA2027" transform="translate(1749.019775390625,182.60888671875)"/>
<path d="M0 0 C58.08 0 116.16 0 176 0 C175.25201216 5.2359149 174.30391406 9.55516871 172.53125 14.4296875 C172.29088013 15.10548859 172.05051025 15.78128967 171.80285645 16.47756958 C171.29828439 17.8920871 170.79055236 19.3054811 170.27978516 20.71777344 C169.49551987 22.88739399 168.72161763 25.06050506 167.94921875 27.234375 C167.45632531 28.61219257 166.96285652 29.98980449 166.46875 31.3671875 C166.23643677 32.01815399 166.00412354 32.66912048 165.76477051 33.33981323 C164.11645626 37.88354374 164.11645626 37.88354374 163 39 C160.26105915 39.08858646 157.5474673 39.11523479 154.80859375 39.09765625 C153.98875504 39.0962413 153.16891632 39.09482635 152.32423401 39.09336853 C149.69528618 39.08775289 147.06642227 39.07519779 144.4375 39.0625 C142.65950643 39.05748701 140.88151154 39.05292376 139.10351562 39.04882812 C134.73564455 39.03777839 130.36783652 39.02050331 126 39 C126.01305176 39.65154053 126.02610352 40.30308105 126.03955078 40.97436523 C126.16523901 51.7885405 124.49273977 61.73667211 117 70 C106.58491545 79.25785294 92.63374343 80.15062772 79.3046875 80.16796875 C78.39478058 80.17129715 77.48487366 80.17462555 76.5473938 80.17805481 C74.62958273 80.18309266 72.71176299 80.18546411 70.79394531 80.18530273 C67.90414448 80.18747806 65.01473295 80.20563688 62.125 80.22460938 C25.27272473 80.33847955 25.27272473 80.33847955 12 68 C-4.02500687 51.08471497 0 20.19863196 0 0 Z " fill="#DA2027" transform="translate(2284,287)"/>
<path d="M0 0 C3.45995404 0.01610075 6.91874308 0.00006584 10.37866211 -0.01904297 C42.91319984 -0.05173454 42.91319984 -0.05173454 54.40014648 9.39111328 C67.24645484 22.36184109 64.40014648 46.7278295 64.40014648 62.39111328 C22.82014648 62.39111328 -18.75985352 62.39111328 -61.59985352 62.39111328 C-61.59985352 21.60703433 -61.59985352 21.60703433 -50.61938477 10.14111328 C-37.17403676 -1.50978789 -16.63472861 -0.09204149 0 0 Z " fill="#DA2027" transform="translate(2345.599853515625,182.60888671875)"/>
<path d="M0 0 C3.37866369 0.01612144 6.75613739 0.00004809 10.13476562 -0.01904297 C42.31985667 -0.05079286 42.31985667 -0.05079286 52.75195312 8.39111328 C66.63800079 22.6756568 63.75195312 44.12176154 63.75195312 62.39111328 C22.17195313 62.39111328 -19.40804688 62.39111328 -62.24804688 62.39111328 C-62.24804688 21.39032547 -62.24804688 21.39032547 -51.26367188 10.10595703 C-37.63893636 -1.48562997 -16.80133383 -0.09529552 0 0 Z " fill="#DA2027" transform="translate(1458.248046875,182.60888671875)"/>
</svg>
